<svg id="Layer_1" data-name="Layer 1" xmlns="http://www.w3.org/2000/svg" xmlns:xlink="http://www.w3.org/1999/xlink" viewBox="0 0 2774.15 1819.04"><defs><style>.cls-1{fill:#141414;}.cls-2{fill:url(#linear-gradient);}.cls-3{fill:url(#linear-gradient-2);}.cls-4{fill:url(#linear-gradient-3);}.cls-5{fill:url(#linear-gradient-4);}.cls-6{fill:url(#linear-gradient-5);}.cls-14,.cls-15,.cls-7{opacity:0.3;isolation:isolate;}.cls-7{fill:url(#linear-gradient-6);}.cls-8{fill:url(#linear-gradient-7);}.cls-9{fill:url(#linear-gradient-8);}.cls-10{fill:url(#linear-gradient-9);}.cls-11{fill:url(#linear-gradient-10);}.cls-12{fill:url(#linear-gradient-11);}.cls-13{fill:url(#linear-gradient-12);}.cls-14{fill:url(#linear-gradient-13);}.cls-15{fill:url(#linear-gradient-14);}.cls-16{fill:#d8dee8;}.cls-17{fill:url(#linear-gradient-15);}.cls-18{fill:url(#linear-gradient-16);}.cls-19{fill:url(#linear-gradient-17);}.cls-20{fill:url(#linear-gradient-18);}.cls-21{fill:url(#linear-gradient-19);}.cls-22{fill:url(#linear-gradient-20);}.cls-23{fill:url(#linear-gradient-21);}.cls-24{fill:url(#linear-gradient-22);}.cls-25{fill:url(#linear-gradient-23);}.cls-26{fill:url(#linear-gradient-24);}.cls-27{fill:url(#linear-gradient-25);}.cls-28{fill:url(#linear-gradient-26);}.cls-29{fill:url(#linear-gradient-27);}.cls-30{fill:url(#linear-gradient-28);}.cls-31{opacity:0.49;}.cls-32{fill:#fff;}.cls-33{fill:url(#linear-gradient-29);}.cls-34{fill:url(#linear-gradient-30);}.cls-35{fill:url(#linear-gradient-31);}.cls-36{fill:url(#linear-gradient-32);}.cls-37{fill:url(#linear-gradient-33);}</style><linearGradient id="linear-gradient" x1="818.7" y1="-3656.11" x2="823.28" y2="-3714.38" gradientTransform="matrix(-1, 0.09, -0.09, -1, 1288.63, -2243.87)" gradientUnits="userSpaceOnUse"><stop offset="0" stop-color="#311944"/><stop offset="1" stop-color="#a03976"/></linearGradient><linearGradient id="linear-gradient-2" x1="830.42" y1="-3689.42" x2="829.59" y2="-3629.06" gradientTransform="matrix(-1, 0.09, -0.09, -1, 1288.63, -2243.87)" gradientUnits="userSpaceOnUse"><stop offset="0" stop-color="#ffc444"/><stop offset="1" stop-color="#f36f56"/></linearGradient><linearGradient id="linear-gradient-3" x1="904.91" y1="-3649.33" x2="909.49" y2="-3707.61" xlink:href="#linear-gradient"/><linearGradient id="linear-gradient-4" x1="909.39" y1="-3688.33" x2="908.56" y2="-3627.97" xlink:href="#linear-gradient-2"/><linearGradient id="linear-gradient-5" x1="802.69" y1="-3590.84" x2="847.31" y2="-3590.84" gradientTransform="matrix(-1, 0.09, -0.09, -1, 1288.63, -2243.87)" gradientUnits="userSpaceOnUse"><stop offset="0" stop-color="#aa80f9"/><stop offset="1" stop-color="#6165d7"/></linearGradient><linearGradient id="linear-gradient-6" x1="802.69" y1="-3590.86" x2="847.31" y2="-3590.86" xlink:href="#linear-gradient-5"/><linearGradient id="linear-gradient-7" x1="815.08" y1="-3586.23" x2="904.92" y2="-3586.23" xlink:href="#linear-gradient-5"/><linearGradient id="linear-gradient-8" x1="765.16" y1="-3316.66" x2="710.51" y2="-3467.65" gradientTransform="matrix(1, 0, 0, -1, 0, -2077.19)" xlink:href="#linear-gradient-2"/><linearGradient id="linear-gradient-9" x1="699.51" y1="-3292.9" x2="644.86" y2="-3443.9" gradientTransform="matrix(1, 0, 0, -1, 0, -2077.19)" xlink:href="#linear-gradient-2"/><linearGradient id="linear-gradient-10" x1="5079.77" y1="-3058.79" x2="5079.77" y2="-3022.73" gradientTransform="translate(3031.38 -4231.93) rotate(143.93)" xlink:href="#linear-gradient-2"/><linearGradient id="linear-gradient-11" x1="2028.8" y1="-4226.08" x2="2013.49" y2="-4187.19" gradientTransform="translate(2128.92 -3236.81) rotate(171.95)" gradientUnits="userSpaceOnUse"><stop offset="0" stop-color="#444b8c"/><stop offset="1" stop-color="#3e4177"/></linearGradient><linearGradient id="linear-gradient-12" x1="5058.45" y1="-3044.43" x2="5075.31" y2="-3011.65" gradientTransform="translate(3031.38 -4231.93) rotate(143.93)" xlink:href="#linear-gradient-2"/><linearGradient id="linear-gradient-13" x1="-1498.9" y1="-3568.2" x2="-1367.21" y2="-3568.2" gradientTransform="matrix(0.93, -0.37, -0.37, -0.93, 727.08, -2518.92)" xlink:href="#linear-gradient-2"/><linearGradient id="linear-gradient-14" x1="-1371.51" y1="-3572.73" x2="-1310.77" y2="-3572.73" gradientTransform="matrix(0.93, -0.37, -0.37, -0.93, 727.08, -2518.92)" xlink:href="#linear-gradient-2"/><linearGradient id="linear-gradient-15" x1="-3442.07" y1="-3151.13" x2="-3438.47" y2="-3130.77" gradientTransform="matrix(0.81, -0.59, -0.59, -0.81, 1625.48, -3210.96)" xlink:href="#linear-gradient-2"/><linearGradient id="linear-gradient-16" x1="841.07" y1="-3344.49" x2="838.82" y2="-3444.78" gradientTransform="matrix(1, 0, 0, -1, 0, -2077.19)" xlink:href="#linear-gradient-2"/><linearGradient id="linear-gradient-17" x1="1081.74" y1="-3257.57" x2="1008.34" y2="-3624.57" gradientTransform="matrix(1, 0, 0, -1, 0, -2077.19)" xlink:href="#linear-gradient-5"/><linearGradient id="linear-gradient-18" x1="936.5" y1="-3269.56" x2="1199.19" y2="-3269.56" gradientTransform="matrix(1, 0, 0, -1, 0, -2077.19)" gradientUnits="userSpaceOnUse"><stop offset="0" stop-color="#d8dee8"/><stop offset="0.49" stop-color="#ebeff2"/><stop offset="1" stop-color="#fff"/></linearGradient><linearGradient id="linear-gradient-19" x1="947.37" y1="-3199.53" x2="1005.62" y2="-3199.53" gradientTransform="matrix(1, 0, 0, -1, 0, -2077.19)" gradientUnits="userSpaceOnUse"><stop offset="0" stop-color="#311944"/><stop offset="1" stop-color="#893976"/></linearGradient><linearGradient id="linear-gradient-20" x1="1189.37" y1="-3164.58" x2="1134.88" y2="-3185.16" xlink:href="#linear-gradient-19"/><linearGradient id="linear-gradient-21" x1="937.06" y1="-3271.96" x2="989.53" y2="-3246.66" xlink:href="#linear-gradient-19"/><linearGradient id="linear-gradient-22" x1="974.15" y1="-3348.66" x2="1001.87" y2="-3297.43" xlink:href="#linear-gradient-19"/><linearGradient id="linear-gradient-23" x1="1197.14" y1="-3246.05" x2="1146.85" y2="-3216.65" gradientTransform="matrix(0.85, -0.53, -0.53, -0.85, -1522.8, -979.13)" xlink:href="#linear-gradient-19"/><linearGradient id="linear-gradient-24" x1="1185.05" y1="-3324.42" x2="1141.77" y2="-3285.42" xlink:href="#linear-gradient-19"/><linearGradient id="linear-gradient-25" x1="1073.36" y1="-3180.87" x2="1071.64" y2="-3352.29" xlink:href="#linear-gradient-19"/><linearGradient id="linear-gradient-26" x1="1100.47" y1="-3062.73" x2="1086.68" y2="-3128.2" gradientTransform="matrix(1, 0, 0, -1, 0, -2077.19)" xlink:href="#linear-gradient-2"/><linearGradient id="linear-gradient-27" x1="1059.47" y1="-3253.35" x2="1155.95" y2="-3298.14" gradientTransform="matrix(1, 0, 0, -1, 0, -2077.19)" xlink:href="#linear-gradient-2"/><linearGradient id="linear-gradient-28" x1="1024.89" y1="-3180.38" x2="1023.17" y2="-3351.81" gradientTransform="matrix(1, 0, 0, -1, 0, -2077.19)" xlink:href="#linear-gradient-2"/><linearGradient id="linear-gradient-29" x1="1136.8" y1="-3166.33" x2="1140.18" y2="-2860.41" gradientTransform="matrix(1, 0, 0, -1, 0, -2077.19)" xlink:href="#linear-gradient-2"/><linearGradient id="linear-gradient-30" x1="1003.05" y1="-3164.85" x2="1006.43" y2="-2858.93" gradientTransform="matrix(1, 0, 0, -1, 0, -2077.19)" xlink:href="#linear-gradient-2"/><linearGradient id="linear-gradient-31" x1="936.5" y1="-3269.91" x2="1199.21" y2="-3269.91" xlink:href="#linear-gradient-18"/><linearGradient id="linear-gradient-32" x1="1136.8" y1="-3222.87" x2="1140.18" y2="-2916.95" gradientTransform="matrix(1, 0, 0, -1, 0, -2077.19)" xlink:href="#linear-gradient-2"/><linearGradient id="linear-gradient-33" x1="1003.05" y1="-3221.39" x2="1006.43" y2="-2915.47" gradientTransform="matrix(1, 0, 0, -1, 0, -2077.19)" xlink:href="#linear-gradient-2"/></defs><title>debug</title><g id="Illustration"><path class="cls-1" d="M857.05,1508c-6.54-24.9-174.71-15.57-178.26,9.49-2,14.24,48,41.4,98.09,35.86C818.62,1548.75,860.56,1521.37,857.05,1508Z"/><path class="cls-2" d="M792.72,1515.55s19.08,6.77,19.5,8.07-11.85.57-16.79,1.19-9.12-.49-8.84-2.62,1.53-7.55,1.53-7.55Z"/><path class="cls-3" d="M792.81,1508.67l-.41,8.37s-2.82,1.28-4.87.23l-1.62-9Z"/><path class="cls-4" d="M706.34,1516.32l-1.85,3.61a4.17,4.17,0,0,0-.21,3.25c1,2.79,3,8.22,3.74,9.61,1.06,1.9,13,2,13,2s.93-1.58-1.69-3.17-4.23-1.74-5.33-4.32-2.33-10-2.33-10Z"/><path class="cls-5" d="M714.48,1506.84c-.72.69-3.54,12.6-3.54,12.6s-1.1,1.69-3.65-.44-1.16-1-1.16-1l-.53-11.43Z"/><path class="cls-6" d="M788.6,1341.69c3.09,24.58,5.44,51.38,6.49,80.12,1.17,32.37.53,62.44-1.19,89.8-1.5.18-3.09.32-4.73.42-1.12.06-2.2.1-3.25.12a202.7,202.7,0,0,1-8.68-21.17,208.19,208.19,0,0,1-7-25.08c-5.94-27.62-2-30.42-6.66-50.87-4.12-18.12-7.8-18.52-14.29-44.19-7-27.85-4-32.38-2.44-34C753.44,1329.66,770.48,1332.66,788.6,1341.69Z"/><path class="cls-7" d="M746.91,1336.79c6.22-6.8,22-4.37,39.2,3.7-17.06,21.94-18,35.3-15,43.65,3.38,9.45,11.37,11.57,12.25,22.14,1.08,13-10.35,17.44-8.91,31.16,1,9.07,6.09,8.53,8.27,19.65,2.59,13.16-3.75,18.31-.72,28,1.3,4.15,4.45,9.44,12.56,14.48-.2,4.08-.42,8.12-.67,12.09-1.5.18-3.08.32-4.73.42-1.12.06-2.2.1-3.25.12a202.7,202.7,0,0,1-8.68-21.17,208.19,208.19,0,0,1-7-25.08c-5.94-27.62-2-30.42-6.66-50.87-4.12-18.12-7.8-18.52-14.29-44.19C742.31,1343,745.37,1338.46,746.91,1336.79Z"/><path class="cls-8" d="M776.91,1342.28a555.24,555.24,0,0,0-61.91,169,10,10,0,0,1-5.35,1.31,10.17,10.17,0,0,1-6.43-2.79,160.05,160.05,0,0,1-4.79-39.21,134.92,134.92,0,0,1,3-30c3.23-14.8,6.23-15.88,10.75-31.63,4.69-16.36,2.88-20.18,7-40.5a259.73,259.73,0,0,1,10-35.85Z"/><path class="cls-9" d="M839.91,1303.07c.34,5.77-8.66,11.68-16.13,13.91-17.48,5.21-39.28-5.9-50.35-19.34-2.17-2.64-4.61-5.86-5.09-5.55-1.11.7,11.15,17.34,17.56,36.93,3.28,10,3.08,14.87,8.13,21.28,1.14,1.46,2.52,3,2.25,4.82-.69,4.67-11,6.78-18.22,8.25a170.19,170.19,0,0,1-21.8,2.62c-11.31.83-12.26.32-14.72,1.82-7.52,4.55-6.17,13.75-12,15.51-4.87,1.47-10.4-3.63-12.16-5.25-9.11-8.4-9.64-19.46-12.1-30.45-5.71-25.54-22.26-52.62-37.59-69.33-4.65-5.06-7.8-7.67-8.43-12.7-1.84-14.79,20.21-33.24,39.6-36.86a146,146,0,0,1,24-1.62c3.63,0,7.5.18,11.69.53,10.13.86,17.19,1.46,24.56,4.08,29.72,10.54,26.07,40.18,58.76,57.55C829.19,1295.25,839.56,1297,839.91,1303.07Z"/><path class="cls-10" d="M683.44,1366.06c-7.76,1.39-25.34,3.27-38.81-7.14-22.42-17.34-15.37-54.75-9.55-71.09,6.68-18.73,19-30,26.41-36.8,9.25-8.48,14.9-13.65,22.28-13.26,19.09,1,35.57,38.5,26.2,50.48-3.06,3.92-6.6,2.17-16.13,6.16-3.1,1.3-26.26,11-28.86,28.92-1.81,12.54,6.86,26.27,20.87,34.77Z"/><path class="cls-11" d="M713.91,1211.9s-.62,7-3,12.08c-2.17,4.63-12.59,7.14-14.72,8.1s3.73,4.3,9.72,5.17,23.22.26,26.41-1.88-2.39-2.22-6.61-4-6.34-10.27-5.41-14S713.91,1211.9,713.91,1211.9Z"/><path class="cls-12" d="M724.91,1208.93c4-3.42,4.44-11.75,1.9-13.39-.71-.46-1.34-.16-10.6,4.54-4.6,2.34-6.85,3.56-7.45,5.74a6.64,6.64,0,0,0,.53,4.38,16.37,16.37,0,0,0,2.24,3.08c1.15,1.39,1.09,1.35,1.44,1.75a23.43,23.43,0,0,0,5.34,4.37,14.64,14.64,0,0,1,.54-2.79,13.85,13.85,0,0,1,1.45-3.38C721.75,1210.84,723.6,1210,724.91,1208.93Z"/><path class="cls-13" d="M714.68,1217.72a8.9,8.9,0,0,0,8.26,2.88c4.57-.91,3.87-11.35.64-13.15a5.85,5.85,0,0,0-4.64,0c-.91.4-1.17.83-2.67,1.44s-1.81.46-2.2.88-.73,1.69.58,4.6a2.5,2.5,0,0,0-2.8-.52,1.51,1.51,0,0,0-.54.68C710.82,1215.8,712.1,1217.17,714.68,1217.72Z"/><path class="cls-14" d="M770.53,1351.93c-9.35-4.81-11.16-10.36-21.41-13.32-13.32-3.83-19,3-25.79-1.5-8.14-5.4-2.35-16.58-9.66-34.45-1.24-3-10.67-26.06-27.76-27.59-8-.71-18.07,3.21-21.47,10.21-2.66,5.48.59,9.1-2.7,15.18s-8,5.08-12.36,10.29c-7,8.28-6.77,24.42,1,32.87,3.61,3.94,8,5.24,16.15,7.68a75,75,0,0,0,13.54,2.71c-10.51-8.44-16.6-20-15.06-30.68,1.62-11.17,11.23-19.15,19-23.89,9.47,14.57,17.68,31.69,21.37,48.18,2.46,11,3,22,12.1,30.45,1.76,1.62,7.29,6.72,12.16,5.25,5.81-1.76,4.46-11,12-15.51,2.46-1.5,3.41-1,14.72-1.82a170.19,170.19,0,0,0,21.8-2.62c6.39-1.31,15.26-3.13,17.63-6.8C784.06,1357.29,776,1354.75,770.53,1351.93Z"/><path class="cls-15" d="M814.91,1304.4c-13.16-1.76-18.3-1.21-25.15-5.79-11.38-7.62-14.13-20.51-20.29-19.81-2.91.34-5,3.53-6.44,6.59l5.31,6.9c0-.1,0-.17.06-.2.48-.31,2.92,2.91,5.09,5.55,11.07,13.44,32.86,24.55,50.35,19.34,5-1.5,10.7-4.65,13.79-8.3A221.73,221.73,0,0,0,814.91,1304.4Z"/><path class="cls-16" d="M663.91,1392.91l-2.1-3.75a12.06,12.06,0,0,1,4.75-16.38l.44-.23L940.16,1220l1.12,6.76L681.13,1397.87A12.9,12.9,0,0,1,663.91,1392.91Z"/><path class="cls-17" d="M684,1364.36l1.34-4.49a9,9,0,0,0,5.05-2,6.8,6.8,0,0,1,4.09-1.37c.67.13,3.15-.2.44,1.39s-2.59,2.6-1.32,3.6,6,3,7.59,3-1.08,2.73-2.66,3.19a10.14,10.14,0,0,1-7.7-.55C689.51,1366.55,684,1364.36,684,1364.36Z"/><path class="cls-18" d="M832.38,1298.33s6-4.2,8.93-8,6.66-2.78,7.22-1-4.46,7.56-6.91,9S832.38,1298.33,832.38,1298.33Z"/><path class="cls-19" d="M940,1222.63c28.71-34.46,182.64-84.43,253.84-60.88,10.82,32.21,10.59,58.16,9.19,73.51-7.41,81.23-72.23,136.65-97.06,152.2-13,8.15-25.47,11.85-45.37,28.14-12.54,10.26-20.21,19.11-26.42,16.65-6.6-2.61-7.78-16.5-6.89-25.84,2.64-27.79,25.33-33.62,25.27-50.54-.08-20-31.66-27-62-54C974.5,1287.61,954.24,1263.73,940,1222.63Z"/><path class="cls-20" d="M964.24,1232.45c-22.42,0-26.57-4.87-27.52-8.87-1.16-4.86,1.32-13,36-27.31,23.38-9.67,55.15-19.48,89.46-27.65s67.1-13.71,92.31-15.61c37.46-2.83,43.32,3.29,44.48,8.15s-1.32,13-36,27.31c-23.38,9.66-55.15,19.48-89.46,27.64s-67.08,13.71-92.31,15.62C974.61,1232.23,969,1232.45,964.24,1232.45Zm207.14-73.26c-4.58,0-10.17.21-17,.74-24.79,1.92-57,7.39-90.63,15.4s-64.84,17.62-87.84,27.07c-32,13.14-32.54,19.53-32.54,19.58s3.41,5.5,37.86,2.83c24.81-1.92,57-7.39,90.64-15.4s64.85-17.62,87.85-27.08c31.77-13,32.53-19.44,32.53-19.58S1190,1159.19,1171.38,1159.19Z"/><path class="cls-21" d="M994.25,1132.84c-.06-.06-.21-.28-.33-.43l-.43-.51a12,12,0,0,0-.89-1c-.61-.67-1.26-1.32-1.92-1.93a29,29,0,0,0-4.23-3.26,19.88,19.88,0,0,0-9.17-3.18,7.23,7.23,0,0,0-1.14,0H975a17.53,17.53,0,0,0-2.26.31,19.82,19.82,0,0,0-2.24.56c-.74.29-1.48.49-2.21.86a33.82,33.82,0,0,0-8.42,5.54A7.91,7.91,0,0,1,949.28,1118l.17-.15a6.9,6.9,0,0,1,1-.73l.2-.13a47.89,47.89,0,0,1,13.39-5.92,37.21,37.21,0,0,1,3.75-.77,31.38,31.38,0,0,1,3.88-.31,29.91,29.91,0,0,1,3.9.13l1.93.28c.66.1,1.29.27,1.92.4a31.08,31.08,0,0,1,13.12,7,38.52,38.52,0,0,1,4.84,5.13,31.9,31.9,0,0,1,2,2.81c.32.48.63,1,.94,1.48.15.25.29.51.43.77l.48.88a4,4,0,0,1-6.39,4.62Z"/><path class="cls-22" d="M1141.31,1112.55l.13-1a5.09,5.09,0,0,1,.14-.87c.11-.58.22-1.15.35-1.72.25-1.13.56-2.24.91-3.35a37,37,0,0,1,2.72-6.5,30.91,30.91,0,0,1,9.81-11.16c.54-.35,1.07-.73,1.64-1l1.72-.94a30.74,30.74,0,0,1,3.6-1.51,31.22,31.22,0,0,1,7.52-1.68,47.48,47.48,0,0,1,14.61.81h.19a7.91,7.91,0,0,1-3.1,15.51,9.54,9.54,0,0,1-1.22-.35,33.94,33.94,0,0,0-9.83-2.2,21,21,0,0,0-2.38,0,10.71,10.71,0,0,0-2.29.27,16.79,16.79,0,0,0-2.23.52l-1.08.37a10.34,10.34,0,0,0-1,.46,19.75,19.75,0,0,0-7.45,6.21,27.9,27.9,0,0,0-2.81,4.54c-.4.81-.78,1.64-1.11,2.48-.17.43-.33.85-.48,1.27l-.21.63c-.06.19-.13.44-.17.53l-.32.78a4,4,0,0,1-7.61-2.07Z"/><path class="cls-23" d="M983.91,1183.94a3,3,0,0,1-.5-.24l-.6-.28c-.4-.19-.82-.36-1.24-.53-.84-.35-1.71-.64-2.58-.91a28.51,28.51,0,0,0-5.22-1.09,19.86,19.86,0,0,0-9.63,1.11c-.36.16-.72.28-1.06.46l-1,.52a17.5,17.5,0,0,0-1.91,1.26c-.62.42-1.18,1-1.77,1.47a10,10,0,0,0-1.62,1.74,33.4,33.4,0,0,0-5.18,8.64,7.91,7.91,0,0,1-14.7-5.87l.15-.33a5.58,5.58,0,0,1,.57-1.08l.12-.2a47.78,47.78,0,0,1,9.49-11.15c.93-.84,2-1.57,3-2.32a33.42,33.42,0,0,1,3.36-2,32.61,32.61,0,0,1,3.58-1.57L959,1171c.62-.19,1.26-.31,1.89-.47a31.11,31.11,0,0,1,14.85.58,40,40,0,0,1,6.58,2.51c1,.52,2.06,1.06,3.06,1.66q.72.42,1.47.93c.25.15.49.33.74.5l.81.58a4,4,0,0,1-3.75,6.94Z"/><path class="cls-24" d="M1005.74,1235.26l-.54.09-.65.13q-.66.12-1.32.3c-.88.21-1.76.48-2.62.77a29.41,29.41,0,0,0-4.87,2.17,20.09,20.09,0,0,0-7.16,6.55c-.18.34-.42.64-.59,1l-.52,1c-.28.72-.6,1.4-.81,2.14s-.38,1.5-.57,2.24-.23,1.56-.29,2.35a34,34,0,0,0,.86,10,7.91,7.91,0,0,1-15.43,3.5c-.08-.4-.14-.81-.18-1.21v-.24a48.6,48.6,0,0,1,1.16-14.58,31.39,31.39,0,0,1,2.67-7.23,32.48,32.48,0,0,1,2-3.37l1.17-1.57c.39-.52.84-1,1.26-1.49a30.89,30.89,0,0,1,12.38-8.22,38.35,38.35,0,0,1,6.8-1.82c1.16-.2,2.3-.36,3.45-.45.57,0,1.15-.09,1.74-.11h1.89a4,4,0,0,1,1,7.82Z"/><path class="cls-25" d="M1153.25,1153.8l.45-.89c.14-.26.28-.53.43-.78.3-.51.58-1,.9-1.5a29,29,0,0,1,2-2.87,38.38,38.38,0,0,1,4.71-5.23,30.87,30.87,0,0,1,13-7.29c.63-.15,1.26-.34,1.91-.45l1.93-.32a31.65,31.65,0,0,1,3.9-.24,33.64,33.64,0,0,1,3.88.22c1.26.2,2.56.36,3.77.68a47.92,47.92,0,0,1,13.52,5.6l.17.09a7.91,7.91,0,0,1-8.06,13.62,10.69,10.69,0,0,1-1-.73,33.86,33.86,0,0,0-8.55-5.33c-.74-.35-1.48-.53-2.23-.81a19.85,19.85,0,0,0-2.26-.5,17.53,17.53,0,0,0-2.27-.26h-1.14a6.35,6.35,0,0,0-1.15.07,20,20,0,0,0-9.08,3.4,28,28,0,0,0-4.15,3.36,23.76,23.76,0,0,0-1.88,2c-.31.34-.59.69-.86,1l-.41.52-.33.44-.57.63a4,4,0,0,1-6.5-4.46Z"/><path class="cls-26" d="M1140.67,1216l.93-.33.85-.27q.84-.27,1.68-.48c1.12-.3,2.25-.53,3.4-.73a37.3,37.3,0,0,1,7-.57,30.84,30.84,0,0,1,14.41,3.61,19.06,19.06,0,0,1,1.68,1l1.63,1.09a30,30,0,0,1,3,2.51,32.59,32.59,0,0,1,2.68,2.83,35.9,35.9,0,0,1,2.27,3.08,48.12,48.12,0,0,1,6,13.36l.06.18a7.91,7.91,0,0,1-15.21,4.36,7.79,7.79,0,0,1-.25-1.24,33.9,33.9,0,0,0-2.55-9.75c-.29-.76-.71-1.41-1.06-2.12a10.47,10.47,0,0,0-1.29-1.91,19.25,19.25,0,0,0-1.48-1.75l-.83-.79c-.28-.26-.59-.48-.89-.73a20,20,0,0,0-8.94-3.77,28.6,28.6,0,0,0-5.31-.41c-.91,0-1.82,0-2.73.14l-1.34.16-.65.1-.55.1-.84.06a4,4,0,0,1-1.66-7.71Z"/><path class="cls-27" d="M1162,1173.91c-3.2,44.53-33.76,110.28-85.85,112-49.55,1.63-88.47-52.66-92.77-100.51-5.37-59.9,42.34-123.9,92.77-123.48,38.88.33,66.13,38.86,68.63,42.5C1164.49,1133.15,1162.78,1163.26,1162,1173.91Z"/><path class="cls-28" d="M1144.78,1104.42c-2.5-3.64-29.75-42.17-68.63-42.5-28.9-.24-56.87,20.66-74.52,49.82a250.48,250.48,0,0,1,64.5-13.25,219.21,219.21,0,0,1,80.84,9.31C1146.28,1106.67,1145.55,1105.55,1144.78,1104.42Z"/><path class="cls-29" d="M1066.13,1098.49c-6.64,28-19.85,98.54-10.18,185a66.87,66.87,0,0,0,20.2,2.46c52.09-1.72,82.65-67.47,85.85-112,.73-10.23,2.35-38.44-15-66.11A219.15,219.15,0,0,0,1066.13,1098.49Z"/><path class="cls-30" d="M1066.13,1098.49a250.48,250.48,0,0,0-64.5,13.25c-13.15,21.74-20.54,48.07-18.25,73.66,3.69,41.13,33,87,72.57,98C1046.28,1197,1059.49,1126.55,1066.13,1098.49Z"/><g class="cls-31"><path class="cls-32" d="M1144.78,1104.42c-2.17-3.14-22.73-32.24-53.32-40.39,31.69,25.52,39.38,44.8,37.23,59.34-4.57,30.89-53.56,41.4-54,75.24-.34,27.25,31.21,38.33,28.14,55.71-1.68,9.51-13.55,19.81-51.72,27.59a67.59,67.59,0,0,0,25,4c52.1-1.72,82.65-67.47,85.86-112C1162.78,1163.26,1164.49,1133.15,1144.78,1104.42Z"/></g><path class="cls-33" d="M1098.47,1072.4c.19-4.33.54-8.53,1-12.78s1-8.47,1.61-12.69,1.39-8.42,2.23-12.62,1.84-8.36,2.92-12.52a153.86,153.86,0,0,1,8.63-24.5l.67-1.49.74-1.48c.5-1,1-2,1.5-2.94,1.08-1.94,2.12-3.89,3.35-5.76s2.5-3.72,3.79-5.56a43.32,43.32,0,0,1,4.41-5.23l1.17-1.26c.39-.42.84-.8,1.26-1.2l1.27-1.19c.44-.39.83-.81,1.31-1.16l2.77-2.19c.46-.38.91-.66,1.37-1s.91-.64,1.38-1a58.47,58.47,0,0,1,12.3-6.59,27.73,27.73,0,0,1,7.73-1.81,18.07,18.07,0,0,1,4.64.2,14.75,14.75,0,0,1,5,1.86,13.42,13.42,0,0,1,4.17,3.91,15.49,15.49,0,0,1,2.22,4.81,22,22,0,0,1,.4,8.92,32.06,32.06,0,0,1-2.18,7.66,38.64,38.64,0,0,1-3.68,6.74,41.38,41.38,0,0,1-4.87,5.86c-.9.9-1.85,1.75-2.84,2.57l-.74.6-.71.55c-.47.36-1,.72-1.46,1.08-1,.71-2.07,1.41-3.26,2.1a23.1,23.1,0,0,1-4.28,1.91c-.42.14-.93.26-1.43.38l-.83.14c-.31,0-.62.08-.92.1a11.05,11.05,0,0,1-4.67-.63,10.22,10.22,0,0,1-2.57-1.42,10,10,0,0,1-2-2,11.55,11.55,0,0,1-1.92-3.86,15.42,15.42,0,0,1-.57-3,20.23,20.23,0,0,1-.09-2.46,32,32,0,0,1,.36-4.16c.19-1.29.43-2.51.7-3.72.14-.6.29-1.19.44-1.79l.25-.9.14-.46.16-.54v0a7.88,7.88,0,1,1,15.06,4.65h0c-.06.18-.12.36-.19.54l-.08.21-.1.29-.21.62c-.13.42-.26.84-.38,1.26-.25.84-.46,1.67-.62,2.46a16.68,16.68,0,0,0-.32,2.12c-.06.57,0,1-.07.83a4.18,4.18,0,0,0-.59-1,4.88,4.88,0,0,0-.89-.87,4.43,4.43,0,0,0-1.21-.65,3.48,3.48,0,0,0-1.56-.24h-.08a7.59,7.59,0,0,0,1.52-.59c.73-.37,1.44-.77,2.13-1.21l1.12-.74.57-.39.5-.36c.67-.49,1.32-1,1.94-1.57a27.56,27.56,0,0,0,3.42-3.66,25.49,25.49,0,0,0,2.62-4.21,18.42,18.42,0,0,0,1.55-4.38,10.08,10.08,0,0,0,.16-3.63,3.89,3.89,0,0,0-.3-.95,1.28,1.28,0,0,0-.34-.45,2.08,2.08,0,0,0-.84-.39,6.13,6.13,0,0,0-1.65-.17,16.33,16.33,0,0,0-4.6.85,46.89,46.89,0,0,0-10.2,4.82c-.43.25-.85.51-1.27.77s-.87.53-1.23.8l-2.29,1.61c-.39.25-.73.59-1.1.88l-1.09.91c-.36.31-.74.59-1.08.93l-1,1c-1.42,1.29-2.68,2.79-4,4.23a36,36,0,0,0-3.59,4.7c-1.11,1.7-2.22,3.31-3.29,5-.53.85-1,1.74-1.51,2.61l-.76,1.32-.69,1.34a146.59,146.59,0,0,0-9.4,22.71c-1.26,3.94-2.43,7.92-3.48,11.94s-2,8.08-2.83,12.16-1.6,8.19-2.25,12.31-1.23,8.29-1.63,12.37h0a2.38,2.38,0,0,1-4.74-.34Z"/><path class="cls-34" d="M1038,1076.71c-.4-4.08-1-8.26-1.62-12.37s-1.4-8.23-2.25-12.31-1.8-8.13-2.83-12.16-2.22-8-3.48-11.94a146.43,146.43,0,0,0-9.39-22.7l-.7-1.35-.75-1.32c-.51-.87-1-1.76-1.51-2.61-1.08-1.69-2.12-3.41-3.3-5s-2.38-3.16-3.59-4.7a34.13,34.13,0,0,0-4-4.23l-1-1c-.34-.34-.73-.62-1.08-.93l-1.09-.91a13,13,0,0,0-1.11-.88L998,980.69c-.36-.27-.82-.53-1.23-.8l-1.26-.77a47.33,47.33,0,0,0-10.2-4.82,16.83,16.83,0,0,0-4.6-.85,6.09,6.09,0,0,0-1.65.17,1.86,1.86,0,0,0-.84.39,1,1,0,0,0-.34.45,3.12,3.12,0,0,0-.31.95,9.65,9.65,0,0,0,.16,3.63,18.58,18.58,0,0,0,1.55,4.38,24.9,24.9,0,0,0,2.63,4.21,25.64,25.64,0,0,0,3.41,3.66c.62.56,1.28,1.08,1.94,1.57l.51.36.56.39c.38.27.76.5,1.13.74a23.22,23.22,0,0,0,2.12,1.21,7.37,7.37,0,0,0,1.52.59h0a3.44,3.44,0,0,0-1.56.24,4.7,4.7,0,0,0-2.1,1.52,3.44,3.44,0,0,0-.58,1c-.08.22,0-.26-.07-.83-.08-.72-.19-1.42-.33-2.12s-.37-1.62-.61-2.46q-.18-.63-.39-1.26l-.2-.62-.11-.29c0-.08,0-.15-.08-.21a7.88,7.88,0,0,1,14.69-5.73,4.56,4.56,0,0,1,.18.52V986l.17.53.13.46.25.9c.16.6.3,1.19.44,1.79.28,1.21.52,2.43.71,3.72a33.82,33.82,0,0,1,.35,4.16q0,1.23-.09,2.46a17.05,17.05,0,0,1-.56,3,12.46,12.46,0,0,1-1.92,3.86,11.14,11.14,0,0,1-2,2,10.64,10.64,0,0,1-2.58,1.42,11.1,11.1,0,0,1-4.67.63,9,9,0,0,1-.91-.1l-.84-.14c-.49-.12-1-.24-1.43-.38a22.72,22.72,0,0,1-4.27-1.91c-1.13-.65-2.21-1.35-3.26-2.1-.5-.36-1-.72-1.46-1.08l-.71-.55-.75-.6a36.6,36.6,0,0,1-2.83-2.57,40.79,40.79,0,0,1-4.88-5.86,38.64,38.64,0,0,1-3.68-6.74,31.6,31.6,0,0,1-2.18-7.66,21.64,21.64,0,0,1,.4-8.92,15,15,0,0,1,2.22-4.81,13.32,13.32,0,0,1,4.17-3.91,14.6,14.6,0,0,1,5-1.86,18.09,18.09,0,0,1,4.65-.2,27.83,27.83,0,0,1,7.72,1.81,59,59,0,0,1,12.3,6.59c.47.32.93.63,1.39,1s.9.61,1.37,1l2.77,2.19c.47.35.87.77,1.3,1.16l1.28,1.19c.41.4.86.78,1.25,1.2l1.17,1.26c1.61,1.66,3,3.46,4.41,5.23a50.13,50.13,0,0,1,3.8,5.56c1.14,1.91,2.27,3.82,3.35,5.76.52,1,1,2,1.49,2.94l.74,1.48.68,1.49a155.82,155.82,0,0,1,8.62,24.5c1.08,4.16,2.07,8.33,2.92,12.53s1.59,8.4,2.23,12.61,1.17,8.45,1.61,12.69.79,8.45,1,12.78a2.38,2.38,0,0,1-4.74.35Z"/><path class="cls-32" d="M1193.91,1161.75c-14.85,56.69-36.53,76-55.13,82.13-31.25,10.29-58.45-15-85.58,2.29-14.47,9.26-25.58,28.52-24.12,46.52,2.93,36.2,55.28,49.69,50.54,71.22-3.1,14.08-26.26,11.89-40.2,37.33-6.78,12.38-9.68,28.19-5.17,31,3.92,2.46,12.47-5.24,26.42-16.65,19.9-16.29,32.35-20,45.37-28.14,24.83-15.55,89.65-71,97.06-152.2C1204.47,1219.91,1204.7,1194,1193.91,1161.75Z"/><path class="cls-35" d="M1199,1161.16c-.72-3.08-3.35-6.67-14.72-8.16q-4.15,3.24-8.46,6.26c14.51.5,16.43,3.41,16.48,3.49s-.76,6.53-32.54,19.58c-23,9.46-54.19,19.07-87.84,27.08s-65.84,13.48-90.64,15.4c-34.46,2.67-37.85-2.77-37.86-2.83s.36-4.11,16.7-12.41c-2.8-1-5.56-2.14-8.26-3.41-14.85,8.41-16,13.81-15.14,17.42,1,4,5.09,8.87,27.52,8.87,4.76,0,10.37-.22,17-.72,25.23-1.91,58-7.45,92.31-15.62s66.08-18,89.46-27.64C1197.68,1174.12,1200.16,1166,1199,1161.16Z"/></g><g id="Illustration-2" data-name="Illustration"><path class="cls-36" d="M1098.47,1128.93c.19-4.33.54-8.53,1-12.78s1-8.47,1.61-12.69,1.39-8.42,2.23-12.62,1.84-8.36,2.92-12.52a154.56,154.56,0,0,1,8.63-24.5l.67-1.49.74-1.48c.5-1,1-2,1.5-2.94,1.08-1.94,2.12-3.89,3.35-5.76s2.5-3.72,3.79-5.56a43.32,43.32,0,0,1,4.41-5.23l1.17-1.26c.39-.42.84-.8,1.26-1.2l1.27-1.19c.44-.39.83-.81,1.31-1.16l2.77-2.19c.46-.38.91-.66,1.37-1s.91-.64,1.38-1a59.4,59.4,0,0,1,12.3-6.59,28.45,28.45,0,0,1,7.73-1.81,18.53,18.53,0,0,1,4.64.2,14.75,14.75,0,0,1,5,1.86,13.66,13.66,0,0,1,4.17,3.91,15.6,15.6,0,0,1,2.22,4.81,22,22,0,0,1,.4,8.92,31.8,31.8,0,0,1-2.18,7.66,37.93,37.93,0,0,1-3.68,6.74,40.29,40.29,0,0,1-4.87,5.86c-.9.9-1.85,1.75-2.84,2.57l-.74.6-.71.55c-.47.36-1,.72-1.46,1.08-1,.71-2.07,1.41-3.26,2.1a21.85,21.85,0,0,1-4.28,1.91c-.42.14-.93.26-1.43.38l-.83.14a7.39,7.39,0,0,1-.92.1,10.9,10.9,0,0,1-4.67-.63,9.63,9.63,0,0,1-2.57-1.42,9.48,9.48,0,0,1-2-2,11.37,11.37,0,0,1-1.92-3.86,15.28,15.28,0,0,1-.57-3,20.16,20.16,0,0,1-.09-2.46,32.29,32.29,0,0,1,.36-4.16c.19-1.29.43-2.51.7-3.72.14-.6.29-1.19.44-1.79l.25-.9.14-.46.16-.54v-.05a7.88,7.88,0,0,1,15.06,4.65h0c-.06.19-.12.37-.19.54l-.08.21-.1.29-.21.62c-.13.42-.26.84-.38,1.26-.25.84-.46,1.67-.62,2.46a17,17,0,0,0-.32,2.12c-.06.57,0,1-.07.83a4.39,4.39,0,0,0-.59-1,5.23,5.23,0,0,0-.89-.87,5,5,0,0,0-1.21-.65,3.62,3.62,0,0,0-1.56-.24h-.08a6.56,6.56,0,0,0,1.52-.59,20.43,20.43,0,0,0,2.13-1.21l1.12-.74.57-.39.5-.36a24.19,24.19,0,0,0,1.94-1.57,26.38,26.38,0,0,0,3.42-3.66,24.69,24.69,0,0,0,2.62-4.21,18.27,18.27,0,0,0,1.55-4.38,10.07,10.07,0,0,0,.16-3.63,3.89,3.89,0,0,0-.3-.95,1.49,1.49,0,0,0-.34-.45,2.39,2.39,0,0,0-.84-.39,7.06,7.06,0,0,0-1.65-.17,17.07,17.07,0,0,0-4.6.85,47.84,47.84,0,0,0-10.2,4.82c-.43.25-.85.51-1.27.77s-.87.53-1.23.8l-2.29,1.61c-.39.25-.73.59-1.1.88l-1.09.91c-.36.31-.74.59-1.08.93l-1,1c-1.42,1.29-2.68,2.79-4,4.23a36,36,0,0,0-3.59,4.7c-1.11,1.7-2.22,3.31-3.29,5-.53.85-1,1.74-1.51,2.61l-.76,1.32-.69,1.34a147.4,147.4,0,0,0-9.4,22.71c-1.26,3.94-2.43,7.92-3.48,11.94s-2,8.08-2.83,12.16-1.6,8.19-2.25,12.31-1.23,8.29-1.63,12.37h0a2.38,2.38,0,0,1-4.74-.34Z"/><path class="cls-37" d="M1038,1133.24c-.4-4.08-1-8.26-1.62-12.37s-1.4-8.23-2.25-12.31-1.8-8.13-2.83-12.16-2.22-8-3.48-11.94a146.84,146.84,0,0,0-9.39-22.7l-.7-1.35-.75-1.32c-.51-.87-1-1.76-1.51-2.61-1.08-1.69-2.12-3.41-3.3-5s-2.38-3.16-3.59-4.7a34.13,34.13,0,0,0-4-4.23l-1-1c-.34-.34-.73-.62-1.08-.93l-1.09-.91c-.36-.31-.73-.6-1.11-.88l-2.29-1.61c-.36-.27-.82-.53-1.23-.8l-1.26-.77a48.3,48.3,0,0,0-10.2-4.82,17.21,17.21,0,0,0-4.6-.85,7,7,0,0,0-1.65.17,2.09,2.09,0,0,0-.84.39,1.15,1.15,0,0,0-.34.45,3.21,3.21,0,0,0-.31,1,9.64,9.64,0,0,0,.16,3.63,18.42,18.42,0,0,0,1.55,4.38,24.13,24.13,0,0,0,2.63,4.21,24.62,24.62,0,0,0,3.41,3.66c.62.56,1.28,1.08,1.94,1.57l.51.36.56.39c.38.27.76.5,1.13.74a19.31,19.31,0,0,0,2.12,1.21,6.39,6.39,0,0,0,1.52.59h0a3.73,3.73,0,0,0-1.56.24,4.78,4.78,0,0,0-2.1,1.52,3.58,3.58,0,0,0-.58,1c-.08.22,0-.26-.07-.83s-.19-1.42-.33-2.12-.37-1.62-.61-2.46q-.18-.63-.39-1.26l-.2-.62-.11-.29-.08-.21a7.88,7.88,0,0,1,14.69-5.73,5.34,5.34,0,0,1,.18.52v.08l.17.53.13.46.25.9c.16.6.3,1.19.44,1.79.28,1.21.52,2.43.71,3.72a34.16,34.16,0,0,1,.35,4.16c0,.82,0,1.65-.09,2.46a16.88,16.88,0,0,1-.56,3,12.35,12.35,0,0,1-1.92,3.86,10.52,10.52,0,0,1-2,2,10,10,0,0,1-2.58,1.42,10.94,10.94,0,0,1-4.67.63,6.85,6.85,0,0,1-.91-.1l-.84-.14c-.49-.12-1-.24-1.43-.38a21.51,21.51,0,0,1-4.27-1.91,34.79,34.79,0,0,1-3.26-2.1c-.5-.36-1-.72-1.46-1.08l-.71-.55-.75-.6a36.6,36.6,0,0,1-2.83-2.57,39.73,39.73,0,0,1-4.88-5.86,38.28,38.28,0,0,1-3.68-6.74,31.35,31.35,0,0,1-2.18-7.66,21.65,21.65,0,0,1,.4-8.92,15.15,15.15,0,0,1,2.22-4.81,13.55,13.55,0,0,1,4.17-3.91,14.6,14.6,0,0,1,5-1.86,18.54,18.54,0,0,1,4.65-.2,28.56,28.56,0,0,1,7.72,1.81,59.91,59.91,0,0,1,12.3,6.59c.47.32.93.63,1.39,1s.9.61,1.37,1l2.77,2.19c.47.35.87.77,1.3,1.16l1.28,1.19c.41.4.86.78,1.25,1.2l1.17,1.26c1.61,1.66,3,3.46,4.41,5.23a50.13,50.13,0,0,1,3.8,5.56c1.14,1.91,2.27,3.82,3.35,5.76.52,1,1,2,1.49,2.94l.74,1.48.68,1.49a156.54,156.54,0,0,1,8.62,24.5c1.08,4.16,2.07,8.33,2.92,12.53s1.59,8.4,2.23,12.61,1.17,8.45,1.61,12.69.79,8.45,1,12.78a2.38,2.38,0,0,1-4.74.35Z"/></g></svg>