<svg id="Layer_1" data-name="Layer 1" xmlns="http://www.w3.org/2000/svg" xmlns:xlink="http://www.w3.org/1999/xlink" viewBox="0 0 2774.15 1819.04"><defs><style>.cls-1{fill:url(#linear-gradient);}.cls-2{fill:url(#linear-gradient-2);}.cls-17,.cls-18,.cls-19,.cls-3{fill:#fff;}.cls-3{opacity:0.74;}.cls-11,.cls-12,.cls-17,.cls-18,.cls-3,.cls-8,.cls-9{isolation:isolate;}.cls-4{fill:url(#linear-gradient-3);}.cls-5{fill:url(#linear-gradient-4);}.cls-6{fill:url(#linear-gradient-5);}.cls-7{fill:url(#linear-gradient-6);}.cls-11,.cls-12,.cls-8,.cls-9{opacity:0.25;}.cls-8{fill:url(#linear-gradient-7);}.cls-9{fill:url(#linear-gradient-8);}.cls-10{fill:url(#linear-gradient-9);}.cls-11{fill:url(#linear-gradient-10);}.cls-12{fill:url(#linear-gradient-11);}.cls-13{fill:url(#linear-gradient-12);}.cls-14{fill:url(#linear-gradient-13);}.cls-15{fill:url(#linear-gradient-14);}.cls-16{fill:url(#linear-gradient-15);}.cls-17{opacity:0.6;}.cls-18{opacity:0.36;}</style><linearGradient id="linear-gradient" x1="702.63" y1="5064.79" x2="417.55" y2="5237.5" gradientTransform="matrix(1, 0, 0, -1, 0, 5823.4)" gradientUnits="userSpaceOnUse"><stop offset="0" stop-color="#ff9085"/><stop offset="1" stop-color="#fb6fbb"/></linearGradient><linearGradient id="linear-gradient-2" x1="803.56" y1="5512.51" x2="729.87" y2="5084.2" xlink:href="#linear-gradient"/><linearGradient id="linear-gradient-3" x1="578.71" y1="5605.78" x2="674.2" y2="5120.52" gradientTransform="matrix(1, 0, 0, -1, 0, 5823.4)" gradientUnits="userSpaceOnUse"><stop offset="0" stop-color="#ffc444"/><stop offset="1" stop-color="#f36f56"/></linearGradient><linearGradient id="linear-gradient-4" x1="880.67" y1="5649.33" x2="974.03" y2="5174.87" xlink:href="#linear-gradient-3"/><linearGradient id="linear-gradient-5" x1="634.1" y1="5612.25" x2="727.33" y2="5138.44" xlink:href="#linear-gradient-3"/><linearGradient id="linear-gradient-6" x1="550.3" y1="5604.84" x2="646.79" y2="5114.46" xlink:href="#linear-gradient-3"/><linearGradient id="linear-gradient-7" x1="899.55" y1="5649.94" x2="991.7" y2="5181.6" xlink:href="#linear-gradient-3"/><linearGradient id="linear-gradient-8" x1="845.91" y1="5638.2" x2="937.55" y2="5172.5" xlink:href="#linear-gradient-3"/><linearGradient id="linear-gradient-9" x1="910.71" y1="5651.15" x2="1003.02" y2="5182.02" xlink:href="#linear-gradient-3"/><linearGradient id="linear-gradient-10" x1="649.5" y1="5617.48" x2="744.64" y2="5133.96" xlink:href="#linear-gradient-3"/><linearGradient id="linear-gradient-11" x1="754.48" y1="5622.79" x2="846.54" y2="5154.91" xlink:href="#linear-gradient-3"/><linearGradient id="linear-gradient-12" x1="723.11" y1="5625.87" x2="815.05" y2="5158.63" xlink:href="#linear-gradient-3"/><linearGradient id="linear-gradient-13" x1="572.61" y1="5606.95" x2="669" y2="5117.08" xlink:href="#linear-gradient-3"/><linearGradient id="linear-gradient-14" x1="815.56" y1="5643.74" x2="912.85" y2="5149.35" xlink:href="#linear-gradient-3"/><linearGradient id="linear-gradient-15" x1="516.6" y1="5316.36" x2="481.13" y2="5110.17" xlink:href="#linear-gradient-3"/></defs><title>1</title><g id="Illustration"><path class="cls-1" d="M690.21,693.8l-8.61-.07a68.13,68.13,0,0,0-3-11.34l7.46-4.23a4.24,4.24,0,0,0,1.58-5.78l0,0-7.4-12.81a4.3,4.3,0,0,0-5.84-1.64l-7.57,4.26a67.57,67.57,0,0,0-8.31-8.35l4.4-7.51a4.31,4.31,0,0,0-1.58-5.86l-12.84-7.59a4.29,4.29,0,0,0-5.89,1.47h0l-4.42,7.53a67.51,67.51,0,0,0-11.41-3.17v-8.85a4.39,4.39,0,0,0-4.33-4.36l-15-.25a4.22,4.22,0,0,0-4.35,4.11.49.49,0,0,1,0,.12v8.85a68.27,68.27,0,0,0-11.5,2.84l-4.47-7.72a4.43,4.43,0,0,0-6-1.67L568,639a4.24,4.24,0,0,0-1.67,5.77.75.75,0,0,0,.07.12l4.49,7.72a66.94,66.94,0,0,0-8.51,8.24l-7.79-4.52a4.43,4.43,0,0,0-6,1.51L541,670.73a4.31,4.31,0,0,0,1.48,5.92l.12.08,7.73,4.45a67.82,67.82,0,0,0-3.14,11.47l-8.93-.07a4.32,4.32,0,0,0-4.41,4.23v15.07a4.42,4.42,0,0,0,4.42,4.37l8.86,0a68.12,68.12,0,0,0,3.1,11.57l-7.62,4.29A4.27,4.27,0,0,0,540.9,738a.54.54,0,0,1,.05.11l7.62,13a4.47,4.47,0,0,0,6,1.59l7.55-4.28a71,71,0,0,0,8.59,8.49l-4.34,7.4a4.27,4.27,0,0,0,1.51,5.84l.09.06,13.16,7.37a4.42,4.42,0,0,0,6-1.59l4.29-7.34a69.61,69.61,0,0,0,11.69,3.07v8.46a4.32,4.32,0,0,0,4.33,4.29h15a4.33,4.33,0,0,0,4.33-4.31v-8.44a69.08,69.08,0,0,0,11.56-3.14l4.23,7.27a4.34,4.34,0,0,0,5.89,1.56L661.32,770a4.27,4.27,0,0,0,1.59-5.82l-4.24-7.32a68.93,68.93,0,0,0,8.38-8.36l7.35,4.24a4.29,4.29,0,0,0,5.83-1.56l7.37-12.73A4.27,4.27,0,0,0,686,732.6h0l-7.36-4.27a68.88,68.88,0,0,0,3-11.36l8.54,0a4.23,4.23,0,0,0,4.25-4.2V698.09A4.3,4.3,0,0,0,690.21,693.8Zm-75.3-32.12c24.13.3,43.59,19.86,43.59,43.7a43.27,43.27,0,0,1-43.42,43.1h-.17c-24.29,0-44.09-19.6-44.09-43.7a43.26,43.26,0,0,1,43.42-43.11Z"/><path class="cls-2" d="M902.85,423.25l-13.59-.37a101.59,101.59,0,0,0-4.79-17.5l11.78-6.26a6.34,6.34,0,0,0,2.64-8.56l-.17-.3L887.1,370.32a7,7,0,0,0-9.22-2.71l-12,6.29a110,110,0,0,0-13.13-13.13l6.94-11.4a6.6,6.6,0,0,0-2.4-9l-.07,0-20.31-12.14a6.8,6.8,0,0,0-9.32,2.06l-7,11.44a114.49,114.49,0,0,0-18.11-5.3v-13.6a7.1,7.1,0,0,0-6.88-6.89l-23.86-1a6.48,6.48,0,0,0-6.92,6c0,.12,0,.24,0,.36v13.67a108.5,108.5,0,0,0-18.36,4l-7.14-12.1a7.35,7.35,0,0,0-9.55-2.81l-21,10.74a6.37,6.37,0,0,0-2.86,8.54c.09.17.18.34.29.51l7.19,12.11a102.43,102.43,0,0,0-13.63,12.45l-12.48-7.26a7.15,7.15,0,0,0-9.67,2.12l-12.25,19.7a6.64,6.64,0,0,0,2.32,9.11l.28.16,12.41,7.16a97.42,97.42,0,0,0-5,17.66L661,416.62a6.7,6.7,0,0,0-7.11,6.28,2.26,2.26,0,0,0,0,.26v23.25a7.13,7.13,0,0,0,7.12,6.9l14.23.33a101.39,101.39,0,0,0,5,18l-12.33,6.47a6.44,6.44,0,0,0-2.88,8.64c.09.16.18.33.28.49l12.29,20.31a7.35,7.35,0,0,0,9.66,2.62l12.12-6.44a113.26,113.26,0,0,0,13.75,13.34l-7,11.35a6.58,6.58,0,0,0,2.27,9l.31.17,21,11.79a7.15,7.15,0,0,0,9.54-2.32l6.85-11.24a114.29,114.29,0,0,0,18.65,5V553.9a6.9,6.9,0,0,0,6.93,6.72l23.86.25a6.67,6.67,0,0,0,6.88-6.46V541.32a109.5,109.5,0,0,0,18.4-4.48l6.72,11.3a7,7,0,0,0,9.37,2.51l20.34-11.1a6.41,6.41,0,0,0,2.63-8.68,1.35,1.35,0,0,0-.15-.26L853,519.25a102.71,102.71,0,0,0,13.26-12.7l11.6,6.7A6.81,6.81,0,0,0,887.1,511l11.62-19.36a6.54,6.54,0,0,0-2.35-8.94l-.12-.06-11.6-6.75a98.4,98.4,0,0,0,4.72-17.34l13.47.31a6.46,6.46,0,0,0,6.71-6.19V430A6.85,6.85,0,0,0,902.85,423.25ZM783.68,371.42c38.34,1.28,69.17,32,69.17,68.69S822,506,783.68,505.31c-38.71-.66-70.36-31.43-70.36-68.71S745,370.13,783.68,371.42Z"/><path class="cls-3" d="M783.68,235.21c-118.42-5.88-216.93,82.42-216.93,197.39s98.51,208.24,216.93,208.32C898.8,641,989.8,552.51,989.8,443.26S898.8,240.94,783.68,235.21Zm0,357.2c-89.79-.58-164-71.54-164-158.48s74.24-154.15,164-150.21c87.88,3.86,157.77,74.71,157.77,158.32S871.56,593,783.68,592.41Z"/><path class="cls-4" d="M639.81,509.34l-45.56,24.07a215.92,215.92,0,0,0,73.56,74.82l26-42.43A164.15,164.15,0,0,1,639.81,509.34Z"/><path class="cls-5" d="M913.43,354.34,955.78,332a216.72,216.72,0,0,0-68.1-65l-24.77,40.51A165.16,165.16,0,0,1,913.43,354.34Z"/><path class="cls-6" d="M649.72,344.88a153.65,153.65,0,0,1,53.15-44L677,257.22a202.11,202.11,0,0,0-72.89,61.17Z"/><path class="cls-7" d="M619.65,433.93c0-1.86.08-3.69.15-5.54l-53-1.37c0,1.86-.08,3.72-.08,5.58A198.88,198.88,0,0,0,589.57,525l45.77-24.12A151,151,0,0,1,619.65,433.93Z"/><path class="cls-8" d="M941.44,442a146.08,146.08,0,0,1-14.59,63.89l42.2,24.52a192.23,192.23,0,0,0,20.75-87.19c0-1.77,0-3.54-.08-5.3l-48.41-1.25C941.37,438.48,941.44,440.26,941.44,442Z"/><path class="cls-9" d="M922.69,514a151.8,151.8,0,0,1-51,53.56l24.72,41.76a199.66,199.66,0,0,0,68.43-70.9Z"/><path class="cls-10" d="M918.55,362.09a152.65,152.65,0,0,1,22.18,65.58L989.26,429a200.07,200.07,0,0,0-28.54-89.17Z"/><path class="cls-11" d="M778.91,592.27a168.44,168.44,0,0,1-76.79-21.5l-25.87,42.36a221.47,221.47,0,0,0,102.66,27.73Z"/><path class="cls-12" d="M863.68,572.24a161.77,161.77,0,0,1-75.22,20.09v48.54a212.9,212.9,0,0,0,100-26.9Z"/><path class="cls-13" d="M711.47,296.83a163,163,0,0,1,67.44-13.2V235a214.74,214.74,0,0,0-93.28,18.11Z"/><path class="cls-14" d="M620.42,419a145.74,145.74,0,0,1,23.83-66.48l-45.53-26.4a191.6,191.6,0,0,0-31.4,91.5Z"/><path class="cls-15" d="M788.46,284.05a168.1,168.1,0,0,1,66.19,18.78l24.82-40.58a221.42,221.42,0,0,0-91-26.74Z"/><path class="cls-16" d="M564.31,559.09l-6.63,0a49.1,49.1,0,0,0-2.33-8.36l5.74-3.24a3.12,3.12,0,0,0,1.27-4.2.75.75,0,0,1-.07-.12l-5.66-9.41a3.35,3.35,0,0,0-4.49-1.14l-5.81,3.26a50.55,50.55,0,0,0-6.42-6.08l3.37-5.62a3.1,3.1,0,0,0-1.07-4.24l-.15-.08-9.85-5.44a3.37,3.37,0,0,0-4.52,1.17l-3.39,5.64a53.48,53.48,0,0,0-8.74-2.19v-6.54a3.23,3.23,0,0,0-3.28-3.18h-11.5a3.26,3.26,0,0,0-3.32,3.19v6.55a53.1,53.1,0,0,0-8.8,2.26l-3.42-5.65a3.41,3.41,0,0,0-4.56-1.15l-10,5.54a3.11,3.11,0,0,0-1.32,4.21.89.89,0,0,0,.09.16l3.43,5.65a50.65,50.65,0,0,0-6.49,6.19l-5.94-3.23a3.45,3.45,0,0,0-4.59,1.19l-5.81,9.61a3.09,3.09,0,0,0,1,4.25l.19.11,5.89,3.2a47.05,47.05,0,0,0-2.39,8.5L448,560a3.3,3.3,0,0,0-3.38,3.23v11.06a3.25,3.25,0,0,0,3.25,3.24H448l6.74-.07a47.53,47.53,0,0,0,2.36,8.51l-5.8,3.25a3.13,3.13,0,0,0-1.32,4.24l.09.15,5.81,9.5a3.45,3.45,0,0,0,4.59,1.11l5.76-3.25a50.35,50.35,0,0,0,6.55,6.17l-3.31,5.52a3.07,3.07,0,0,0,1,4.22l.22.12,10,5.36a3.46,3.46,0,0,0,4.56-1.24l3.28-5.47a52.65,52.65,0,0,0,8.94,2.14v6.27a3.18,3.18,0,0,0,3.25,3.12h.07l11.48-.18a3.32,3.32,0,0,0,3.31-3.23v-6.24a54.69,54.69,0,0,0,8.88-2.4l3.25,5.34a3.36,3.36,0,0,0,4.51,1.09L542.1,616a3.13,3.13,0,0,0,1.27-4.24l-.06-.11-3.26-5.37a53.89,53.89,0,0,0,6.44-6.29l5.64,3.06a3.4,3.4,0,0,0,4.49-1.22l5.66-9.52a3.08,3.08,0,0,0-1-4.22l-.15-.08-5.66-3.09a49.61,49.61,0,0,0,2.31-8.45l6.57-.07a3.27,3.27,0,0,0,3.27-3.19v-10.9a3.2,3.2,0,0,0-3.2-3.19Zm-57.75-22.82c18.49-.1,33.42,14.14,33.42,31.8s-14.93,32.17-33.42,32.42-33.65-13.94-33.65-31.8S488,536.37,506.56,536.27Z"/><polygon class="cls-17" points="1082.08 500.92 825.63 493.38 825.63 468.93 1082.08 477.21 1082.08 500.92"/><polygon class="cls-18" points="1202.86 497.7 1143.61 495.92 1143.61 479.2 1202.86 481.13 1202.86 497.7"/><polygon class="cls-18" points="1202.86 520.75 1143.61 519.13 1143.61 502.42 1202.86 504.17 1202.86 520.75"/><polygon class="cls-18" points="1202.86 543.78 1143.61 542.34 1143.61 525.63 1202.86 527.21 1202.86 543.78"/><polygon class="cls-18" points="1202.86 566.83 1143.61 565.54 1143.61 548.84 1202.86 550.25 1202.86 566.83"/><polygon class="cls-18" points="1202.86 589.87 1143.61 588.75 1143.61 572.04 1202.86 573.28 1202.86 589.87"/><polygon class="cls-18" points="1202.86 612.9 1143.61 611.97 1143.61 595.26 1202.86 596.32 1202.86 612.9"/><polygon class="cls-18" points="1202.86 635.95 1143.61 635.17 1143.61 618.47 1202.86 619.36 1202.86 635.95"/><polygon class="cls-19" points="1082.08 537.95 935.28 534.3 935.28 510.18 1082.08 514.25 1082.08 537.95"/><polygon class="cls-17" points="897.32 533.37 924.97 534.04 924.97 509.88 897.32 509.12 897.32 533.37"/><polygon class="cls-17" points="1082.08 572.01 935.28 569 935.28 544.87 1082.08 548.32 1082.08 572.01"/><polygon class="cls-17" points="897.32 568.21 924.97 568.77 924.97 544.62 897.32 543.97 897.32 568.21"/><polygon class="cls-17" points="1082.08 606.09 935.28 603.67 935.28 579.54 1082.08 582.38 1082.08 606.09"/><polygon class="cls-17" points="897.32 603.05 924.97 603.5 924.97 579.35 897.32 578.82 897.32 603.05"/></g></svg>