<svg xmlns="http://www.w3.org/2000/svg" xmlns:xlink="http://www.w3.org/1999/xlink" viewBox="0 0 111.19 110.29"><defs><style>.cls-1{fill:url(#radial-gradient);}.cls-2{fill:url(#Degradado_sin_nombre_98);}.cls-3{fill:url(#Degradado_sin_nombre_95);}.cls-4{fill:url(#Degradado_sin_nombre_101);}.cls-5{fill:url(#Degradado_sin_nombre_101-2);}.cls-6{fill:url(#Degradado_sin_nombre_99);}.cls-7{fill:url(#Degradado_sin_nombre_99-2);}.cls-8{fill:url(#Degradado_sin_nombre_100);}.cls-9{fill:url(#Degradado_sin_nombre_2);}.cls-10{fill:url(#Degradado_sin_nombre_96);}.cls-11{fill:url(#Degradado_sin_nombre_95-2);}</style><radialGradient id="radial-gradient" cx="75.53" cy="132.98" r="38.91" gradientTransform="translate(-7.45 90.32) scale(1 0.11)" gradientUnits="userSpaceOnUse"><stop offset="0" stop-color="#000500"/><stop offset="1" stop-opacity="0"/></radialGradient><linearGradient id="Degradado_sin_nombre_98" x1="93.1" y1="92.47" x2="102.01" y2="45.48" gradientUnits="userSpaceOnUse"><stop offset="0" stop-color="#0059cf"/><stop offset="0.31" stop-color="#0041b4"/><stop offset="0.76" stop-color="#002393"/><stop offset="1" stop-color="#001886"/></linearGradient><linearGradient id="Degradado_sin_nombre_95" x1="-516.74" y1="476.02" x2="-492.93" y2="424.04" gradientTransform="matrix(-0.44, -0.9, 0.9, -0.44, -571.59, -208.25)" gradientUnits="userSpaceOnUse"><stop offset="0" stop-color="#8137c2"/><stop offset="1" stop-color="#300054"/></linearGradient><linearGradient id="Degradado_sin_nombre_101" x1="26.06" y1="-84.47" x2="67.94" y2="-22.13" gradientTransform="translate(-2.11 98.09) rotate(19.53)" gradientUnits="userSpaceOnUse"><stop offset="0" stop-color="#c66fd7"/><stop offset="1" stop-color="#8137c2"/></linearGradient><linearGradient id="Degradado_sin_nombre_101-2" x1="18.61" y1="-26.22" x2="24.08" y2="-67.06" xlink:href="#Degradado_sin_nombre_101"/><linearGradient id="Degradado_sin_nombre_99" x1="29.94" y1="-23.91" x2="75.07" y2="-23.91" gradientTransform="translate(-2.11 98.09) rotate(19.53)" gradientUnits="userSpaceOnUse"><stop offset="0" stop-color="#ffc9e1"/><stop offset="1" stop-color="#8137c2"/></linearGradient><linearGradient id="Degradado_sin_nombre_99-2" x1="35.62" y1="-44.52" x2="60.79" y2="-28.66" xlink:href="#Degradado_sin_nombre_99"/><linearGradient id="Degradado_sin_nombre_100" x1="52.94" y1="101.46" x2="104.26" y2="50.27" gradientTransform="matrix(1, 0, 0, 1, 0, 0)" xlink:href="#Degradado_sin_nombre_99"/><linearGradient id="Degradado_sin_nombre_2" x1="83.37" y1="-46.78" x2="19.63" y2="-66.29" gradientTransform="translate(-2.11 98.09) rotate(19.53)" gradientUnits="userSpaceOnUse"><stop offset="0" stop-color="#0059cf"/><stop offset="1" stop-color="#001886"/></linearGradient><linearGradient id="Degradado_sin_nombre_96" x1="5.17" y1="-49.49" x2="48.18" y2="-80.62" gradientTransform="translate(-2.11 98.09) rotate(19.53)" gradientUnits="userSpaceOnUse"><stop offset="0" stop-color="#4ff"/><stop offset="1" stop-color="#0059cf"/></linearGradient><linearGradient id="Degradado_sin_nombre_95-2" x1="-550.41" y1="495.83" x2="-486.96" y2="482.04" xlink:href="#Degradado_sin_nombre_95"/></defs><title>logo</title><g id="OBJECTS"><ellipse class="cls-1" cx="55.59" cy="105.31" rx="55.59" ry="4.99"/><path class="cls-2" d="M104.17,37.45a42.33,42.33,0,0,1-1.65,38.31,33.17,33.17,0,0,1,.28,4h0c0,.45,0,.9,0,1.35v.11c0,.46,0,.92-.08,1.38v0c0,.43-.08.87-.13,1.3l0,.2c-.05.45-.11.89-.19,1.34v.05c-.07.41-.15.82-.23,1.24l-.06.28q-.14.64-.3,1.29s0,0,0,.06c-.1.4-.22.8-.34,1.21,0,.1-.06.21-.1.32-.13.42-.26.84-.41,1.26a33.73,33.73,0,0,1-4.29,8.24h0a33.38,33.38,0,0,1-24.38,13.8h0c16.69-.85,36.46-18.17,40.61-36.17h0C116.73,63.49,113.14,49,104.17,37.45Z" transform="translate(-7.45 -8.3)"/><path class="cls-3" d="M112.46,78.24c7.6-23.64-7.93-50.29-35.21-60A60.45,60.45,0,0,0,63.9,15.15c-22.8-2.69-44.25,8.12-51.78,27.5A53.24,53.24,0,0,1,79.69,11.38c1.71.61,3.37,1.3,5,2A53.27,53.27,0,0,1,112.46,78.24Z" transform="translate(-7.45 -8.3)"/><path class="cls-4" d="M92.92,84.54a37,37,0,0,1-30.27,24.32c.43-.17.86-.36,1.28-.54h0a33.2,33.2,0,0,0,14.31-12.1h0A32.93,32.93,0,0,0,81.81,89a33.26,33.26,0,0,0-5-31.44h0A33.14,33.14,0,0,0,63.54,47.3c-.65-.27-1.3-.53-2-.77A33.29,33.29,0,0,0,24.35,57.24,36.93,36.93,0,0,1,66.29,36.18l.08,0c1.44.38,2.88.83,4.32,1.34,1,.35,2,.73,2.94,1.15A36.9,36.9,0,0,1,92.92,84.54Z" transform="translate(-7.45 -8.3)"/><path class="cls-5" d="M24.35,57.24a33.31,33.31,0,0,0-6.83,25.53c-.09-.14-.19-.28-.28-.43A33.23,33.23,0,0,1,16,57.61c4.61-13,17.19-21.32,32-22.88a51.21,51.21,0,0,1,18.32,1.45A36.93,36.93,0,0,0,24.35,57.24Z" transform="translate(-7.45 -8.3)"/><path class="cls-6" d="M78.16,96.35a32.69,32.69,0,0,1-18.42,13.5,10.69,10.69,0,0,1-4.5.26h0A33.24,33.24,0,0,1,36.5,84.28c0-.22-.08-.44-.11-.67a12.78,12.78,0,0,1-.13-2v0a13.39,13.39,0,0,1,5.26-10.39A38.44,38.44,0,0,0,78.16,96.35Z" transform="translate(-7.45 -8.3)"/><path class="cls-7" d="M78.25,96.21l-.09.14A38.44,38.44,0,0,1,41.52,71.13a13.37,13.37,0,0,1,21.14,7.64s.29,1.89.3,1.9A20,20,0,0,0,78.25,96.21Z" transform="translate(-7.45 -8.3)"/><path class="cls-8" d="M102.45,75.21s0,0,0,0c0-.18-.42-2.73-.44-2.89-.14-.94-.31-1.87-.53-2.8a.43.43,0,0,0,0,0,37.17,37.17,0,0,0-2.85-7.94s0,0,0,0c-4.68-9.57-13.46-17.93-25-22.77a36.93,36.93,0,0,1-10.72,70.13h0c-8.73,1-16.41-4.73-16.41-4.73,6.84,6,12.53,8.87,21.36,9.21H68l.67,0h1.7a33.39,33.39,0,0,0,26.25-13.9h0a33.73,33.73,0,0,0,4.29-8.24A33.23,33.23,0,0,0,102.45,75.21Z" transform="translate(-7.45 -8.3)"/><path class="cls-9" d="M105.54,69.12a42.51,42.51,0,0,1-3,6.64c0-.19,0-.37-.07-.55,0,0,0,0,0,0,0-.18-.42-2.73-.44-2.89-.14-.94-.31-1.87-.53-2.8a.43.43,0,0,0,0,0,37.17,37.17,0,0,0-2.85-7.94s0,0,0,0a45.72,45.72,0,0,0-13.35-16,52.82,52.82,0,0,0-14.57-7.88A51.78,51.78,0,0,0,48,34.73a41,41,0,0,0-23.29,9.89,31.74,31.74,0,0,0-8.73,13,33.23,33.23,0,0,0,1.29,24.73l-.42-.64c-.23-.36-.45-.72-.67-1.09s-.41-.68-.6-1a.75.75,0,0,1-.07-.12c-.18-.31-.36-.63-.53-.95l-.09-.17c-.19-.35-.37-.71-.55-1.07s-.31-.61-.46-.92c-.39-.83-.76-1.66-1.1-2.5-.16-.39-.31-.78-.46-1.17-.31-.83-.61-1.67-.87-2.51-.09-.3-.19-.61-.27-.92a.88.88,0,0,1-.07-.23c-.1-.35-.2-.7-.29-1.06s-.19-.73-.27-1.1-.14-.58-.2-.88-.09-.43-.12-.64-.13-.65-.19-1-.13-.81-.18-1.21-.1-.7-.14-1.06c0-.11,0-.23,0-.34-.09-.75-.15-1.5-.19-2.25,0-.41,0-.82-.05-1.22,0-.72,0-1.45,0-2.17,0-.23,0-.45,0-.68s0-.44,0-.65l0-.46c0-.3.05-.61.08-.92v0c0-.35.07-.7.11-1.06,0-.1,0-.22.05-.33,0-.31.08-.62.13-.93a.9.9,0,0,1,0-.16q.06-.43.15-.87l.09-.53c0-.11,0-.23.08-.35,0-.28.11-.57.18-.85s.15-.67.25-1,.15-.62.24-.93c.13-.48.28-1,.44-1.45s.24-.75.38-1.13.27-.74.41-1.11A41.88,41.88,0,0,1,31.06,21.29,52.1,52.1,0,0,1,52,15a59.71,59.71,0,0,1,25.27,3.3,58.64,58.64,0,0,1,26.92,19.18A42.13,42.13,0,0,1,105.54,69.12Z" transform="translate(-7.45 -8.3)"/><path class="cls-10" d="M85.26,45.42a52.82,52.82,0,0,0-14.57-7.88A51.78,51.78,0,0,0,48,34.73C33.14,36.29,20.56,44.6,16,57.61a33.23,33.23,0,0,0,1.29,24.73l-.42-.64c-.23-.36-.45-.72-.67-1.09s-.41-.68-.6-1a.75.75,0,0,1-.07-.12c-.18-.31-.36-.63-.53-.95l-.09-.17c-.19-.35-.37-.71-.55-1.07s-.31-.61-.46-.92c-.39-.83-.76-1.66-1.1-2.5-.16-.39-.31-.78-.46-1.17-.31-.83-.61-1.67-.87-2.51-.09-.3-.19-.61-.27-.92a.88.88,0,0,1-.07-.23c-.1-.35-.2-.7-.29-1.06s-.19-.73-.27-1.1-.14-.58-.2-.88-.09-.43-.12-.64-.13-.65-.19-1-.13-.81-.18-1.21-.1-.7-.14-1.06c0-.11,0-.23,0-.34-.09-.75-.15-1.5-.19-2.25,0-.41,0-.82-.05-1.22,0-.72,0-1.45,0-2.17,0-.23,0-.45,0-.68s0-.44,0-.65l0-.46c0-.3.05-.61.08-.92v0c0-.35.07-.7.11-1.06,0-.1,0-.22.05-.33,0-.31.08-.62.13-.93a.9.9,0,0,1,0-.16q.06-.43.15-.87l.09-.53c0-.11,0-.23.08-.35,0-.28.11-.57.18-.85s.15-.67.25-1,.15-.62.24-.93c.13-.48.28-1,.44-1.45s.24-.75.38-1.13.27-.74.41-1.11A41.88,41.88,0,0,1,31.06,21.29a42.28,42.28,0,0,1,54.2,24.13Z" transform="translate(-7.45 -8.3)"/><path class="cls-11" d="M112.46,78.24c7.6-23.64-7.93-50.29-35.21-60A60.45,60.45,0,0,0,63.9,15.15a65.86,65.86,0,0,1,20.77-1.72A53.27,53.27,0,0,1,112.46,78.24Z" transform="translate(-7.45 -8.3)"/></g></svg>