<svg id="Layer_1" data-name="Layer 1" xmlns="http://www.w3.org/2000/svg" xmlns:xlink="http://www.w3.org/1999/xlink" viewBox="0 0 2774.15 1819.04"><defs><style>.cls-1{fill:#191919;}.cls-2{fill:#141414;}.cls-100,.cls-14,.cls-3,.cls-39,.cls-47,.cls-85{opacity:0.3;}.cls-10,.cls-100,.cls-14,.cls-16,.cls-17,.cls-19,.cls-20,.cls-21,.cls-23,.cls-24,.cls-25,.cls-26,.cls-28,.cls-29,.cls-3,.cls-30,.cls-31,.cls-32,.cls-34,.cls-35,.cls-36,.cls-4,.cls-41,.cls-47,.cls-50,.cls-52,.cls-53,.cls-54,.cls-55,.cls-56,.cls-6,.cls-8,.cls-85,.cls-9{isolation:isolate;}.cls-3{fill:url(#linear-gradient);}.cls-4{opacity:0.24;fill:url(#linear-gradient-2);}.cls-5{fill:url(#linear-gradient-3);}.cls-13,.cls-16,.cls-17,.cls-41,.cls-6{fill:#fff;}.cls-6{opacity:0.16;}.cls-7{fill:url(#linear-gradient-4);}.cls-10,.cls-8,.cls-9{opacity:0.25;}.cls-8{fill:url(#linear-gradient-5);}.cls-9{fill:url(#linear-gradient-6);}.cls-10{fill:url(#linear-gradient-7);}.cls-11{fill:#97a6b7;}.cls-12{fill:url(#linear-gradient-8);}.cls-14,.cls-51{fill:#d8dee8;}.cls-15{fill:url(#linear-gradient-9);}.cls-16{opacity:0.6;}.cls-17{opacity:0.36;}.cls-18{fill:url(#linear-gradient-10);}.cls-19,.cls-20,.cls-21,.cls-23,.cls-24,.cls-25,.cls-26,.cls-28,.cls-29,.cls-30,.cls-31,.cls-32,.cls-34,.cls-35,.cls-36{opacity:0.5;}.cls-19{fill:url(#linear-gradient-11);}.cls-20{fill:url(#linear-gradient-12);}.cls-21{fill:url(#linear-gradient-13);}.cls-22{fill:url(#linear-gradient-14);}.cls-23{fill:url(#linear-gradient-15);}.cls-24{fill:url(#linear-gradient-16);}.cls-25{fill:url(#linear-gradient-17);}.cls-26{fill:url(#linear-gradient-18);}.cls-27{fill:url(#linear-gradient-19);}.cls-28{fill:url(#linear-gradient-20);}.cls-29{fill:url(#linear-gradient-21);}.cls-30{fill:url(#linear-gradient-22);}.cls-31{fill:url(#linear-gradient-23);}.cls-32{fill:url(#linear-gradient-24);}.cls-33{fill:url(#linear-gradient-25);}.cls-34{fill:url(#linear-gradient-26);}.cls-35{fill:url(#linear-gradient-27);}.cls-36{fill:url(#linear-gradient-28);}.cls-37{fill:url(#linear-gradient-29);}.cls-38{fill:url(#linear-gradient-30);}.cls-40{fill:url(#linear-gradient-31);}.cls-41{opacity:0.68;}.cls-42{fill:url(#linear-gradient-32);}.cls-43{fill:url(#linear-gradient-33);}.cls-44{fill:url(#linear-gradient-34);}.cls-45{fill:url(#linear-gradient-35);}.cls-46{fill:url(#linear-gradient-36);}.cls-47{fill:url(#linear-gradient-37);}.cls-48{fill:#999;}.cls-49{fill:#c2c2c2;}.cls-50{opacity:0.57;fill:url(#linear-gradient-38);}.cls-52,.cls-53,.cls-54,.cls-55,.cls-56{opacity:0.7;}.cls-52{fill:url(#linear-gradient-39);}.cls-53{fill:url(#linear-gradient-40);}.cls-54{fill:url(#linear-gradient-41);}.cls-55{fill:url(#linear-gradient-42);}.cls-56{fill:url(#linear-gradient-43);}.cls-57{fill:url(#linear-gradient-44);}.cls-58{fill:url(#linear-gradient-45);}.cls-59{fill:url(#linear-gradient-46);}.cls-60{fill:url(#linear-gradient-47);}.cls-61{fill:url(#linear-gradient-48);}.cls-62{fill:url(#linear-gradient-49);}.cls-63{fill:url(#linear-gradient-50);}.cls-64{fill:url(#linear-gradient-51);}.cls-65{fill:url(#linear-gradient-52);}.cls-66{fill:url(#linear-gradient-53);}.cls-67{fill:url(#linear-gradient-54);}.cls-68{fill:#26264f;}.cls-69{fill:url(#linear-gradient-55);}.cls-70{fill:#9b305e;}.cls-71{fill:url(#linear-gradient-56);}.cls-72{fill:url(#linear-gradient-57);}.cls-73{fill:url(#linear-gradient-58);}.cls-74{fill:url(#linear-gradient-59);}.cls-75{fill:#444b8c;}.cls-76{fill:url(#linear-gradient-60);}.cls-77{fill:url(#linear-gradient-61);}.cls-78{fill:url(#linear-gradient-62);}.cls-79{fill:url(#linear-gradient-63);}.cls-80{fill:url(#linear-gradient-64);}.cls-81{fill:url(#linear-gradient-65);}.cls-82{fill:url(#linear-gradient-66);}.cls-83{fill:url(#linear-gradient-67);}.cls-84{fill:url(#linear-gradient-68);}.cls-85{fill:url(#linear-gradient-69);}.cls-86{fill:url(#linear-gradient-70);}.cls-87{fill:url(#linear-gradient-71);}.cls-88{fill:url(#linear-gradient-72);}.cls-89{fill:url(#linear-gradient-73);}.cls-90{fill:url(#linear-gradient-74);}.cls-91{fill:url(#linear-gradient-75);}.cls-92{fill:url(#linear-gradient-76);}.cls-93{fill:url(#linear-gradient-77);}.cls-94{fill:url(#linear-gradient-78);}.cls-95{fill:url(#linear-gradient-79);}.cls-96{fill:url(#linear-gradient-80);}.cls-97{fill:url(#linear-gradient-81);}.cls-98{fill:url(#linear-gradient-82);}.cls-99{fill:url(#linear-gradient-83);}.cls-100{fill:url(#linear-gradient-84);}.cls-101{fill:url(#linear-gradient-85);}</style><linearGradient id="linear-gradient" x1="1460.47" y1="1066.44" x2="720.77" y2="165.94" gradientTransform="matrix(1, 0, 0, -1, 0, 1820)" gradientUnits="userSpaceOnUse"><stop offset="0" stop-color="#ff9085"/><stop offset="1" stop-color="#fb6fbb"/></linearGradient><linearGradient id="linear-gradient-2" x1="1093.49" y1="1236.33" x2="533.75" y2="554.91" gradientTransform="matrix(1, 0, 0, -1, 0, 1820)" gradientUnits="userSpaceOnUse"><stop offset="0" stop-color="#aa80f9"/><stop offset="1" stop-color="#6165d7"/></linearGradient><linearGradient id="linear-gradient-3" x1="-1783.01" y1="819.15" x2="-1269.09" y2="819.15" gradientTransform="translate(581.92 1820) rotate(180)" gradientUnits="userSpaceOnUse"><stop offset="0" stop-color="#e38ddd"/><stop offset="1" stop-color="#9571f6"/></linearGradient><linearGradient id="linear-gradient-4" x1="-1369.53" y1="739.35" x2="-1465.47" y2="226.02" xlink:href="#linear-gradient-3"/><linearGradient id="linear-gradient-5" x1="899.55" y1="1646.53" x2="991.7" y2="1178.19" gradientTransform="matrix(1, 0, 0, -1, 0, 1820)" gradientUnits="userSpaceOnUse"><stop offset="0" stop-color="#ffc444"/><stop offset="1" stop-color="#f36f56"/></linearGradient><linearGradient id="linear-gradient-6" x1="845.91" y1="1634.79" x2="937.55" y2="1169.09" xlink:href="#linear-gradient-5"/><linearGradient id="linear-gradient-7" x1="754.48" y1="1619.39" x2="846.54" y2="1151.51" xlink:href="#linear-gradient-5"/><linearGradient id="linear-gradient-8" x1="1419.04" y1="621.13" x2="1419.04" y2="493.96" gradientTransform="matrix(1, 0, 0, -1, 0, 1820)" gradientUnits="userSpaceOnUse"><stop offset="0.49" stop-color="#ebeff2"/><stop offset="1" stop-color="#fff"/></linearGradient><linearGradient id="linear-gradient-9" x1="1070.38" y1="1542.01" x2="1611" y2="550.45" gradientTransform="matrix(1, 0, 0, -1, 0, 1820)" gradientUnits="userSpaceOnUse"><stop offset="0" stop-color="#444b8c"/><stop offset="1" stop-color="#26264f"/></linearGradient><linearGradient id="linear-gradient-10" x1="1358.7" y1="1451.39" x2="1455.75" y2="859.88" gradientTransform="matrix(1, 0, 0, -1, 0, 1820)" xlink:href="#linear-gradient-3"/><linearGradient id="linear-gradient-11" x1="1308.22" y1="1279.03" x2="1535.78" y2="1279.03" xlink:href="#linear-gradient"/><linearGradient id="linear-gradient-12" x1="1308.22" y1="1256.62" x2="1535.78" y2="1256.62" xlink:href="#linear-gradient"/><linearGradient id="linear-gradient-13" x1="1268.24" y1="1190.39" x2="1429.93" y2="1190.39" xlink:href="#linear-gradient"/><linearGradient id="linear-gradient-14" x1="1360.77" y1="1451.04" x2="1449.57" y2="909.81" gradientTransform="matrix(1, 0, 0, -1, 0, 1820)" xlink:href="#linear-gradient-3"/><linearGradient id="linear-gradient-15" x1="1215.37" y1="1327.75" x2="1376.96" y2="1327.75" xlink:href="#linear-gradient"/><linearGradient id="linear-gradient-16" x1="1308.22" y1="830.68" x2="1535.78" y2="830.68" xlink:href="#linear-gradient"/><linearGradient id="linear-gradient-17" x1="1308.22" y1="808.28" x2="1535.78" y2="808.28" xlink:href="#linear-gradient"/><linearGradient id="linear-gradient-18" x1="1412.18" y1="789.72" x2="1633.84" y2="789.72" xlink:href="#linear-gradient"/><linearGradient id="linear-gradient-19" x1="1429.77" y1="1335.87" x2="1499.13" y2="913.11" gradientTransform="matrix(1, 0, 0, -1, 0, 1820)" xlink:href="#linear-gradient-3"/><linearGradient id="linear-gradient-20" x1="1215.37" y1="872.19" x2="1376.96" y2="872.19" xlink:href="#linear-gradient"/><linearGradient id="linear-gradient-21" x1="1268.24" y1="1099.88" x2="1498.09" y2="1099.88" xlink:href="#linear-gradient"/><linearGradient id="linear-gradient-22" x1="1308.22" y1="1054.74" x2="1535.78" y2="1054.74" xlink:href="#linear-gradient"/><linearGradient id="linear-gradient-23" x1="1308.22" y1="1032.33" x2="1535.78" y2="1032.33" xlink:href="#linear-gradient"/><linearGradient id="linear-gradient-24" x1="1215.79" y1="1008.74" x2="1361.6" y2="1008.74" xlink:href="#linear-gradient"/><linearGradient id="linear-gradient-25" x1="1337.21" y1="1415.22" x2="1417.81" y2="923.92" gradientTransform="matrix(1, 0, 0, -1, 0, 1820)" xlink:href="#linear-gradient-3"/><linearGradient id="linear-gradient-26" x1="1308.22" y1="942.52" x2="1513.93" y2="942.52" xlink:href="#linear-gradient"/><linearGradient id="linear-gradient-27" x1="1356.3" y1="921.06" x2="1559.53" y2="921.06" xlink:href="#linear-gradient"/><linearGradient id="linear-gradient-28" x1="1356.3" y1="898.76" x2="1559.53" y2="898.76" xlink:href="#linear-gradient"/><linearGradient id="linear-gradient-29" x1="1244.69" y1="1436.37" x2="1334.02" y2="891.91" gradientTransform="matrix(1, 0, 0, -1, 0, 1820)" xlink:href="#linear-gradient-3"/><linearGradient id="linear-gradient-30" x1="1425.35" y1="1371.89" x2="1938.37" y2="430.94" xlink:href="#linear-gradient-5"/><linearGradient id="linear-gradient-31" x1="1345.39" y1="1020.16" x2="1940.28" y2="1020.16" xlink:href="#linear-gradient-5"/><linearGradient id="linear-gradient-32" x1="1466.59" y1="1087.21" x2="1587.32" y2="782.06" xlink:href="#linear-gradient"/><linearGradient id="linear-gradient-33" x1="1790.77" y1="1022.05" x2="1517.78" y2="594.82" xlink:href="#linear-gradient-2"/><linearGradient id="linear-gradient-34" x1="1776.27" y1="809.96" x2="1633.47" y2="586.48" xlink:href="#linear-gradient-9"/><linearGradient id="linear-gradient-35" x1="1793.7" y1="1021.03" x2="1618.39" y2="683.63" xlink:href="#linear-gradient-9"/><linearGradient id="linear-gradient-36" x1="1632.12" y1="888.59" x2="1627.72" y2="457.24" xlink:href="#linear-gradient-2"/><linearGradient id="linear-gradient-37" x1="1738.62" y1="940.42" x2="1533.24" y2="619" xlink:href="#linear-gradient-2"/><linearGradient id="linear-gradient-38" x1="839.84" y1="1155.6" x2="1119.21" y2="1155.6" xlink:href="#linear-gradient-5"/><linearGradient id="linear-gradient-39" x1="996.92" y1="1223.45" x2="930.71" y2="1017.46" xlink:href="#linear-gradient"/><linearGradient id="linear-gradient-40" x1="1013.3" y1="1219.49" x2="946.01" y2="1010.15" xlink:href="#linear-gradient"/><linearGradient id="linear-gradient-41" x1="1041.49" y1="1211.65" x2="973.43" y2="999.9" xlink:href="#linear-gradient"/><linearGradient id="linear-gradient-42" x1="1059.62" y1="1206.84" x2="990.48" y2="991.72" xlink:href="#linear-gradient"/><linearGradient id="linear-gradient-43" x1="1089.78" y1="1198.45" x2="1019.87" y2="980.97" xlink:href="#linear-gradient"/><linearGradient id="linear-gradient-44" x1="1096.16" y1="1118.09" x2="1127.28" y2="1078.93" gradientTransform="translate(2050.02 1820) rotate(180)" xlink:href="#linear-gradient-5"/><linearGradient id="linear-gradient-45" x1="1232.55" y1="1057.03" x2="1253.74" y2="1141.81" gradientTransform="translate(2050.02 1820) rotate(180)" xlink:href="#linear-gradient-5"/><linearGradient id="linear-gradient-46" x1="1222.22" y1="905.34" x2="1232.28" y2="896.39" gradientTransform="translate(1880.4 2026.8) rotate(-171.95)" xlink:href="#linear-gradient-9"/><linearGradient id="linear-gradient-47" x1="306.38" y1="896.6" x2="306.38" y2="914.11" gradientTransform="translate(964.2 1897.29) rotate(-171.95)" xlink:href="#linear-gradient-5"/><linearGradient id="linear-gradient-48" x1="1223.24" y1="906.47" x2="1233.3" y2="897.53" gradientTransform="translate(1880.4 2026.8) rotate(-171.95)" xlink:href="#linear-gradient-9"/><linearGradient id="linear-gradient-49" x1="1181.63" y1="855.09" x2="1191.69" y2="846.15" gradientTransform="translate(2050.02 1820) rotate(180)" xlink:href="#linear-gradient-9"/><linearGradient id="linear-gradient-50" x1="266" y1="846.12" x2="266" y2="863.64" gradientTransform="translate(1124.71 1820) rotate(180)" xlink:href="#linear-gradient-5"/><linearGradient id="linear-gradient-51" x1="901.9" y1="938.77" x2="770.97" y2="971.08" xlink:href="#linear-gradient"/><linearGradient id="linear-gradient-52" x1="1278.96" y1="1042.81" x2="1138.23" y2="1140.68" gradientTransform="translate(2050.02 1820) rotate(180)" xlink:href="#linear-gradient-5"/><linearGradient id="linear-gradient-53" x1="1182.63" y1="856.22" x2="1192.69" y2="847.28" gradientTransform="translate(2050.02 1820) rotate(180)" xlink:href="#linear-gradient-9"/><linearGradient id="linear-gradient-54" x1="832.52" y1="1141.06" x2="853.43" y2="1181.89" xlink:href="#linear-gradient-5"/><linearGradient id="linear-gradient-55" x1="1193.81" y1="1175.9" x2="1248.25" y2="1107.4" gradientTransform="translate(2050.02 1820) rotate(180)" xlink:href="#linear-gradient-5"/><linearGradient id="linear-gradient-56" x1="1277.52" y1="1026.25" x2="1119.09" y2="1136.43" gradientTransform="translate(2050.02 1820) rotate(180)" xlink:href="#linear-gradient-5"/><linearGradient id="linear-gradient-57" x1="1376.43" y1="691.12" x2="1378.93" y2="656.65" gradientTransform="matrix(1, -0.01, -0.01, -1, -25.47, 1821.7)" gradientUnits="userSpaceOnUse"><stop offset="0" stop-color="#311944"/><stop offset="1" stop-color="#893976"/></linearGradient><linearGradient id="linear-gradient-58" x1="1369.17" y1="750.78" x2="1372.32" y2="707.46" gradientTransform="matrix(1, 0, 0, -1, 0, 1820)" xlink:href="#linear-gradient-57"/><linearGradient id="linear-gradient-59" x1="1556.03" y1="419.77" x2="1564.8" y2="364.47" gradientTransform="matrix(1, 0, 0, -1, 0, 1820)" xlink:href="#linear-gradient-57"/><linearGradient id="linear-gradient-60" x1="1499.72" y1="495.93" x2="1575.33" y2="495.93" xlink:href="#linear-gradient-9"/><linearGradient id="linear-gradient-61" x1="1499.74" y1="495.92" x2="1568.17" y2="495.92" xlink:href="#linear-gradient-9"/><linearGradient id="linear-gradient-62" x1="1524.84" y1="419.71" x2="1535.29" y2="353.83" gradientTransform="matrix(1, 0, 0, -1, 0, 1820)" xlink:href="#linear-gradient-57"/><linearGradient id="linear-gradient-63" x1="1475.68" y1="495.1" x2="1540.48" y2="495.1" xlink:href="#linear-gradient-9"/><linearGradient id="linear-gradient-64" x1="2504.77" y1="132.54" x2="2519.54" y2="-70.69" gradientTransform="matrix(0.95, -0.31, -0.31, -0.95, -917.31, 1997.99)" xlink:href="#linear-gradient-2"/><linearGradient id="linear-gradient-65" x1="1451.37" y1="720.18" x2="1466.14" y2="516.96" xlink:href="#linear-gradient-2"/><linearGradient id="linear-gradient-66" x1="1444.93" y1="675.54" x2="1448.1" y2="650.66" gradientTransform="matrix(1, 0, 0, -1, 0, 1820)" xlink:href="#linear-gradient-57"/><linearGradient id="linear-gradient-67" x1="1637.96" y1="679.73" x2="1635.31" y2="711.46" gradientTransform="translate(3078.45 1820) rotate(180)" gradientUnits="userSpaceOnUse"><stop offset="0" stop-color="#26264f"/><stop offset="1" stop-color="#444b8c"/></linearGradient><linearGradient id="linear-gradient-68" x1="1621.44" y1="700.34" x2="1645.9" y2="674.56" gradientTransform="translate(3078.45 1820) rotate(180)" xlink:href="#linear-gradient-57"/><linearGradient id="linear-gradient-69" x1="1356.42" y1="598.88" x2="1564.14" y2="598.88" xlink:href="#linear-gradient-2"/><linearGradient id="linear-gradient-70" x1="1915" y1="695.69" x2="1933.43" y2="695.69" xlink:href="#linear-gradient-5"/><linearGradient id="linear-gradient-71" x1="1973.27" y1="730.39" x2="1978.98" y2="625.54" xlink:href="#linear-gradient-5"/><linearGradient id="linear-gradient-72" x1="1328.5" y1="907.94" x2="1926.09" y2="907.94" xlink:href="#linear-gradient-9"/><linearGradient id="linear-gradient-73" x1="1889.07" y1="357.75" x2="1894.78" y2="397.34" xlink:href="#linear-gradient-9"/><linearGradient id="linear-gradient-74" x1="1902.73" y1="379.59" x2="1924.66" y2="478.56" xlink:href="#linear-gradient-5"/><linearGradient id="linear-gradient-75" x1="2010.21" y1="471.04" x2="1900" y2="442.15" xlink:href="#linear-gradient-9"/><linearGradient id="linear-gradient-76" x1="2009.28" y1="474.57" x2="1899.08" y2="445.68" xlink:href="#linear-gradient-9"/><linearGradient id="linear-gradient-77" x1="1909.88" y1="691.35" x2="1919.51" y2="691.35" xlink:href="#linear-gradient-5"/><linearGradient id="linear-gradient-78" x1="1824.36" y1="367.07" x2="1830.07" y2="406.66" xlink:href="#linear-gradient-9"/><linearGradient id="linear-gradient-79" x1="1839.8" y1="393.53" x2="1861.74" y2="492.5" xlink:href="#linear-gradient-5"/><linearGradient id="linear-gradient-80" x1="1952.18" y1="455.17" x2="1838.76" y2="470.86" xlink:href="#linear-gradient-9"/><linearGradient id="linear-gradient-81" x1="2093.03" y1="558.44" x2="2072.17" y2="524.7" gradientTransform="translate(3747.63 2469.54) rotate(-158.3)" xlink:href="#linear-gradient-5"/><linearGradient id="linear-gradient-82" x1="2011.48" y1="581.91" x2="2204.21" y2="581.91" gradientTransform="matrix(1, 0, 0, -1, 0, 1820)" xlink:href="#linear-gradient-57"/><linearGradient id="linear-gradient-83" x1="2002.47" y1="623.61" x2="1978.93" y2="485.23" xlink:href="#linear-gradient-5"/><linearGradient id="linear-gradient-84" x1="1920.76" y1="562.59" x2="2073.26" y2="562.59" xlink:href="#linear-gradient"/><linearGradient id="linear-gradient-85" x1="1514.18" y1="1249.69" x2="1631.27" y2="1249.69" xlink:href="#linear-gradient-9"/></defs><title>main</title><g id="Illustration"><path class="cls-1" d="M1269.47,1282.29c-147.45,4.71-253.23,17.32-388.16,33.76-113.77,13.85-514.3,62.64-512.62,105.47,1.39,35.79,282.8,46.22,282.68,84.39-.07,20.18-78.76,28.23-78.06,42.19,1.17,23.28,222.34,45.75,495.75,31.64,269.68-13.91,320.66-49.51,632.87-86.49,402.69-47.7,608.67-22.92,611.78-54.85,3.91-40.33-321.44-112.88-590.68-141.34C1679.48,1292.46,1503.33,1274.83,1269.47,1282.29Z"/><path class="cls-2" d="M1280,1303.39c-32.77,4.73-82.38,14.15-164.55,22.15-36.08,3.51-120.64,10.86-208.84,19-62.36,5.75-96.91,9.15-97,14.77-.21,9.65,101.39,15.48,101.26,23.21-.28,15.47-408.4,2.45-412.42,41.13-2,19.11,94.94,47.36,171.92,60.13,120.09,19.91,212.54,5.59,362.85-19,281-46,272.8-46.85,342.81-57,290.2-41.89,429.19-26.22,430.35-44.3C1808.07,1336.86,1508.06,1270.49,1280,1303.39Z"/><path class="cls-2" d="M857.05,1508c-6.54-24.9-174.71-15.57-178.26,9.49-2,14.24,48,41.4,98.09,35.86C818.62,1548.75,860.56,1521.37,857.05,1508Z"/><path class="cls-2" d="M1609.1,1430c-61.24-17.74-135.62-1.19-136.06,14.77-.39,14,56.12,30.9,105.47,26.37,27.09-2.49,62.2-12.37,62.24-23.21C1640.79,1439.14,1617.91,1432.55,1609.1,1430Z"/><path class="cls-2" d="M1884.41,1416.25c-65-5.26-135.22,9.86-135,22.15.21,12.57,74.14,23.81,138.17,19,28.77-2.17,76.79-9.18,77-19C1964.78,1428.86,1919.66,1419.1,1884.41,1416.25Z"/><polygon class="cls-3" points="1830.64 1143.89 418.58 1229.11 554.21 1015.85 1914.16 977.55 1830.64 1143.89"/><polygon class="cls-4" points="1325.9 929.68 309.62 947.24 454 733.22 1430.23 747.77 1325.9 929.68"/><path class="cls-5" d="M1952.91,1335.46c-20-6.91-53.55-18.54-77-50.76-42.71-58.6-24.33-147.24,9.21-202.81,28.82-47.72,79.94-77.51,182.14-137.07,96.27-56.1,128.62-61.75,138-97.87,13.4-51.5-38.8-92.12-14.16-149.85,3-6.93,13.12-30.72,35.51-39C2265,644,2312.27,685.28,2334,715.26c21,28.92,42.77,81.23,23.39,122.13-14,29.63-37.77,28.1-43.83,55.61-6.11,27.68,16.07,37.58,24.77,83.84,3.48,18.48,10.47,55.57-6.93,86.61-22.48,40.14-65.37,33.82-74.48,67.56-6.59,24.38,13.65,35.64,12.12,64.1-2,37.45-39.51,63.56-71,84.88C2161,1305.11,2060.91,1372.82,1952.91,1335.46Z"/><path class="cls-6" d="M2240.51,674.55c-20.64,14.12,38.2,78.18,20.79,162-18.74,90.16-114.33,148.16-158.51,175-75.37,45.74-107.22,35.67-155.9,87.48-19.27,20.51-59.41,63.24-55.44,123,.37,5.55,5.42,67.39,52.84,97,53.79,33.6,121.2.2,179.29-28.58,35.1-17.39,105.22-52.13,100.47-90.94-2.9-23.73-33.1-43.52-58-49.37-35.57-8.36-65.26,10.55-68.42,4.33-2.86-5.6,18.48-26.33,47.63-41.58,58.32-30.5,88.3-7.91,131.66-36.38,5.25-3.45,46.49-31.39,47.63-74.49.66-24.85-12-55.4-32-60.62-22.67-5.92-45,23.1-50.24,18.18-5-4.7,12.38-34.09,33.78-60.63,31.47-39,45.43-39.34,57.17-64.09,17.9-37.77,4.59-77.47,2.6-83.15C2317.08,698.44,2258.16,662.55,2240.51,674.55Z"/><path class="cls-7" d="M1965.73,1351.73c-10.49,12.21-89.6-.9-133.82-42.42-8.86-8.33-24.86-23.34-28.41-45.14-4.32-26.61,14.81-33.14,12.46-61.61-2.14-26.12-18.72-26.44-22.31-58.69-1.34-12.09-4.08-36.63,14.63-49.37,10.85-7.39,19.65-4.47,24.76-11.26,9.14-12.14-16.46-24.89-16.87-50.3-.22-13.76,7.39-24,22.62-44.52,13.86-18.67,21.67-29.2,35.88-31.64,20.83-3.57,32.07,14.26,46.13,10.4,22.73-6.24,2.42-55.39,35.68-77.9,21.21-14.35,53.14-10.39,58.83-9.58,61.36,8.66,114.32,78.92,95.65,127.32-14.73,38.16-68.55,48.63-66.39,87.48.75,13.49,7.67,20,4.5,37.25-4.09,22.19-20.5,37.78-29.26,45.9-33.19,30.79-63.46,28.85-68.64,49.37-3.26,12.94,8.33,15.43,7.07,36.31-1.16,19.08-11.16,22.36-12.69,38.18C1942.8,1330,1972.84,1343.44,1965.73,1351.73Z"/><path class="cls-6" d="M2056.29,911.42c21.79,6,35.94,33.27,39,53.7,4.36,29.23-11.43,62.06-36.37,78-38.81,24.72-81.86-2.94-98.74,20.79-8.9,12.51-6.78,34.08,3.47,44.17,18,17.75,55.71-5.36,65.82,8.66,7.23,10-2.52,35.09-19.92,49.37-34.77,28.55-89.36,5.24-96.14,22.52-1.6,4.08,5,16.58,18.19,41.58,10,18.88,12.08,20.77,12.13,26.85.14,18.39-19,22.66-20.79,40.71-2,20.82,21.54,35.48,18.18,39.84-3.52,4.57-33.69-6-52.83-25.12-45.36-45.34-24-134.13-16.45-165.43C1902.18,1020.84,2000.78,896.11,2056.29,911.42Z"/><path class="cls-8" d="M941.44,442a146.08,146.08,0,0,1-14.59,63.89l42.2,24.52a192.23,192.23,0,0,0,20.75-87.19c0-1.77,0-3.54-.08-5.3l-48.41-1.25C941.37,438.48,941.44,440.26,941.44,442Z"/><path class="cls-9" d="M922.69,514a151.8,151.8,0,0,1-51,53.56l24.72,41.76a199.66,199.66,0,0,0,68.43-70.9Z"/><path class="cls-10" d="M863.68,572.24a161.77,161.77,0,0,1-75.22,20.09v48.54a212.9,212.9,0,0,0,100-26.9Z"/><path class="cls-11" d="M1535.91,1320.07a54.09,54.09,0,0,1-35.88-40.73l-26.67-132-228.07,8.1-28.07,137.48c-3.94,19.25,11.8,38.57,29.93,45.66l95.42,37.34a124.35,124.35,0,0,0,55.79,8.09L1600,1366.75a12.53,12.53,0,0,0,11.31-11.08c.68-5.94,4.81-12.62-.81-14.49Z"/><path class="cls-12" d="M1538.2,1312.05a53.62,53.62,0,0,1-35.83-40.23l-26.65-130.27-222.52,8-28,135.74a39.74,39.74,0,0,0,24.57,45.08l95.33,36.87a125.38,125.38,0,0,0,55.73,8l201.47-17a12.43,12.43,0,0,0,2.82-24.2Z"/><path class="cls-11" d="M779.26,1235.08c-24.73,1.48-45-14.57-45-35.77V435c0-21.2,20.23-37.58,45-36.5l1148.82,79.53c18.16.78,27.9-13.88,27.9,4.16v650c0,18-14.7,33.58-32.86,34.66Z"/><path class="cls-13" d="M789.55,1235.08c-24.74,1.48-45-14.57-45-35.77V435c0-21.2,20.23-37.58,45-36.5L1933.4,448.08a34.54,34.54,0,0,1,32.85,34.13v650c0,18-14.69,33.58-32.85,34.66Z"/><path class="cls-14" d="M1933.4,463.38,789.55,416.32c-13.22-.54-24,8.19-24,19.52v762.32c0,11.32,10.76,19.88,24,19.12L1933.4,1151.6a18.84,18.84,0,0,0,17.59-18.54V481.62A18.44,18.44,0,0,0,1933.4,463.38Z"/><path class="cls-15" d="M1924.91,1096.55,801.91,1152c-11.79.58-21.37-7.21-21.37-17.41V445.85c0-10.2,9.58-18.11,21.37-17.67l1123,41.68a16.65,16.65,0,0,1,15.93,16.5V1079.9A16.89,16.89,0,0,1,1924.91,1096.55Z"/><polygon class="cls-16" points="1082.08 500.92 825.63 493.38 825.63 468.93 1082.08 477.21 1082.08 500.92"/><polygon class="cls-17" points="1202.86 497.7 1143.61 495.92 1143.61 479.2 1202.86 481.13 1202.86 497.7"/><polygon class="cls-17" points="1202.86 520.75 1143.61 519.13 1143.61 502.42 1202.86 504.17 1202.86 520.75"/><polygon class="cls-18" points="1498.09 528.83 1268.24 522.53 1268.24 506.08 1498.09 512.86 1498.09 528.83"/><polygon class="cls-19" points="1535.78 551.93 1308.22 546.37 1308.22 530 1535.78 536.04 1535.78 551.93"/><polygon class="cls-20" points="1535.78 574.01 1308.22 569.1 1308.22 552.74 1535.78 558.13 1535.78 574.01"/><polygon class="cls-16" points="1535.78 596.09 1308.22 591.84 1308.22 575.47 1535.78 580.2 1535.78 596.09"/><polygon class="cls-17" points="1202.86 543.78 1143.61 542.34 1143.61 525.63 1202.86 527.21 1202.86 543.78"/><polygon class="cls-17" points="1202.86 566.83 1143.61 565.54 1143.61 548.84 1202.86 550.25 1202.86 566.83"/><polygon class="cls-17" points="1202.86 589.87 1143.61 588.75 1143.61 572.04 1202.86 573.28 1202.86 589.87"/><polygon class="cls-17" points="1202.86 612.9 1143.61 611.97 1143.61 595.26 1202.86 596.32 1202.86 612.9"/><polygon class="cls-16" points="1361.61 615.41 1215.79 613.11 1215.79 596.55 1361.61 599.15 1361.61 615.41"/><polygon class="cls-17" points="1202.86 635.95 1143.61 635.17 1143.61 618.47 1202.86 619.36 1202.86 635.95"/><polygon class="cls-17" points="1202.86 658.98 1143.61 658.38 1143.61 641.68 1202.86 642.39 1202.86 658.98"/><polygon class="cls-17" points="1202.86 682.01 1143.61 681.6 1143.61 664.89 1202.86 665.43 1202.86 682.01"/><polygon class="cls-21" points="1429.92 638.88 1268.24 636.78 1268.24 620.34 1429.92 622.76 1429.92 638.88"/><polygon class="cls-16" points="1513.92 662.1 1308.22 660.03 1308.22 643.67 1513.92 646.16 1513.92 662.1"/><polygon class="cls-22" points="1513.92 684.24 1308.22 682.77 1308.22 666.4 1513.92 668.3 1513.92 684.24"/><polygon class="cls-17" points="1202.86 705.05 1143.61 704.8 1143.61 688.11 1202.86 688.48 1202.86 705.05"/><polygon class="cls-17" points="1202.86 728.1 1143.61 728.01 1143.61 711.32 1202.86 711.51 1202.86 728.1"/><polygon class="cls-17" points="1202.86 751.13 1143.61 751.23 1143.61 734.52 1202.86 734.55 1202.86 751.13"/><polygon class="cls-17" points="1202.86 774.17 1143.61 774.43 1143.61 757.74 1202.86 757.6 1202.86 774.17"/><polygon class="cls-17" points="1202.86 797.22 1143.61 797.64 1143.61 780.95 1202.86 780.63 1202.86 797.22"/><polygon class="cls-17" points="1202.86 820.25 1143.61 820.86 1143.61 804.15 1202.86 803.67 1202.86 820.25"/><polygon class="cls-17" points="1202.86 843.29 1143.61 844.07 1143.61 827.37 1202.86 826.72 1202.86 843.29"/><polygon class="cls-17" points="1202.86 866.34 1143.61 867.28 1143.61 850.58 1202.86 849.75 1202.86 866.34"/><polygon class="cls-17" points="1202.86 889.38 1143.61 890.5 1143.61 873.78 1202.86 872.79 1202.86 889.38"/><polygon class="cls-17" points="1202.86 912.41 1143.61 913.71 1143.61 897 1202.86 895.83 1202.86 912.41"/><polygon class="cls-17" points="1202.86 935.45 1143.61 936.91 1143.61 920.21 1202.86 918.87 1202.86 935.45"/><polygon class="cls-17" points="1202.86 958.49 1143.61 960.13 1143.61 943.41 1202.86 941.9 1202.86 958.49"/><polygon class="cls-17" points="1202.86 981.52 1143.61 983.34 1143.61 966.63 1202.86 964.95 1202.86 981.52"/><polygon class="cls-17" points="1202.86 1004.57 1143.61 1006.54 1143.61 989.84 1202.86 987.99 1202.86 1004.57"/><polygon class="cls-17" points="1202.86 1027.61 1143.61 1029.76 1143.61 1013.04 1202.86 1011.02 1202.86 1027.61"/><polygon class="cls-17" points="1202.86 1050.64 1143.61 1052.96 1143.61 1036.26 1202.86 1034.07 1202.86 1050.64"/><polygon class="cls-17" points="1202.86 1073.68 1143.61 1076.17 1143.61 1059.46 1202.86 1057.11 1202.86 1073.68"/><polygon class="cls-17" points="1202.86 1096.72 1143.61 1099.38 1143.61 1082.67 1202.86 1080.14 1202.86 1096.72"/><polygon class="cls-23" points="1376.95 502.98 1215.38 498.08 1215.38 481.52 1376.95 486.75 1376.95 502.98"/><polygon class="cls-16" points="1498.09 972.53 1268.24 979.53 1268.24 963.1 1498.09 956.58 1498.09 972.53"/><polygon class="cls-24" points="1535.78 993.47 1308.22 1001.05 1308.22 984.7 1535.78 977.58 1535.78 993.47"/><polygon class="cls-25" points="1535.78 1015.54 1308.22 1023.78 1308.22 1007.42 1535.78 999.65 1535.78 1015.54"/><polygon class="cls-26" points="1633.84 1033.79 1412.17 1042.45 1412.17 1026.32 1633.84 1018.1 1633.84 1033.79"/><polygon class="cls-27" points="1633.84 1055.58 1412.17 1064.89 1412.17 1048.74 1633.84 1039.89 1633.84 1055.58"/><polygon class="cls-16" points="1633.84 1077.38 1412.17 1087.33 1412.17 1071.17 1633.84 1061.68 1633.84 1077.38"/><polygon class="cls-28" points="1376.95 953.7 1215.38 958.14 1215.38 941.59 1376.95 937.48 1376.95 953.7"/><polygon class="cls-29" points="1498.09 728.5 1268.24 728.18 1268.24 711.75 1498.09 712.52 1498.09 728.5"/><polygon class="cls-16" points="1535.78 750.63 1308.22 750.98 1308.22 734.62 1535.78 734.74 1535.78 750.63"/><polygon class="cls-30" points="1535.78 772.7 1308.22 773.71 1308.22 757.35 1535.78 756.82 1535.78 772.7"/><polygon class="cls-31" points="1535.78 794.77 1308.22 796.45 1308.22 780.09 1535.78 778.88 1535.78 794.77"/><polygon class="cls-32" points="1361.61 818.63 1215.79 820.13 1215.79 803.57 1361.61 802.38 1361.61 818.63"/><polygon class="cls-16" points="1429.92 840.32 1268.24 842.43 1268.24 826 1429.92 824.21 1429.92 840.32"/><polygon class="cls-33" points="1513.92 861.36 1308.22 864.64 1308.22 848.28 1513.92 845.42 1513.92 861.36"/><polygon class="cls-34" points="1513.92 883.5 1308.22 887.38 1308.22 871.01 1513.92 867.57 1513.92 883.5"/><polygon class="cls-35" points="1559.53 904.64 1356.3 909.07 1356.3 892.8 1559.53 888.8 1559.53 904.64"/><polygon class="cls-36" points="1559.53 926.65 1356.3 931.66 1356.3 915.4 1559.53 910.82 1559.53 926.65"/><polygon class="cls-37" points="1376.95 705.79 1215.38 705.12 1215.38 688.55 1376.95 689.58 1376.95 705.79"/><polygon class="cls-13" points="1082.08 537.95 935.28 534.3 935.28 510.18 1082.08 514.25 1082.08 537.95"/><polygon class="cls-16" points="897.32 533.37 924.97 534.04 924.97 509.88 897.32 509.12 897.32 533.37"/><polygon class="cls-16" points="1082.08 572.01 935.28 569 935.28 544.87 1082.08 548.32 1082.08 572.01"/><polygon class="cls-16" points="897.32 568.21 924.97 568.77 924.97 544.62 897.32 543.97 897.32 568.21"/><polygon class="cls-16" points="1082.08 606.09 935.28 603.67 935.28 579.54 1082.08 582.38 1082.08 606.09"/><polygon class="cls-16" points="897.32 603.05 924.97 603.5 924.97 579.35 897.32 578.82 897.32 603.05"/><polygon class="cls-13" points="1082.08 847.91 825.63 851.38 825.63 826.92 1082.08 824.22 1082.08 847.91"/><polygon class="cls-16" points="1082.08 884.95 935.28 887.6 935.28 863.47 1082.08 861.25 1082.08 884.95"/><polygon class="cls-16" points="897.32 888.28 924.97 887.78 924.97 863.63 897.32 864.04 897.32 888.28"/><polygon class="cls-16" points="1082.08 919.01 935.28 922.28 935.28 898.15 1082.08 895.32 1082.08 919.01"/><polygon class="cls-16" points="897.32 923.13 924.97 922.51 924.97 898.36 897.32 898.89 897.32 923.13"/><polygon class="cls-16" points="1082.08 953.09 935.28 956.98 935.28 932.85 1082.08 929.38 1082.08 953.09"/><polygon class="cls-16" points="897.32 957.98 924.97 957.25 924.97 933.09 897.32 933.74 897.32 957.98"/><polygon class="cls-13" points="1082.08 640.38 825.63 637.26 825.63 612.82 1082.08 616.68 1082.08 640.38"/><polygon class="cls-16" points="1082.08 677.41 935.28 676.3 935.28 652.17 1082.08 653.72 1082.08 677.41"/><polygon class="cls-16" points="897.32 676.01 924.97 676.23 924.97 652.07 897.32 651.77 897.32 676.01"/><polygon class="cls-16" points="1082.08 711.49 935.28 711 935.28 686.87 1082.08 687.78 1082.08 711.49"/><polygon class="cls-16" points="897.32 710.87 924.97 710.96 924.97 686.79 897.32 686.63 897.32 710.87"/><polygon class="cls-16" points="1082.08 780.07 935.28 780.82 935.28 756.68 1082.08 756.37 1082.08 780.07"/><polygon class="cls-16" points="897.32 781 924.97 780.87 924.97 756.71 897.32 756.76 897.32 781"/><polygon class="cls-16" points="1082.08 814.13 935.28 815.5 935.28 791.38 1082.08 790.43 1082.08 814.13"/><polygon class="cls-16" points="897.32 815.86 924.97 815.6 924.97 791.43 897.32 791.62 897.32 815.86"/><polygon class="cls-16" points="1082.08 745.55 935.28 745.67 935.28 721.54 1082.08 721.86 1082.08 745.55"/><polygon class="cls-16" points="897.32 745.71 924.97 745.68 924.97 721.52 897.32 721.47 897.32 745.71"/><polygon class="cls-13" points="1082.08 987.14 825.63 995.01 825.63 970.57 1082.08 963.45 1082.08 987.14"/><polygon class="cls-16" points="1082.08 1024.17 935.28 1029.36 935.28 1005.23 1082.08 1000.48 1082.08 1024.17"/><polygon class="cls-16" points="897.32 1030.69 924.97 1029.71 924.97 1005.55 897.32 1006.46 897.32 1030.69"/><polygon class="cls-16" points="1082.08 1058.24 935.28 1064.05 935.28 1039.91 1082.08 1034.55 1082.08 1058.24"/><polygon class="cls-16" points="897.32 1065.54 924.97 1064.44 924.97 1040.29 897.32 1041.3 897.32 1065.54"/><polygon class="cls-16" points="1082.08 1092.32 935.28 1098.72 935.28 1074.6 1082.08 1068.62 1082.08 1092.32"/><polygon class="cls-16" points="897.32 1100.38 924.97 1099.17 924.97 1075.02 897.32 1076.14 897.32 1100.38"/><polygon class="cls-16" points="1113.24 1091.08 1107.6 1091.32 1107.6 478.05 1113.24 478.23 1113.24 1091.08"/><path class="cls-16" d="M1814,1119.55c-249,5.2-305,40.76-375.75-1.84C1341,1059.17,1385.29,955,1290.56,900.42c-119.09-68.67-256.39,57.09-318.55-4.22-61.89-61.06,55-204.77-12.65-365-27.17-64.29-73.42-106-105.37-130l-64.44-2.65c-24.74-1.08-45,15.3-45,36.5v764.29c0,21.2,20.23,37.25,45,35.77l1143.85-68.19c18.16-1.08,32.85-16.63,32.85-34.66V1120.7C1932,1119.45,1878.91,1118.23,1814,1119.55Z"/><path class="cls-13" d="M1914.08,1103.94l-556.3,125.61c-13.75,3.1-25-5.68-25-19.66v-819c0-14,11.27-23.39,25-21.06l556.29,94.38c7.53,1.28,13.58,10.57,13.58,20.77v597.41C1927.66,1092.6,1921.6,1102.24,1914.08,1103.94Z"/><path class="cls-38" d="M1926.73,1103.93l-556.3,125.62c-13.74,3.1-25-5.68-25-19.66v-819c0-14,11.27-23.39,25-21.06l556.31,94.38c7.52,1.28,13.58,10.57,13.58,20.77v597.41C1940.32,1092.6,1934.25,1102.24,1926.73,1103.93Z"/><g class="cls-39"><path class="cls-40" d="M1855.41,992.75c-68.9-77.7-21.47-203.62-84.4-236.27-52.33-27.17-108.36,48-158.21,22.15-64.81-33.54-4.62-178.43-68.56-290.06-22.78-39.78-67.23-85.64-162.85-116.86l-11-1.86c-13.74-2.33-25,7.09-25,21.06v819c0,14,11.27,22.76,25,19.66L1926.7,1104c7.52-1.7,13.58-11.34,13.58-21.53v-41.32C1906.11,1032.44,1876.91,1017,1855.41,992.75Z"/></g><path class="cls-41" d="M1914.46,506.65,1390.09,432c-4.73-.67-8.58,5.46-8.58,13.7V613.55c0,8.24,3.85,15.11,8.58,15.35l524.37,26.73c2.69.14,4.87-4.77,4.87-11V518.55C1919.33,512.36,1917.15,507,1914.46,506.65Z"/><path class="cls-41" d="M1390.09,628.88l187.55,9.56c-1.43-48.52-6.1-102.22-33.4-149.87a202.08,202.08,0,0,0-28.88-38.73L1390.09,432c-4.73-.67-8.58,5.46-8.58,13.7V613.55C1381.5,621.77,1385.35,628.64,1390.09,628.88Z"/><path class="cls-42" d="M1554.07,815.75l-160,6.19a12.1,12.1,0,0,1-12.52-11.65q0-.33,0-.66V684.23a12.2,12.2,0,0,1,12-12.42h.54l160,5c5.87.19,10.61,5.58,10.61,12v114.8C1564.68,810.09,1559.91,815.55,1554.07,815.75Z"/><path class="cls-13" d="M1554.07,971.9l-160,18.76a11.05,11.05,0,0,1-12.43-9.48,9.67,9.67,0,0,1-.09-1.86V853.92A13.41,13.41,0,0,1,1394,840.55L1554,833c5.87-.28,10.6,4.74,10.6,11.21V959C1564.68,965.42,1559.91,971.22,1554.07,971.9Z"/><path class="cls-13" d="M1554.07,1128l-160,31.3c-6.9,1.35-12.52-3.28-12.52-10.35V1023.55a14.77,14.77,0,0,1,12.52-14.38l160-20.13c5.87-.74,10.61,3.91,10.61,10.39v114.78C1564.68,1120.69,1559.91,1126.86,1554.07,1128Z"/><polygon class="cls-43" points="1918.59 1056.7 1574.62 1123.98 1574.62 677.42 1918.59 688.13 1918.59 1056.7"/><polygon class="cls-44" points="1918.59 1056.7 1574.62 1123.98 1574.62 1056.26 1918.59 1000.8 1918.59 1056.7"/><path class="cls-45" d="M1795.09,856.91c0,37.23-14.2,68.92-32,70.81-18.2,1.93-33.23-27.78-33.23-66.4s15-70.37,33.23-70.9C1780.91,789.9,1795.09,819.67,1795.09,856.91Z"/><polygon class="cls-41" points="1750.17 899.9 1750.17 819.97 1787.63 857.4 1750.17 899.9"/><polygon class="cls-41" points="1912.65 1035.46 1583.24 1095.38 1583.24 1084.51 1912.65 1026.42 1912.65 1035.46"/><polygon class="cls-46" points="1677.94 1078.15 1583.24 1095.38 1583.24 1084.51 1677.94 1067.81 1677.94 1078.15"/><path class="cls-13" d="M1680.84,1072.46c0,8.56-3.44,16.14-7.73,16.94s-7.8-5.53-7.8-14.16,3.5-16.21,7.8-17S1680.84,1063.91,1680.84,1072.46Z"/><path class="cls-47" d="M1855.41,992.75c-68.9-77.7-21.47-203.62-84.4-236.27-52.33-27.17-108.36,48-158.21,22.15-29.44-15.23-33.09-53.45-34.3-101.08l-3.89-.12V1124l344-67.28v-22.33C1893.71,1025.23,1872.21,1011.71,1855.41,992.75Z"/><path class="cls-48" d="M960.17,1445a1.18,1.18,0,0,1-1.18-1.18h0V978.73a1.17,1.17,0,0,1,1.17-1.19,1.2,1.2,0,0,1,1.19,1.18h0V1443.8a1.18,1.18,0,0,1-1.18,1.18Z"/><path class="cls-48" d="M834.91,1415.77a1.18,1.18,0,0,1-1.18-1.18h0V967a1.17,1.17,0,0,1,1.17-1.19,1.2,1.2,0,0,1,1.19,1.18h0v447.55a1.17,1.17,0,0,1-1.14,1.21Z"/><path class="cls-48" d="M545.19,1436.61a1.4,1.4,0,0,1-.4-.07,1.19,1.19,0,0,1-.71-1.51L711.57,973.55a1.18,1.18,0,1,1,2.24.76l0,0L546.31,1435.83A1.23,1.23,0,0,1,545.19,1436.61Z"/><path class="cls-48" d="M668.85,1472.72a1.34,1.34,0,0,1-.35,0,1.17,1.17,0,0,1-.78-1.47L818,984.62a1.18,1.18,0,0,1,1.47-.79,1.19,1.19,0,0,1,.79,1.48L670,1471.89A1.18,1.18,0,0,1,668.85,1472.72Z"/><polygon class="cls-48" points="836.25 966.52 961.95 975.84 961.95 978.65 818.29 985.1 710.93 971.95 710.93 969.12 836.25 966.52"/><polygon class="cls-49" points="836.25 963.71 961.95 975.84 818.29 982.27 710.93 969.12 836.25 963.71"/><path class="cls-48" d="M701.37,1367.46h-.3l-119.68-31.4a1.18,1.18,0,0,1,.6-2.28l119.68,31.4a1.17,1.17,0,0,1,.83,1.44,1.2,1.2,0,0,1-1.13.88Z"/><path class="cls-48" d="M735.26,1257.31h-.21l-117.44-20.76a1.18,1.18,0,0,1-1-1.37,1.16,1.16,0,0,1,1.36-1h0L735.47,1255a1.17,1.17,0,0,1,.94,1.37,1.19,1.19,0,0,1-1.15,1Z"/><path class="cls-48" d="M770.51,1143.63h-.15L656.69,1129a1.18,1.18,0,0,1-1-1.32h0a1.19,1.19,0,0,1,1.32-1l113.67,14.66a1.17,1.17,0,0,1,1,1.32,1.19,1.19,0,0,1-1.17,1Z"/><path class="cls-48" d="M793.11,1064.73h-.2L686,1048a1.18,1.18,0,0,1,.36-2.34l106.88,16.73a1.17,1.17,0,0,1,.94,1.37,1.18,1.18,0,0,1-1.12,1Z"/><path class="cls-50" d="M1109.56,752.17,841.26,751c-1.32,0-1.92-1.94-.91-2.94l27.18-27V601.21c0-4.83,3.53-9,7.9-9.27l234.13-15.28a9,9,0,0,1,9.62,8.32q0,.39,0,.78V742.49a9.65,9.65,0,0,1-9.6,9.68Z"/><polygon class="cls-51" points="936.16 616.08 887.18 618.68 887.18 612.3 936.16 609.55 936.16 616.08"/><polygon class="cls-51" points="936.16 629.12 887.18 631.46 887.18 625.08 936.16 622.6 936.16 629.12"/><polygon class="cls-51" points="936.16 649.64 887.18 651.55 887.18 645.17 936.16 643.13 936.16 649.64"/><polygon class="cls-51" points="936.16 662.68 887.18 664.33 887.18 657.95 936.16 656.16 936.16 662.68"/><polygon class="cls-51" points="1095.39 715.13 887.18 717.29 887.18 710.91 1095.39 708.17 1095.39 715.13"/><polygon class="cls-51" points="1095.39 729.05 887.18 730.07 887.18 723.68 1095.39 722.1 1095.39 729.05"/><polygon class="cls-51" points="936.16 683.22 887.18 684.42 887.18 678.04 936.16 676.71 936.16 683.22"/><polygon class="cls-51" points="936.16 696.25 887.18 697.2 887.18 690.82 936.16 689.74 936.16 696.25"/><polygon class="cls-51" points="1095.39 693.92 955.18 696.58 955.18 608.5 956.47 608.42 956.47 695.18 1095.39 692.49 1095.39 693.92"/><polygon class="cls-51" points="973.46 671.41 972.53 670.48 1000.27 639.65 1028.13 648.65 1056.22 622.53 1085.15 636.26 1084.52 637.58 1056.42 624.23 1028.42 650.24 1000.63 641.25 973.46 671.41"/><path class="cls-52" d="M977.47,670.82a4.78,4.78,0,0,1-4.47,4.87,4.45,4.45,0,0,1-4.46-4.43,1.09,1.09,0,0,1,0-.18A4.77,4.77,0,0,1,973,666.2a4.44,4.44,0,0,1,4.47,4.42Z"/><path class="cls-53" d="M1005,640.26a4.94,4.94,0,0,1-4.58,5,4.46,4.46,0,0,1-4.56-4.35,2.17,2.17,0,0,1,0-.26,4.91,4.91,0,0,1,4.55-5A4.46,4.46,0,0,1,1005,640Z"/><path class="cls-54" d="M1033,649.27a5,5,0,0,1-4.68,5,4.56,4.56,0,0,1-4.67-4.44v-.24a5,5,0,0,1,4.67-5A4.56,4.56,0,0,1,1033,649Z"/><path class="cls-55" d="M1061.11,623.16a5.13,5.13,0,0,1-4.79,5.13,4.57,4.57,0,0,1-4.76-4.37c0-.1,0-.21,0-.31a5.14,5.14,0,0,1,4.77-5.14,4.58,4.58,0,0,1,4.79,4.38A1.6,1.6,0,0,1,1061.11,623.16Z"/><path class="cls-56" d="M1089.73,636.72a5.19,5.19,0,0,1-4.9,5.17,4.68,4.68,0,0,1-4.87-4.48,2.62,2.62,0,0,1,0-.28,5.18,5.18,0,0,1,4.88-5.17,4.69,4.69,0,0,1,4.9,4.47A1.41,1.41,0,0,1,1089.73,636.72Z"/><path class="cls-57" d="M930.47,722.55l5.91-6.46a21.83,21.83,0,0,1,5.28-4.54c4.76-2.92,11.32-4.36,12.3-2.69,1.1,1.89-5.11,7.5-7.23,9.35l-8.82,6.34Z"/><path class="cls-58" d="M804,678.55c-1.61.61-26.15,10.36-31.18,36-.41,2.06-4.35,24.06,10.57,39.6,16.71,17.42,48.93,17,61.71,2.42a26.14,26.14,0,0,0,5.44-10.32l-3.37-9c-4.11-5-9.71-6.14-12.69-6.87-7.37-1.82-12.93,1.46-17.15-2.09-2.34-2-2.8-4.8-3.22-7.32-1.41-8.61,3.45-13.91,3.8-19.22.27-4,1.66-12.66-3.52-18.34C811.07,679.88,806.53,678.91,804,678.55Z"/><path class="cls-59" d="M794.41,963.91c-.29-1.58-5.38-3-7.91-.9-1.25,1-2.1,3.18-1.39,4.14.27.35-.81,1,.22,1C788.76,968.16,794.69,965.47,794.41,963.91Z"/><path class="cls-60" d="M789.06,964.48l-5.22-.74c2.42-2.92,2-12.22,2-12.22l5.56,1.24s-.64,2.56-1.72,6.32A25.77,25.77,0,0,0,789.06,964.48Z"/><path class="cls-61" d="M789.54,963.83s-6.3-1.45-7-.2-1.22,4.6,2.78,4.49S789.91,964.89,789.54,963.83Z"/><path class="cls-62" d="M866.23,969.82c-.5-1.52-5.74-2.22-7.94.22-1.1,1.21-1.66,3.44-.8,4.28.31.31-.67,1.07.35.94C861.24,974.82,866.73,971.33,866.23,969.82Z"/><path class="cls-63" d="M861,971.13h-5.29c2-3.23.25-12.37.25-12.37l5.69.45s-.27,2.61-.82,6.49A24.66,24.66,0,0,0,861,971.13Z"/><path class="cls-64" d="M874.73,771.22a245,245,0,0,1,8.2,37.51c6.42,46.71-7.23,48.2-4.68,100,.81,16.52-14.31,54.62-15.65,55.46a16.39,16.39,0,0,1-2.1.08,21.52,21.52,0,0,1-5.33-.88c-2.39-.42-11-23.82-9-37.73,1.42-9.85,1-20.42.18-41.55-.13-3.43-8.89-66.63-8.89-66.63-2.67,23.39-5.73,43.27-8.39,58.68-8.54,49.52-36.3,79.49-37.74,80a5.92,5.92,0,0,1-5-.34,3.72,3.72,0,0,1-1.27-1.43c-.74-.58.22-49.44,8.69-86.21,12.29-53.36,6.94-65.85,10.83-89.69C807.91,757.8,874.73,771.22,874.73,771.22Z"/><path class="cls-65" d="M825.09,674.43c8.15-.24,26.9-3.12,37.23,6.17.18.16-1.92,1.29-.89,2.51a68.08,68.08,0,0,1,7.3,10.44,70.4,70.4,0,0,1,6.18,15.19,130.49,130.49,0,0,1,4.84,26.46c1.89,24.83,0,36.29-1.68,44.08-7.38,3.79-26.39,10.57-49,7.2a77,77,0,0,1-24.45-8c5.88-17.8,1.27-27.32-.91-36.1-3.1-12.51-3.15-11.57-5.7-21.51-4.22-16.4-4.91-33.17-2-36.6C803.71,675,817.78,674.64,825.09,674.43Z"/><path class="cls-66" d="M861.4,970.43s-6.44-.56-6.94.77-.56,4.73,3.38,4.06S861.91,971.43,861.4,970.43Z"/><path class="cls-67" d="M848.05,665.07c2.53-4.27,1.4-9.15,1.15-10.21-1.06-4.42-1.46-5.08-2.28-6l-1.16-1.22-.15-.11a16.05,16.05,0,0,0-4.46-1.49c-2.09-.1-6.3,7.34-8.72,18.81-.19.41-.39.82-.58,1.24-1.2,2.6-2.23,5.16-3.11,7.65-14,1.19-16,2.84-16,3.79-.13,2,7.86,4.31,13.87,5.19,13.11,1.92,26.58-1.54,26.52-4,0-1.07-2.63-2.45-13.74-3.91l.78-5.52C841,669.09,846.19,668.22,848.05,665.07Z"/><path class="cls-68" d="M850.69,645.49c-1,3.5-3.6,6.8-4.6,7.18a5.87,5.87,0,0,0-1.64,1,1.34,1.34,0,0,0-.31.36c-1.35,2,1.47,5.53.53,6.34-.69.59-2.82-1-3.27-.46s1.24,2.24.75,2.86-1.46-.34-2.44.26c-.49.3-.47.65-1.2,1.77a14.09,14.09,0,0,1-1.3,1.67c-1.76,1.73-5.39,1.57-5.83.57-.12-.28.08-.43.1-1.25a6.57,6.57,0,0,0-.26-1.72c-.4-1.37-1.88-2.67-3.29-4.37-2.58-3.16-2.93-5.35-3-6.09V653c-.14-2.81.86-6.6,2.66-8.62,3-3.39,6.88-.37,11.5-3.28,5.33-3.37,4.48-10.13,6.91-10.21C848.62,630.88,852.44,639,850.69,645.49Z"/><path class="cls-69" d="M843.62,659.26c-.55-1.41-2.34-.7-2.77.82s.64,3.51,2.16,3.59S844.36,661.16,843.62,659.26Z"/><path class="cls-70" d="M807.12,767.24h0a.33.33,0,0,1-.28-.34c1-8.67-.83-15-2.41-20.53-.4-1.37-.76-2.66-1.09-4-1.76-7.11-2.53-9.85-3.34-12.75-.54-1.89-1.08-3.85-1.94-7.11a.31.31,0,0,1,.23-.38h0a.29.29,0,0,1,.37.21h0c.85,3.26,1.4,5.21,1.93,7.1.82,2.91,1.59,5.66,3.35,12.77.32,1.29.69,2.58,1.08,3.94,1.6,5.62,3.42,12,2.44,20.76a.3.3,0,0,1-.29.32Z"/><path class="cls-68" d="M843.61,656.55l1.3,3.13s1.3,3.74,3,2.34c1.4-1.15,1.65-1,1.71-1h0v-1.4a12.18,12.18,0,0,1,.73,4.11c0,1.73,0,3.58-1.35,5a5.17,5.17,0,0,1-3.54,1.51s-.79,0-3.75-1.4c0,0,4.06-1.56,4.27-2.14.56-1.55-1.42-3-2.19-6.71A13.24,13.24,0,0,1,843.61,656.55Z"/><path class="cls-71" d="M933.75,717.89a16.36,16.36,0,0,1,5.35,6.66,49.67,49.67,0,0,1-17.28,21.52c-16.7,11.42-41.19,11.81-58.23-1.22-20.38-15.57-23.79-45.42-15.22-58.2,1-1.47,4.22-6.31,9.25-6.87,3.18-.35,7.5,1,14.33,9,14.22,16.66,9.2,27.06,17.61,31.93C902.16,728,920.91,708.9,933.75,717.89Z"/><path class="cls-70" d="M876.38,752h-.07c-.2,0-20.22-4.64-29.22-29.47a.3.3,0,0,1,.22-.38.31.31,0,0,1,.36.17c8.89,24.51,28.59,29,28.78,29.08a.31.31,0,0,1,.22.37.32.32,0,0,1-.28.24Z"/><path class="cls-72" d="M1352.84,1125.05s-3.18-2.08-3.19-4.19-2.2-9.47-3.25-9.46-1,4.23,0,5.27,0,2.11-1,2.12-5.31-3.12-8.5-6.25,0,2.11,1.09,4.21,2.17,6.31,4.29,7.34a51.27,51.27,0,0,0,5.29,2.06l3.18,2.09Z"/><path class="cls-73" d="M1374.46,1070.36c-1.36-2.27-2.5-4.1-3.33-5.41a.34.34,0,0,0-.61.3l2,5.11s-6.72-11.53-6.72-9.61,3.84,7.68,3.84,7.68-8.65-9.6-8.65-7.68,5.77,8.65,5.77,8.65-5.77-3.85-7.69-3.85,3.84,4.81,6.73,7.69c3.16,3.16,3.37,4,3.14,4.42-.64,1.18-5.45-.51-5.61,0-.11.35,2,1.45,4.39,2.3a63.43,63.43,0,0,0,8.64,1.92l3.84-1.92Z"/><path class="cls-68" d="M1568.18,1433.35a3.43,3.43,0,0,1,.82,2,3.15,3.15,0,0,1-.25,1.35c-.75,2-1.92,2.22-3.18,4.3-.77,1.27-.62,1.65-1.33,2.22a4.74,4.74,0,0,1-3,.82,56.65,56.65,0,0,1-7-.4c1.57-2,3.23-4.07,5-6.15.77-.9,1.56-1.79,2.32-2.66l4.61-1.55Z"/><path class="cls-74" d="M1564.34,1411s-2.64,13.74.72,17.59c2.85,3.85-1.38,1.1-1.38,1.1l-5.06,4.42-3,5.24s2.79-13.46,2-18.79-1.11-8.94-1.11-8.94Z"/><path class="cls-75" d="M1563.63,1426.64c1.25,0,2.17,1,2.85,3.4s4,4.51.14,4-6.67,5-8,7-5.07,3.82-5,1.84,1.73-2.9,2.19-4.92S1560.8,1426.55,1563.63,1426.64Z"/><path class="cls-76" d="M1532.63,1230.08c1.84.72,6.08,3,13.71,35.86,4.9,21.1,4.53,26.1,8.44,39,5.25,17.34,10.76,24.35,14.77,33.75,6.35,14.9,10.09,38.5-3.17,76l-10.54,4.22a195.21,195.21,0,0,0-3.17-44.3c-9.38-49.7-34.81-86.5-34.81-86.5-11.51-16.67-19.6-22.91-17.93-33.75C1502.26,1239.28,1521.84,1225.84,1532.63,1230.08Z"/><g class="cls-39"><path class="cls-77" d="M1562.18,1383c-2.35-21.31,3-25.87-1.07-42.19-6-24.35-21.2-27.63-24.26-47.46-1.24-8-.57-19.47,7.81-34.42-6.57-26.19-10.32-28.2-12-28.87-10.8-4.24-30.37,9.2-32.7,24.26-1.67,10.84,6.42,17.08,17.93,33.75,0,0,25.43,36.8,34.81,86.5a196.36,196.36,0,0,1,3.17,44.3l10.54-4.22c.63-1.78,1.21-3.51,1.76-5.22A121.08,121.08,0,0,1,1562.18,1383Z"/></g><path class="cls-68" d="M1539.33,1439.74a4.16,4.16,0,0,1,1,2.4,4.3,4.3,0,0,1-.29,1.62c-.89,2.33-2.3,2.64-3.8,5.11-.92,1.52-.74,2-1.58,2.66a5.53,5.53,0,0,1-3.61,1,63,63,0,0,1-8.36-.47c1.87-2.41,3.85-4.85,6-7.32.92-1.08,1.85-2.14,2.77-3.17l5.49-1.86Z"/><path class="cls-78" d="M1534.75,1413.09s-3.14,16.37.86,21c3.4,4.59-1.65,1.32-1.65,1.32l-6,5.26-3.61,6.24s3.32-16,2.44-22.39-1.33-10.64-1.33-10.64Z"/><path class="cls-75" d="M1533.91,1431.74c1.47,0,2.56,1.21,3.39,4.06s4.77,5.36.17,4.76-7.94,5.92-9.58,8.33-6.06,4.55-6,2.19,2.06-3.45,2.6-5.86S1530.53,1431.69,1533.91,1431.74Z"/><path class="cls-79" d="M1475.68,1265.94a662.48,662.48,0,0,1,47.47,157.17,22.87,22.87,0,0,0,13.7,0,148.43,148.43,0,0,0,2.11-53.8c-2.79-18.87-6.62-18.37-10.55-38-6.62-33.06,2.08-45.44-6.33-81.22-5.2-22.14-10.06-23.89-11.6-24.26C1498.5,1223,1481.61,1254.32,1475.68,1265.94Z"/><path class="cls-80" d="M1378.47,1076.86l-3.73,5.63a137.26,137.26,0,0,1,44.34,34.49c18.13,21.64,22.82,41.75,34.58,42,5.5.15,13.62-4,24-25.43a138.35,138.35,0,0,0-35.33-34.06A139.94,139.94,0,0,0,1378.47,1076.86Z"/><path class="cls-81" d="M1462,1136.2c-17,15-25.61,22.43-28.48,23.21-10.32,2.8-17.15-7.52-36.92-19a150.59,150.59,0,0,0-44.31-16.87l-4.21,6.33a226.51,226.51,0,0,0,25.31,28.47c21.93,20.82,30.17,20.18,48.52,36.92,7.81,7.11,30,27.81,42.19,60.13,9.56,25.35,8.22,45.36,15.82,46.41,4.62.63,6.27-6.58,20-21.1,10-10.52,18.82-19.83,32.7-26.37,7.23-3.4,12.56-4.52,21.1-10.55,7-4.94,12.87-9.09,12.65-13.71-.39-8.24-19.68-6.65-36.91-20-10.63-8.26-7.92-12.46-33.76-53.79-9.76-15.63-17.12-26.19-25.31-25.32C1467.61,1131.23,1465.91,1132.73,1462,1136.2Z"/><path class="cls-82" d="M1437.18,1145.17l4.22,10.55s9.5-5.28,11.6-9.5l-9.5-7.38Z"/><path class="cls-83" d="M1432.91,1132.16c-3.71-4.93-2.13-14.61,1.18-15.85.94-.35,1.58.15,11,7.88,4.69,3.84,7,5.82,7.09,8.47a7.87,7.87,0,0,1-1.69,4.9,20.7,20.7,0,0,1-3.34,3c-1.69,1.31-1.59,1.27-2.1,1.65a28.15,28.15,0,0,1-7.23,3.67,20.71,20.71,0,0,0,.08-3.34,17,17,0,0,0-.82-4.25C1436.07,1135.15,1434.16,1133.76,1432.91,1132.16Z"/><path class="cls-84" d="M1442.47,1144.83a10.45,10.45,0,0,1-10.21,1.22c-5-2.2-1.59-14,2.58-15.26a6.89,6.89,0,0,1,5.31,1.19c1,.68,1.15,1.24,2.72,2.32s2,1,2.29,1.56c.42.73.41,2.13-1.82,5.14,1.34-.64,2.66-.59,3.35.11a1.81,1.81,0,0,1,.44.91C1447.36,1143.6,1445.56,1144.84,1442.47,1144.83Z"/><path class="cls-85" d="M1533.7,1237.46c-24.35,8.47-32.94,30.79-43.25,27.43-12.52-4.08-1.33-37.48-22.15-54.85-12-10-21.76-4-34.82-16.88-10.93-10.79-7.41-18.3-17.93-27.42-11.52-10-22.41-6.76-36.92-11.6a59.64,59.64,0,0,1-22.21-13.73,227.83,227.83,0,0,0,16.94,17.94c21.92,20.82,30.16,20.18,48.52,36.92,7.8,7.11,30,27.81,42.19,60.13,9.56,25.35,8.22,45.36,15.82,46.41,4.62.63,6.27-6.58,20-21.1,10-10.52,18.82-19.83,32.7-26.37,7.23-3.4,12.56-4.52,21.1-10.55,4.28-3,8.14-5.76,10.45-8.48A61.7,61.7,0,0,0,1533.7,1237.46Z"/><path class="cls-86" d="M1931.29,1133s-4.29-2.14-5.35-4.28-5.35-4.28-7.49-6.42a21.81,21.81,0,0,1-3.37-5.43.84.84,0,0,1,.41-1.13.83.83,0,0,1,.69,0,47,47,0,0,0,6.55,2.29c4.28,1.07,6.42,8.56,6.42,8.56l4.28,5.35Z"/><path class="cls-87" d="M1932.35,1128.7l-4.28,3.21c2.76,7.35,7,17.79,12.84,30,17.55,36.28,36.62,76,61,76,12,0,24.5-9.67,25.68-19.26,1.33-10.83-11.94-20.2-23.54-28.89A791.43,791.43,0,0,1,1932.35,1128.7Z"/><path class="cls-88" d="M1900.75,1307.61a1.6,1.6,0,0,1-1.1-.45c-23.32-22.82-33.42-43.17-30-60.51,2.59-13.16,12-20.81,22-28.9,9.48-7.71,19.31-15.69,25.59-29.46,8.43-18.42,7.55-41.18-2.58-67.65L1629.08,747.55,1350.21,532.87a29.77,29.77,0,0,0-9.5-4.8,20,20,0,0,1-12-9.18,1.58,1.58,0,0,1,2.72-1.6l0,0A16.78,16.78,0,0,0,1341.6,525a32.87,32.87,0,0,1,10.5,5.33l279.2,215,286.11,373.74.08.22c10.53,27.38,11.4,51,2.6,70.31-6.6,14.45-17.16,23-26.49,30.61-9.91,8-18.48,15-20.86,27-3.21,16.23,6.57,35.62,29.09,57.63a1.6,1.6,0,0,1,0,2.24A1.62,1.62,0,0,1,1900.75,1307.61Z"/><path class="cls-89" d="M1900,1426.42s-14.7,3.58-17.8,5,8.51,2.14,13.93,2.85,6.19,0,6.19,0a32.46,32.46,0,0,1,3.08-4.28C1907.05,1427.94,1900,1426.42,1900,1426.42Z"/><path class="cls-90" d="M1907.69,1420.26l-8.23,7.4a4.11,4.11,0,0,0,4.11,2.47l9-6.58Z"/><path class="cls-91" d="M2018,1301a79.47,79.47,0,0,1-8.56,25.68c-14.6,26.85-34.21,23.72-53.5,52.42-8,12-9.54,19.76-21.41,31a89.18,89.18,0,0,1-21.4,15l-9.63-5.35c4.79-7.61,12.42-19.9,21.4-35.31,28.1-48.15,33.73-65.32,53.5-76C1985.91,1304.37,1998.57,1299.64,2018,1301Z"/><g class="cls-39"><path class="cls-92" d="M1945.2,1368.36c11.49-13.74,20.49-11,35.31-22.46,9.82-7.62,21.25-20.77,28.54-45.12-14.43.4-24.34,4.26-30.68,7.67-19.77,10.64-25.4,27.81-53.5,76-9,15.41-16.61,27.7-21.4,35.31l.32.18a47,47,0,0,0,17.87-9.81C1935.6,1397.55,1932.05,1384.1,1945.2,1368.36Z"/></g><path class="cls-93" d="M1919.51,1138.33s-2.14-2.14-2.14-7.49S1912,1118,1911,1116.93s-1.07,7.49-1.07,10.7,7.49,12.84,7.49,12.84Z"/><path class="cls-94" d="M1833.82,1427s-14.7,3.57-17.81,5,8.52,2.15,13.94,2.86,6.18,0,6.18,0a32.89,32.89,0,0,1,3.09-4.29C1840.91,1428.55,1833.82,1427,1833.82,1427Z"/><path class="cls-95" d="M1841.55,1420.83l-8.23,7.4a4.11,4.11,0,0,0,4.11,2.47l9-6.58Z"/><path class="cls-96" d="M1949.6,1288.49c-29.45,31.82-59.14,66.66-88.38,104.73q-12,15.6-23.21,31.06l7.58,1.79a111,111,0,0,0,39.63-23.24c15.41-14.22,13.86-21.49,29.44-35.62,18.33-16.65,28.27-13.62,45.8-28.88,8.57-7.45,19-19.34,27.15-38.73Z"/><path class="cls-97" d="M2016.53,1163.78s-8.47,6.7-11.44,12.7,4.14,8.58,4.14,8.58l-2,3.75a9.16,9.16,0,0,1-8.66,4.91l-3.16-.19c2.17,1.36,5.49,3.34,9.66,5.47,7.68,3.92,16.81,7.59,17.64,6.2.6-1-3.74-3.28-5.16-8.82a14.62,14.62,0,0,1-.19-6.14l.55-1.73S2029.4,1170.76,2016.53,1163.78Z"/><path class="cls-98" d="M2013.68,1171.49c-2.32-2.69-3-7.46-1.08-9.63,1-1.11,2.94-1.9,7.49-1.07,11.42,2.1,18.53,10.65,24.62,15,10.5,7.49,21.08,4.62,38.51,4.28,5.37-.1,46.78.09,82.38,18.19,12.4,6.3,32.61,16.58,37.45,37.45,3.12,13.42.2,32.61-11.77,40.66-16.13,10.85-37.46-6.13-49.22,5.35-7.69,7.51-1.07,17.23-8.56,25.68-10.34,11.67-39,11.24-56.71-2.14-20.25-15.34-7-33.3-32.09-68.48-8.84-12.41-15.18-26.55-24.61-38.52-.33-.41-11.2-14.2-7.49-19.26,1.29-1.75,4.39-2.52,4.28-4.28C2016.8,1173.45,2015.18,1173.25,2013.68,1171.49Z"/><path class="cls-99" d="M1920.59,1135.12l-5.35,3.21c1.92,22.71,9.38,37,16,46,13.44,18.1,28.19,20.65,30,35.31,1.07,8.84-4,9.92-11.77,34.24-4.54,14.32-6.93,21.84-6.42,32.1.27,5.4,1.14,22.78,12.84,33.17,4.73,4.2,9.65,5.85,41.73,8.56,37,3.12,42.32,1.91,52.42,7.49,12.69,7,19.09,17.07,22.46,15,3.82-2.37-1.35-17-2.13-19.26-7.43-21.1-18.79-25.69-30-47.08a101.42,101.42,0,0,1-9.63-25.68c-5.54-24.87,2.58-35.34-4.28-48.15-6.53-12.17-20.17-15-33.17-19.26C1974.51,1184.65,1948.78,1170.63,1920.59,1135.12Z"/><path class="cls-100" d="M2061.81,1328.78c-8.51-6.67-15.35-3.19-24.6-10.7-11.76-9.54-6.82-20.08-16-30-15.42-16.49-43-1.87-50.29-13.91-7.76-12.73,20.9-32.55,13.91-57.78-3.34-12-13.29-19.89-19.26-24.61-15.82-12.48-27.28-9.58-39.59-21.4a45.18,45.18,0,0,1-5.22-6,77.28,77.28,0,0,0,10.57,19.92c13.44,18.1,28.19,20.65,30,35.31,1.07,8.84-4,9.92-11.77,34.24-4.54,14.32-6.93,21.84-6.42,32.1.27,5.4,1.14,22.78,12.84,33.17,4.73,4.2,9.65,5.85,41.73,8.56,37,3.12,42.32,1.91,52.43,7.49,12.69,7,19.08,17.07,22.46,15a2.16,2.16,0,0,0,.66-.65C2070.81,1338.05,2066.09,1332.12,2061.81,1328.78Z"/><path class="cls-101" d="M1629.68,748.55a1.59,1.59,0,0,1-1.51-1.12L1521.8,398.82a3,3,0,0,0-2.37-2.08l-.32-.09-3.93-1.54a1.6,1.6,0,0,1-.9-2.05,1.58,1.58,0,0,1,2-.9h0l3.79,1.49a6.1,6.1,0,0,1,4.7,4.25l106.37,348.65a1.57,1.57,0,0,1-1,2h0A1.46,1.46,0,0,1,1629.68,748.55Z"/></g></svg>