<svg xmlns="http://www.w3.org/2000/svg" xmlns:xlink="http://www.w3.org/1999/xlink" viewBox="0 0 2774.15 1819.04"><defs><style>.cls-1{isolation:isolate;}.cls-2{fill:#191919;}.cls-3{fill:#141414;}.cls-103,.cls-104,.cls-136,.cls-151,.cls-32,.cls-4,.cls-58,.cls-66,.cls-7,.cls-96{opacity:0.3;}.cls-103,.cls-104,.cls-107,.cls-136,.cls-151,.cls-32,.cls-4,.cls-58,.cls-66,.cls-7,.cls-8,.cls-96{mix-blend-mode:multiply;}.cls-4{fill:url(#linear-gradient);}.cls-5,.cls-6,.cls-9{opacity:0.24;}.cls-5{fill:url(#linear-gradient-2);}.cls-6{fill:url(#linear-gradient-3);}.cls-7{fill:url(#linear-gradient-4);}.cls-8{opacity:0.53;fill:url(#linear-gradient-5);}.cls-9{fill:url(#linear-gradient-6);}.cls-10{fill:url(#linear-gradient-7);}.cls-11,.cls-15,.cls-31,.cls-34,.cls-35,.cls-56,.cls-60{fill:#fff;}.cls-11{opacity:0.16;mix-blend-mode:screen;}.cls-12{fill:url(#linear-gradient-8);}.cls-13{fill:url(#linear-gradient-9);}.cls-14{fill:url(#linear-gradient-10);}.cls-15{opacity:0.74;}.cls-16{fill:url(#linear-gradient-11);}.cls-17{fill:url(#linear-gradient-12);}.cls-18{fill:url(#linear-gradient-13);}.cls-19{fill:url(#linear-gradient-14);}.cls-20,.cls-21,.cls-23,.cls-24{opacity:0.25;}.cls-20{fill:url(#linear-gradient-15);}.cls-21{fill:url(#linear-gradient-16);}.cls-22{fill:url(#linear-gradient-17);}.cls-23{fill:url(#linear-gradient-18);}.cls-24{fill:url(#linear-gradient-19);}.cls-25{fill:url(#linear-gradient-20);}.cls-26{fill:url(#linear-gradient-21);}.cls-27{fill:url(#linear-gradient-22);}.cls-28{fill:url(#linear-gradient-23);}.cls-29{fill:#97a6b7;}.cls-30{fill:url(#linear-gradient-24);}.cls-32,.cls-70{fill:#d8dee8;}.cls-33{fill:url(#linear-gradient-25);}.cls-34{opacity:0.6;}.cls-119,.cls-34,.cls-35,.cls-56{mix-blend-mode:soft-light;}.cls-35{opacity:0.36;}.cls-36{fill:url(#linear-gradient-26);}.cls-37,.cls-38,.cls-39,.cls-41,.cls-42,.cls-43,.cls-44,.cls-46,.cls-47,.cls-48,.cls-49,.cls-50,.cls-52,.cls-53,.cls-54{opacity:0.5;}.cls-37{fill:url(#linear-gradient-27);}.cls-38{fill:url(#linear-gradient-28);}.cls-39{fill:url(#linear-gradient-29);}.cls-40{fill:url(#linear-gradient-30);}.cls-41{fill:url(#linear-gradient-31);}.cls-42{fill:url(#linear-gradient-32);}.cls-43{fill:url(#linear-gradient-33);}.cls-44{fill:url(#linear-gradient-34);}.cls-45{fill:url(#linear-gradient-35);}.cls-46{fill:url(#linear-gradient-36);}.cls-47{fill:url(#linear-gradient-37);}.cls-48{fill:url(#linear-gradient-38);}.cls-49{fill:url(#linear-gradient-39);}.cls-50{fill:url(#linear-gradient-40);}.cls-51{fill:url(#linear-gradient-41);}.cls-52{fill:url(#linear-gradient-42);}.cls-53{fill:url(#linear-gradient-43);}.cls-54{fill:url(#linear-gradient-44);}.cls-55{fill:url(#linear-gradient-45);}.cls-57{fill:url(#linear-gradient-46);}.cls-59{fill:url(#linear-gradient-47);}.cls-60{opacity:0.68;}.cls-61{fill:url(#linear-gradient-48);}.cls-62{fill:url(#linear-gradient-49);}.cls-63{fill:url(#linear-gradient-50);}.cls-64{fill:url(#linear-gradient-51);}.cls-65{fill:url(#linear-gradient-52);}.cls-66{fill:url(#linear-gradient-53);}.cls-67{fill:#999;}.cls-68{fill:#c2c2c2;}.cls-69{opacity:0.57;fill:url(#linear-gradient-54);}.cls-71,.cls-72,.cls-73,.cls-74,.cls-75{opacity:0.7;}.cls-71{fill:url(#linear-gradient-55);}.cls-72{fill:url(#linear-gradient-56);}.cls-73{fill:url(#linear-gradient-57);}.cls-74{fill:url(#linear-gradient-58);}.cls-75{fill:url(#linear-gradient-59);}.cls-76{fill:url(#linear-gradient-60);}.cls-77{fill:url(#linear-gradient-61);}.cls-78{fill:url(#linear-gradient-62);}.cls-79{fill:url(#linear-gradient-63);}.cls-80{fill:url(#linear-gradient-64);}.cls-81{fill:url(#linear-gradient-65);}.cls-82{fill:url(#linear-gradient-66);}.cls-83{fill:url(#linear-gradient-67);}.cls-84{fill:url(#linear-gradient-68);}.cls-85{fill:url(#linear-gradient-69);}.cls-86{fill:url(#linear-gradient-70);}.cls-87{fill:#26264f;}.cls-88{fill:url(#linear-gradient-71);}.cls-89{fill:#9b305e;}.cls-90{fill:url(#linear-gradient-72);}.cls-91{fill:url(#linear-gradient-73);}.cls-92{fill:url(#linear-gradient-74);}.cls-93{fill:url(#linear-gradient-75);}.cls-94{fill:url(#linear-gradient-76);}.cls-95{fill:url(#linear-gradient-77);}.cls-96{fill:url(#linear-gradient-78);}.cls-97{fill:url(#linear-gradient-79);}.cls-98{fill:url(#linear-gradient-80);}.cls-99{fill:url(#linear-gradient-81);}.cls-100{fill:url(#linear-gradient-82);}.cls-101{fill:url(#linear-gradient-83);}.cls-102{fill:url(#linear-gradient-84);}.cls-103{fill:url(#linear-gradient-85);}.cls-104{fill:url(#linear-gradient-86);}.cls-105{fill:url(#linear-gradient-87);}.cls-106{fill:url(#linear-gradient-88);}.cls-107{fill:url(#linear-gradient-89);}.cls-108{fill:url(#linear-gradient-90);}.cls-109{fill:url(#linear-gradient-91);}.cls-110{fill:url(#linear-gradient-92);}.cls-111{fill:url(#linear-gradient-93);}.cls-112{fill:url(#linear-gradient-94);}.cls-113{fill:url(#linear-gradient-95);}.cls-114{fill:url(#linear-gradient-96);}.cls-115{fill:url(#linear-gradient-97);}.cls-116{fill:url(#linear-gradient-98);}.cls-117{fill:url(#linear-gradient-99);}.cls-118{fill:url(#linear-gradient-100);}.cls-119{opacity:0.49;}.cls-120{fill:url(#linear-gradient-101);}.cls-121{fill:url(#linear-gradient-102);}.cls-122{fill:url(#linear-gradient-103);}.cls-123{fill:url(#linear-gradient-104);}.cls-124{fill:url(#linear-gradient-105);}.cls-125{fill:url(#linear-gradient-106);}.cls-126{fill:#444b8c;}.cls-127{fill:url(#linear-gradient-107);}.cls-128{fill:url(#linear-gradient-108);}.cls-129{fill:url(#linear-gradient-109);}.cls-130{fill:url(#linear-gradient-110);}.cls-131{fill:url(#linear-gradient-111);}.cls-132{fill:url(#linear-gradient-112);}.cls-133{fill:url(#linear-gradient-113);}.cls-134{fill:url(#linear-gradient-114);}.cls-135{fill:url(#linear-gradient-115);}.cls-136{fill:url(#linear-gradient-116);}.cls-137{fill:url(#linear-gradient-117);}.cls-138{fill:url(#linear-gradient-118);}.cls-139{fill:url(#linear-gradient-119);}.cls-140{fill:url(#linear-gradient-120);}.cls-141{fill:url(#linear-gradient-121);}.cls-142{fill:url(#linear-gradient-122);}.cls-143{fill:url(#linear-gradient-123);}.cls-144{fill:url(#linear-gradient-124);}.cls-145{fill:url(#linear-gradient-125);}.cls-146{fill:url(#linear-gradient-126);}.cls-147{fill:url(#linear-gradient-127);}.cls-148{fill:url(#linear-gradient-128);}.cls-149{fill:url(#linear-gradient-129);}.cls-150{fill:url(#linear-gradient-130);}.cls-151{fill:url(#linear-gradient-131);}.cls-152{fill:url(#linear-gradient-132);}</style><linearGradient id="linear-gradient" x1="1519.56" y1="854.01" x2="779.86" y2="1754.51" gradientUnits="userSpaceOnUse"><stop offset="0" stop-color="#ff9085"/><stop offset="1" stop-color="#fb6fbb"/></linearGradient><linearGradient id="linear-gradient-2" x1="1152.58" y1="684.12" x2="592.84" y2="1365.54" gradientUnits="userSpaceOnUse"><stop offset="0" stop-color="#aa80f9"/><stop offset="1" stop-color="#6165d7"/></linearGradient><linearGradient id="linear-gradient-3" x1="2141.16" y1="486.67" x2="1585.13" y2="1163.57" xlink:href="#linear-gradient-2"/><linearGradient id="linear-gradient-4" x1="2089.75" y1="369.07" x2="1697.36" y2="846.76" xlink:href="#linear-gradient"/><linearGradient id="linear-gradient-5" x1="2078.35" y1="753.87" x2="1620.53" y2="1311.22" xlink:href="#linear-gradient"/><linearGradient id="linear-gradient-6" x1="2364.3" y1="998.65" x2="2162.19" y2="1244.69" xlink:href="#linear-gradient-2"/><linearGradient id="linear-gradient-7" x1="-4116.13" y1="1101.32" x2="-3602.2" y2="1101.32" gradientTransform="matrix(-1, 0, 0, 1, -1692.08, 0)" gradientUnits="userSpaceOnUse"><stop offset="0" stop-color="#e38ddd"/><stop offset="1" stop-color="#9571f6"/></linearGradient><linearGradient id="linear-gradient-8" x1="-3702.63" y1="1181.1" x2="-3798.56" y2="1694.43" xlink:href="#linear-gradient-7"/><linearGradient id="linear-gradient-9" x1="761.75" y1="859.02" x2="476.67" y2="686.31" xlink:href="#linear-gradient"/><linearGradient id="linear-gradient-10" x1="862.63" y1="411.34" x2="788.94" y2="839.65" xlink:href="#linear-gradient"/><linearGradient id="linear-gradient-11" x1="637.78" y1="318.08" x2="733.27" y2="803.34" gradientUnits="userSpaceOnUse"><stop offset="0" stop-color="#ffc444"/><stop offset="1" stop-color="#f36f56"/></linearGradient><linearGradient id="linear-gradient-12" x1="939.78" y1="274.53" x2="1033.14" y2="748.99" xlink:href="#linear-gradient-11"/><linearGradient id="linear-gradient-13" x1="693.2" y1="311.61" x2="786.43" y2="785.42" xlink:href="#linear-gradient-11"/><linearGradient id="linear-gradient-14" x1="609.42" y1="319.01" x2="705.91" y2="809.39" xlink:href="#linear-gradient-11"/><linearGradient id="linear-gradient-15" x1="958.65" y1="273.92" x2="1050.8" y2="742.26" xlink:href="#linear-gradient-11"/><linearGradient id="linear-gradient-16" x1="904.97" y1="285.67" x2="996.61" y2="751.37" xlink:href="#linear-gradient-11"/><linearGradient id="linear-gradient-17" x1="969.82" y1="272.71" x2="1062.13" y2="741.84" xlink:href="#linear-gradient-11"/><linearGradient id="linear-gradient-18" x1="708.57" y1="306.38" x2="803.71" y2="789.9" xlink:href="#linear-gradient-11"/><linearGradient id="linear-gradient-19" x1="813.55" y1="301.07" x2="905.61" y2="768.95" xlink:href="#linear-gradient-11"/><linearGradient id="linear-gradient-20" x1="782.18" y1="297.99" x2="874.12" y2="765.23" xlink:href="#linear-gradient-11"/><linearGradient id="linear-gradient-21" x1="631.71" y1="316.91" x2="728.1" y2="806.78" xlink:href="#linear-gradient-11"/><linearGradient id="linear-gradient-22" x1="874.66" y1="280.12" x2="971.95" y2="774.51" xlink:href="#linear-gradient-11"/><linearGradient id="linear-gradient-23" x1="575.72" y1="607.5" x2="540.25" y2="813.69" xlink:href="#linear-gradient-11"/><linearGradient id="linear-gradient-24" x1="1478.08" y1="1299.32" x2="1478.08" y2="1426.49" gradientUnits="userSpaceOnUse"><stop offset="0.49" stop-color="#ebeff2"/><stop offset="1" stop-color="#fff"/></linearGradient><linearGradient id="linear-gradient-25" x1="1129.5" y1="378.46" x2="1670.13" y2="1370.03" gradientUnits="userSpaceOnUse"><stop offset="0" stop-color="#444b8c"/><stop offset="1" stop-color="#26264f"/></linearGradient><linearGradient id="linear-gradient-26" x1="1417.8" y1="469.06" x2="1514.85" y2="1060.57" gradientTransform="matrix(1, 0, 0, 1, 0, 0)" xlink:href="#linear-gradient-7"/><linearGradient id="linear-gradient-27" x1="1367.32" y1="641.42" x2="1594.87" y2="641.42" xlink:href="#linear-gradient"/><linearGradient id="linear-gradient-28" x1="1367.32" y1="663.83" x2="1594.87" y2="663.83" xlink:href="#linear-gradient"/><linearGradient id="linear-gradient-29" x1="1327.34" y1="730.06" x2="1489.02" y2="730.06" xlink:href="#linear-gradient"/><linearGradient id="linear-gradient-30" x1="1419.87" y1="469.41" x2="1508.67" y2="1010.64" gradientTransform="matrix(1, 0, 0, 1, 0, 0)" xlink:href="#linear-gradient-7"/><linearGradient id="linear-gradient-31" x1="1274.47" y1="592.71" x2="1436.05" y2="592.71" xlink:href="#linear-gradient"/><linearGradient id="linear-gradient-32" x1="1367.32" y1="1089.77" x2="1594.87" y2="1089.77" xlink:href="#linear-gradient"/><linearGradient id="linear-gradient-33" x1="1367.32" y1="1112.18" x2="1594.87" y2="1112.18" xlink:href="#linear-gradient"/><linearGradient id="linear-gradient-34" x1="1471.27" y1="1130.73" x2="1692.93" y2="1130.73" xlink:href="#linear-gradient"/><linearGradient id="linear-gradient-35" x1="1488.87" y1="584.58" x2="1558.23" y2="1007.34" gradientTransform="matrix(1, 0, 0, 1, 0, 0)" xlink:href="#linear-gradient-7"/><linearGradient id="linear-gradient-36" x1="1274.47" y1="1048.26" x2="1436.05" y2="1048.26" xlink:href="#linear-gradient"/><linearGradient id="linear-gradient-37" x1="1327.34" y1="820.57" x2="1557.18" y2="820.57" xlink:href="#linear-gradient"/><linearGradient id="linear-gradient-38" x1="1367.32" y1="865.71" x2="1594.87" y2="865.71" xlink:href="#linear-gradient"/><linearGradient id="linear-gradient-39" x1="1367.32" y1="888.12" x2="1594.87" y2="888.12" xlink:href="#linear-gradient"/><linearGradient id="linear-gradient-40" x1="1274.88" y1="911.71" x2="1420.7" y2="911.71" xlink:href="#linear-gradient"/><linearGradient id="linear-gradient-41" x1="1396.3" y1="505.24" x2="1476.9" y2="996.54" gradientTransform="matrix(1, 0, 0, 1, 0, 0)" xlink:href="#linear-gradient-7"/><linearGradient id="linear-gradient-42" x1="1367.32" y1="977.93" x2="1573.02" y2="977.93" xlink:href="#linear-gradient"/><linearGradient id="linear-gradient-43" x1="1415.4" y1="999.39" x2="1618.62" y2="999.39" xlink:href="#linear-gradient"/><linearGradient id="linear-gradient-44" x1="1415.4" y1="1021.69" x2="1618.62" y2="1021.69" xlink:href="#linear-gradient"/><linearGradient id="linear-gradient-45" x1="1303.79" y1="484.08" x2="1393.12" y2="1028.54" gradientTransform="matrix(1, 0, 0, 1, 0, 0)" xlink:href="#linear-gradient-7"/><linearGradient id="linear-gradient-46" x1="1484.44" y1="548.57" x2="1997.46" y2="1489.52" xlink:href="#linear-gradient-11"/><linearGradient id="linear-gradient-47" x1="1404.51" y1="900.28" x2="1999.41" y2="900.28" xlink:href="#linear-gradient-11"/><linearGradient id="linear-gradient-48" x1="1525.69" y1="833.24" x2="1646.42" y2="1138.39" xlink:href="#linear-gradient"/><linearGradient id="linear-gradient-49" x1="1849.86" y1="898.4" x2="1576.87" y2="1325.63" xlink:href="#linear-gradient-2"/><linearGradient id="linear-gradient-50" x1="1835.37" y1="1110.5" x2="1692.57" y2="1333.98" xlink:href="#linear-gradient-25"/><linearGradient id="linear-gradient-51" x1="1852.78" y1="899.42" x2="1677.47" y2="1236.82" xlink:href="#linear-gradient-25"/><linearGradient id="linear-gradient-52" x1="1691.22" y1="1031.86" x2="1686.82" y2="1463.21" xlink:href="#linear-gradient-2"/><linearGradient id="linear-gradient-53" x1="1797.7" y1="980.03" x2="1592.32" y2="1301.45" xlink:href="#linear-gradient-2"/><linearGradient id="linear-gradient-54" x1="898.94" y1="764.86" x2="1178.3" y2="764.86" xlink:href="#linear-gradient-11"/><linearGradient id="linear-gradient-55" x1="1056.01" y1="697" x2="989.8" y2="902.99" xlink:href="#linear-gradient"/><linearGradient id="linear-gradient-56" x1="1072.39" y1="700.96" x2="1005.1" y2="910.3" xlink:href="#linear-gradient"/><linearGradient id="linear-gradient-57" x1="1100.59" y1="708.81" x2="1032.53" y2="920.56" xlink:href="#linear-gradient"/><linearGradient id="linear-gradient-58" x1="1118.71" y1="713.61" x2="1049.57" y2="928.73" xlink:href="#linear-gradient"/><linearGradient id="linear-gradient-59" x1="1148.88" y1="722.01" x2="1078.97" y2="939.49" xlink:href="#linear-gradient"/><linearGradient id="linear-gradient-60" x1="-1236.92" y1="802.35" x2="-1205.8" y2="841.51" gradientTransform="matrix(-1, 0, 0, 1, -223.98, 0)" xlink:href="#linear-gradient-11"/><linearGradient id="linear-gradient-61" x1="-1100.54" y1="863.43" x2="-1079.35" y2="778.65" gradientTransform="matrix(-1, 0, 0, 1, -223.98, 0)" xlink:href="#linear-gradient-11"/><linearGradient id="linear-gradient-62" x1="-1205.58" y1="840.03" x2="-1195.52" y2="848.98" gradientTransform="matrix(-0.99, -0.14, -0.14, 0.99, -219.83, 59.22)" xlink:href="#linear-gradient-25"/><linearGradient id="linear-gradient-63" x1="-2121.16" y1="848.97" x2="-2121.16" y2="831.46" gradientTransform="matrix(-0.99, -0.14, -0.14, 0.99, -1136.03, -70.29)" xlink:href="#linear-gradient-11"/><linearGradient id="linear-gradient-64" x1="-1204.57" y1="838.9" x2="-1194.51" y2="847.84" gradientTransform="matrix(-0.99, -0.14, -0.14, 0.99, -219.83, 59.22)" xlink:href="#linear-gradient-25"/><linearGradient id="linear-gradient-65" x1="-1151.47" y1="1065.37" x2="-1141.41" y2="1074.31" gradientTransform="matrix(-1, 0, 0, 1, -223.98, 0)" xlink:href="#linear-gradient-25"/><linearGradient id="linear-gradient-66" x1="-2067.09" y1="1074.33" x2="-2067.09" y2="1056.81" gradientTransform="matrix(-1, 0, 0, 1, -1149.29, 0)" xlink:href="#linear-gradient-11"/><linearGradient id="linear-gradient-67" x1="961" y1="981.68" x2="830.07" y2="949.37" xlink:href="#linear-gradient"/><linearGradient id="linear-gradient-68" x1="-1054.11" y1="877.61" x2="-1194.84" y2="779.74" gradientTransform="matrix(-1, 0, 0, 1, -223.98, 0)" xlink:href="#linear-gradient-11"/><linearGradient id="linear-gradient-69" x1="-1150.46" y1="1064.23" x2="-1140.4" y2="1073.17" gradientTransform="matrix(-1, 0, 0, 1, -223.98, 0)" xlink:href="#linear-gradient-25"/><linearGradient id="linear-gradient-70" x1="891.58" y1="779.38" x2="912.49" y2="738.55" xlink:href="#linear-gradient-11"/><linearGradient id="linear-gradient-71" x1="-1139.28" y1="744.55" x2="-1084.84" y2="813.05" gradientTransform="matrix(-1, 0, 0, 1, -223.98, 0)" xlink:href="#linear-gradient-11"/><linearGradient id="linear-gradient-72" x1="-1055.58" y1="894.21" x2="-1214.01" y2="784.03" gradientTransform="matrix(-1, 0, 0, 1, -223.98, 0)" xlink:href="#linear-gradient-11"/><linearGradient id="linear-gradient-73" x1="-1624.28" y1="1796.76" x2="-1619.7" y2="1855.03" gradientTransform="matrix(-1, 0.09, 0.09, 1, -914.4, -64.35)" gradientUnits="userSpaceOnUse"><stop offset="0" stop-color="#311944"/><stop offset="1" stop-color="#a03976"/></linearGradient><linearGradient id="linear-gradient-74" x1="-1612.46" y1="1829.2" x2="-1613.29" y2="1768.84" gradientTransform="matrix(-1, 0.09, 0.09, 1, -914.4, -64.35)" xlink:href="#linear-gradient-11"/><linearGradient id="linear-gradient-75" x1="-1537.75" y1="1789.95" x2="-1533.17" y2="1848.23" xlink:href="#linear-gradient-73"/><linearGradient id="linear-gradient-76" x1="-1533.16" y1="1828.1" x2="-1533.99" y2="1767.74" gradientTransform="matrix(-1, 0.09, 0.09, 1, -914.4, -64.35)" xlink:href="#linear-gradient-11"/><linearGradient id="linear-gradient-77" x1="-1626.87" y1="1731.42" x2="-1582.25" y2="1731.42" gradientTransform="matrix(-1, 0.09, 0.09, 1, -914.4, -64.35)" xlink:href="#linear-gradient-2"/><linearGradient id="linear-gradient-78" x1="-1626.87" y1="1731.43" x2="-1582.25" y2="1731.43" gradientTransform="matrix(-1, 0.09, 0.09, 1, -914.4, -64.35)" xlink:href="#linear-gradient-2"/><linearGradient id="linear-gradient-79" x1="-1614.48" y1="1727.02" x2="-1524.64" y2="1727.02" gradientTransform="matrix(-1, 0.09, 0.09, 1, -914.4, -64.35)" xlink:href="#linear-gradient-2"/><linearGradient id="linear-gradient-80" x1="824.3" y1="1339.94" x2="769.65" y2="1490.93" xlink:href="#linear-gradient-11"/><linearGradient id="linear-gradient-81" x1="758.61" y1="1316.16" x2="703.96" y2="1467.16" xlink:href="#linear-gradient-11"/><linearGradient id="linear-gradient-82" x1="2291.8" y1="2014.57" x2="2291.8" y2="1978.51" gradientTransform="matrix(-0.81, 0.59, 0.59, 0.81, 1438.68, -1633.74)" xlink:href="#linear-gradient-11"/><linearGradient id="linear-gradient-83" x1="-467.61" y1="2431.73" x2="-482.92" y2="2392.84" gradientTransform="matrix(-0.99, 0.14, 0.14, 0.99, -23.31, -1008.32)" gradientUnits="userSpaceOnUse"><stop offset="0" stop-color="#444b8c"/><stop offset="1" stop-color="#3e4177"/></linearGradient><linearGradient id="linear-gradient-84" x1="2266.31" y1="2004.18" x2="2283.17" y2="1971.4" gradientTransform="matrix(-0.81, 0.59, 0.59, 0.81, 1438.68, -1633.74)" xlink:href="#linear-gradient-11"/><linearGradient id="linear-gradient-85" x1="-1085.74" y1="2117.07" x2="-954.08" y2="2117.07" gradientTransform="translate(937.92 -917.31) rotate(-21.67)" xlink:href="#linear-gradient-11"/><linearGradient id="linear-gradient-86" x1="-958.21" y1="2121.61" x2="-897.47" y2="2121.61" gradientTransform="translate(937.92 -917.31) rotate(-21.67)" xlink:href="#linear-gradient-11"/><linearGradient id="linear-gradient-87" x1="-2930.44" y1="2104.39" x2="-2926.84" y2="2084.03" gradientTransform="matrix(0.81, -0.59, 0.59, 0.81, 1874.72, -1954.43)" xlink:href="#linear-gradient-11"/><linearGradient id="linear-gradient-88" x1="900.17" y1="1367.75" x2="897.92" y2="1468.04" xlink:href="#linear-gradient-11"/><linearGradient id="linear-gradient-89" x1="1140.84" y1="1280.83" x2="1067.44" y2="1647.83" xlink:href="#linear-gradient-2"/><linearGradient id="linear-gradient-90" x1="995.59" y1="1292.82" x2="1258.31" y2="1292.82" gradientUnits="userSpaceOnUse"><stop offset="0" stop-color="#d8dee8"/><stop offset="0.49" stop-color="#ebeff2"/><stop offset="1" stop-color="#fff"/></linearGradient><linearGradient id="linear-gradient-91" x1="1006.46" y1="1222.79" x2="1064.72" y2="1222.79" gradientUnits="userSpaceOnUse"><stop offset="0" stop-color="#311944"/><stop offset="1" stop-color="#893976"/></linearGradient><linearGradient id="linear-gradient-92" x1="1248.48" y1="1187.88" x2="1193.99" y2="1208.46" xlink:href="#linear-gradient-91"/><linearGradient id="linear-gradient-93" x1="996.19" y1="1295.29" x2="1048.66" y2="1269.99" xlink:href="#linear-gradient-91"/><linearGradient id="linear-gradient-94" x1="1033.29" y1="1371.95" x2="1061.01" y2="1320.72" xlink:href="#linear-gradient-91"/><linearGradient id="linear-gradient-95" x1="1705.43" y1="2075.08" x2="1655.14" y2="2045.68" gradientTransform="matrix(0.85, -0.53, 0.53, 0.85, -1275.39, 377.16)" xlink:href="#linear-gradient-91"/><linearGradient id="linear-gradient-96" x1="1244.13" y1="1347.7" x2="1200.85" y2="1308.7" xlink:href="#linear-gradient-91"/><linearGradient id="linear-gradient-97" x1="1132.45" y1="1204.13" x2="1130.73" y2="1375.55" xlink:href="#linear-gradient-91"/><linearGradient id="linear-gradient-98" x1="1159.56" y1="1085.99" x2="1145.77" y2="1151.46" xlink:href="#linear-gradient-11"/><linearGradient id="linear-gradient-99" x1="1118.58" y1="1276.59" x2="1215.06" y2="1321.38" xlink:href="#linear-gradient-11"/><linearGradient id="linear-gradient-100" x1="1083.99" y1="1203.64" x2="1082.27" y2="1375.07" xlink:href="#linear-gradient-11"/><linearGradient id="linear-gradient-101" x1="1195.89" y1="1189.59" x2="1199.27" y2="883.67" xlink:href="#linear-gradient-11"/><linearGradient id="linear-gradient-102" x1="1062.11" y1="1188.11" x2="1065.49" y2="882.19" xlink:href="#linear-gradient-11"/><linearGradient id="linear-gradient-103" x1="995.59" y1="1293.17" x2="1258.31" y2="1293.17" xlink:href="#linear-gradient-90"/><linearGradient id="linear-gradient-104" x1="1429.3" y1="1241.11" x2="1431.8" y2="1275.58" gradientTransform="matrix(1, -0.01, 0.01, 1, -37.07, -9.67)" xlink:href="#linear-gradient-91"/><linearGradient id="linear-gradient-105" x1="1428.29" y1="1169.67" x2="1431.44" y2="1212.99" xlink:href="#linear-gradient-91"/><linearGradient id="linear-gradient-106" x1="1615.11" y1="1500.69" x2="1623.88" y2="1555.99" xlink:href="#linear-gradient-91"/><linearGradient id="linear-gradient-107" x1="1558.81" y1="1424.54" x2="1634.42" y2="1424.54" xlink:href="#linear-gradient-25"/><linearGradient id="linear-gradient-108" x1="1558.81" y1="1424.54" x2="1627.24" y2="1424.54" xlink:href="#linear-gradient-25"/><linearGradient id="linear-gradient-109" x1="1583.93" y1="1500.75" x2="1594.38" y2="1566.63" xlink:href="#linear-gradient-91"/><linearGradient id="linear-gradient-110" x1="1534.77" y1="1425.37" x2="1599.59" y2="1425.37" xlink:href="#linear-gradient-25"/><linearGradient id="linear-gradient-111" x1="2277.52" y1="2121.64" x2="2292.29" y2="2324.87" gradientTransform="matrix(0.95, -0.31, 0.31, 0.95, -1333.76, -116.48)" xlink:href="#linear-gradient-2"/><linearGradient id="linear-gradient-112" x1="1510.49" y1="1200.27" x2="1525.26" y2="1403.49" xlink:href="#linear-gradient-2"/><linearGradient id="linear-gradient-113" x1="1504.03" y1="1244.91" x2="1507.2" y2="1269.79" xlink:href="#linear-gradient-91"/><linearGradient id="linear-gradient-114" x1="-695.21" y1="1240.73" x2="-697.86" y2="1209" gradientTransform="matrix(-1, 0, 0, 1, 804.45, 0)" gradientUnits="userSpaceOnUse"><stop offset="0" stop-color="#26264f"/><stop offset="1" stop-color="#444b8c"/></linearGradient><linearGradient id="linear-gradient-115" x1="-711.66" y1="1220.12" x2="-687.2" y2="1245.9" gradientTransform="matrix(-1, 0, 0, 1, 804.45, 0)" xlink:href="#linear-gradient-91"/><linearGradient id="linear-gradient-116" x1="1415.52" y1="1321.58" x2="1623.28" y2="1321.58" xlink:href="#linear-gradient-2"/><linearGradient id="linear-gradient-117" x1="1974.09" y1="1224.76" x2="1992.52" y2="1224.76" xlink:href="#linear-gradient-11"/><linearGradient id="linear-gradient-118" x1="2032.36" y1="1190.06" x2="2038.07" y2="1294.91" xlink:href="#linear-gradient-11"/><linearGradient id="linear-gradient-119" x1="1387.63" y1="1012.51" x2="1985.23" y2="1012.51" xlink:href="#linear-gradient-25"/><linearGradient id="linear-gradient-120" x1="1948.17" y1="1562.71" x2="1953.88" y2="1523.12" xlink:href="#linear-gradient-25"/><linearGradient id="linear-gradient-121" x1="1961.85" y1="1540.87" x2="1983.78" y2="1441.9" xlink:href="#linear-gradient-11"/><linearGradient id="linear-gradient-122" x1="2069.31" y1="1449.43" x2="1959.1" y2="1478.32" xlink:href="#linear-gradient-25"/><linearGradient id="linear-gradient-123" x1="2068.37" y1="1445.87" x2="1958.17" y2="1474.76" xlink:href="#linear-gradient-25"/><linearGradient id="linear-gradient-124" x1="1968.98" y1="1229.1" x2="1978.61" y2="1229.1" xlink:href="#linear-gradient-11"/><linearGradient id="linear-gradient-125" x1="1883.46" y1="1553.38" x2="1889.16" y2="1513.79" xlink:href="#linear-gradient-25"/><linearGradient id="linear-gradient-126" x1="1898.92" y1="1526.93" x2="1920.86" y2="1427.96" xlink:href="#linear-gradient-11"/><linearGradient id="linear-gradient-127" x1="2011.28" y1="1465.28" x2="1897.86" y2="1449.59" xlink:href="#linear-gradient-25"/><linearGradient id="linear-gradient-128" x1="-433.66" y1="866.7" x2="-454.52" y2="900.44" gradientTransform="matrix(-0.93, -0.37, -0.37, 0.93, 1982.42, 310.05)" xlink:href="#linear-gradient-11"/><linearGradient id="linear-gradient-129" x1="2070.59" y1="1338.54" x2="2263.31" y2="1338.54" xlink:href="#linear-gradient-91"/><linearGradient id="linear-gradient-130" x1="2061.55" y1="1296.84" x2="2038.01" y2="1435.22" xlink:href="#linear-gradient-11"/><linearGradient id="linear-gradient-131" x1="1979.81" y1="1357.89" x2="2132.27" y2="1357.89" xlink:href="#linear-gradient"/><linearGradient id="linear-gradient-132" x1="1573.27" y1="670.76" x2="1690.35" y2="670.76" xlink:href="#linear-gradient-25"/></defs><title>Vector</title><g class="cls-1"><g id="Illustration"><path class="cls-2" d="M1328.56,1382.74c-147.45,4.71-253.23,17.32-388.16,33.76-113.77,13.85-514.3,62.64-512.62,105.47,1.39,35.79,282.8,46.22,282.68,84.39-.07,20.18-78.76,28.23-78.06,42.19,1.17,23.28,222.34,45.75,495.75,31.64,269.68-13.91,320.66-49.51,632.87-86.49,402.7-47.7,608.68-22.92,611.78-54.85,3.92-40.33-321.44-112.88-590.68-141.34C1738.58,1392.91,1562.42,1375.28,1328.56,1382.74Z"/><path class="cls-3" d="M1339.11,1403.84c-32.77,4.73-82.38,14.15-164.55,22.15-36.08,3.51-120.64,10.86-208.84,19-62.36,5.75-96.92,9.15-97,14.77-.22,9.65,101.39,15.48,101.26,23.21-.28,15.47-408.4,2.45-412.43,41.13-2,19.11,94.94,47.36,171.93,60.13,120.09,19.91,212.53,5.59,362.85-19,281-46,272.79-46.85,342.81-57,290.2-41.89,429.19-26.22,430.35-44.3C1867.16,1437.31,1567.15,1370.94,1339.11,1403.84Z"/><path class="cls-3" d="M916.14,1608.47c-6.53-24.9-174.71-15.57-178.26,9.49-2,14.24,48,41.4,98.1,35.86C877.72,1649.2,919.65,1621.82,916.14,1608.47Z"/><path class="cls-3" d="M1668.2,1530.41c-61.24-17.74-135.62-1.19-136.06,14.77-.39,14,56.12,30.9,105.47,26.37,27.09-2.49,62.2-12.37,62.24-23.21C1699.88,1539.59,1677,1533,1668.2,1530.41Z"/><path class="cls-3" d="M1943.5,1516.7c-65-5.26-135.22,9.86-135,22.15.22,12.57,74.14,23.81,138.18,19,28.77-2.17,76.79-9.18,77-19C2023.87,1529.31,1978.75,1519.55,1943.5,1516.7Z"/><polygon class="cls-4" points="1889.74 1244.35 477.68 1329.56 613.3 1116.3 1973.26 1078.01 1889.74 1244.35"/><polygon class="cls-5" points="1385 1030.14 368.71 1047.69 513.09 833.67 1489.33 848.23 1385 1030.14"/><polygon class="cls-6" points="2454.55 834.43 1317.08 810.54 1423.89 630.57 2523.63 689.08 2454.55 834.43"/><polygon class="cls-7" points="2324.15 634.98 1490.41 583.01 1564.65 457.05 2378.02 526.99 2324.15 634.98"/><polygon class="cls-8" points="2315.55 1022.6 1422.06 1038.81 1502.4 897.54 2372.63 903.58 2315.55 1022.6"/><polygon class="cls-9" points="2456.64 1111.97 2086.99 1134.62 2117.43 1073.44 2482.81 1055.36 2456.64 1111.97"/><path class="cls-10" d="M2012,1435.91c-20-6.91-53.54-18.54-77-50.76-42.71-58.6-24.33-147.24,9.22-202.81,28.82-47.72,79.93-77.51,182.14-137.07,96.27-56.1,128.62-61.75,138-97.87,13.4-51.5-38.8-92.12-14.16-149.85,3-6.93,13.11-30.72,35.51-39,38.35-14.14,85.66,27.18,107.4,57.16,21,28.92,42.77,81.23,23.39,122.13-14,29.63-37.77,28.1-43.83,55.61-6.11,27.68,16.07,37.58,24.77,83.84,3.48,18.48,10.47,55.57-6.93,86.61-22.48,40.14-65.37,33.82-74.48,67.56-6.59,24.38,13.65,35.64,12.12,64.1-2,37.45-39.51,63.56-71,84.88C2220.06,1405.56,2120,1473.27,2012,1435.91Z"/><path class="cls-11" d="M2299.6,775c-20.64,14.12,38.2,78.18,20.79,162-18.74,90.16-114.33,148.16-158.51,175-75.37,45.74-107.22,35.67-155.9,87.48-19.27,20.51-59.41,63.24-55.44,123,.37,5.55,5.42,67.39,52.84,97,53.79,33.6,121.2.2,179.29-28.58,35.1-17.39,105.22-52.13,100.47-90.94-2.9-23.73-33.1-43.52-58-49.37-35.57-8.36-65.26,10.55-68.42,4.33-2.86-5.6,18.48-26.33,47.63-41.58,58.32-30.5,88.3-7.91,131.66-36.38,5.25-3.45,46.49-31.39,47.64-74.49.66-24.85-12-55.4-32-60.62-22.67-5.92-45,23.1-50.24,18.18-5-4.7,12.37-34.09,33.78-60.63,31.47-39,45.43-39.34,57.17-64.09,17.9-37.77,4.59-77.47,2.6-83.15C2376.18,798.89,2317.25,763,2299.6,775Z"/><path class="cls-12" d="M2024.83,1452.18c-10.49,12.21-89.6-.9-133.83-42.42-8.86-8.33-24.86-23.34-28.4-45.14-4.33-26.61,14.8-33.14,12.46-61.61-2.14-26.12-18.72-26.44-22.32-58.69-1.34-12.09-4.08-36.63,14.63-49.37,10.86-7.39,19.65-4.47,24.76-11.26,9.14-12.14-16.46-24.89-16.87-50.3-.22-13.76,7.39-24,22.62-44.52,13.86-18.67,21.67-29.2,35.88-31.64,20.84-3.57,32.08,14.26,46.13,10.4,22.73-6.24,2.42-55.39,35.69-77.9,21.21-14.35,53.14-10.39,58.83-9.58,61.35,8.66,114.32,78.92,95.65,127.32-14.73,38.16-68.55,48.63-66.39,87.48.75,13.49,7.67,20,4.5,37.25-4.09,22.19-20.5,37.78-29.26,45.9-33.19,30.79-63.46,28.85-68.64,49.37-3.26,12.94,8.33,15.43,7.07,36.31-1.16,19.08-11.16,22.36-12.69,38.18C2001.89,1430.43,2031.94,1443.89,2024.83,1452.18Z"/><path class="cls-11" d="M2115.39,1011.87c21.79,6,35.94,33.27,39,53.7,4.35,29.23-11.43,62.06-36.38,78-38.8,24.72-81.86-2.94-98.74,20.79-8.9,12.51-6.78,34.08,3.47,44.17,18,17.75,55.72-5.36,65.82,8.66,7.23,10-2.52,35.09-19.92,49.37-34.77,28.55-89.36,5.24-96.14,22.52-1.6,4.08,5,16.58,18.19,41.58,10,18.88,12.08,20.77,12.13,26.85.14,18.39-19,22.66-20.79,40.71-2,20.82,21.54,35.48,18.19,39.84-3.52,4.57-33.7-6-52.84-25.12-45.36-45.34-24-134.13-16.45-165.43C1961.27,1121.29,2059.87,996.56,2115.39,1011.87Z"/><path class="cls-13" d="M749.3,794.25l-8.61-.07a67.41,67.41,0,0,0-3-11.34l7.47-4.23a4.23,4.23,0,0,0,1.56-5.8L739.31,760a4.3,4.3,0,0,0-5.83-1.64l-7.57,4.26a69.72,69.72,0,0,0-8.31-8.35l4.39-7.51a4.31,4.31,0,0,0-1.57-5.86l-12.85-7.59a4.29,4.29,0,0,0-5.89,1.48l-4.42,7.53a68.83,68.83,0,0,0-11.4-3.17V730.3a4.4,4.4,0,0,0-4.33-4.36l-15-.25a4.24,4.24,0,0,0-4.36,4.23v8.85a68.78,68.78,0,0,0-11.5,2.84l-4.48-7.72a4.44,4.44,0,0,0-6-1.67l-13.12,7.25a4.25,4.25,0,0,0-1.6,5.89l4.49,7.72a67.61,67.61,0,0,0-8.51,8.24l-7.78-4.52a4.43,4.43,0,0,0-6,1.51l-7.62,12.87a4.32,4.32,0,0,0,1.61,6l7.73,4.45a66.73,66.73,0,0,0-3.14,11.47l-8.93-.07a4.33,4.33,0,0,0-4.42,4.3v15a4.42,4.42,0,0,0,4.42,4.37l8.86.05a67.07,67.07,0,0,0,3.1,11.57l-7.62,4.29a4.28,4.28,0,0,0-1.61,5.92l7.62,13a4.46,4.46,0,0,0,6,1.59l7.55-4.28a69.59,69.59,0,0,0,8.59,8.49l-4.34,7.4a4.27,4.27,0,0,0,1.6,5.9L640.23,878a4.41,4.41,0,0,0,6-1.59l4.29-7.34a68.32,68.32,0,0,0,11.69,3.07v8.46a4.31,4.31,0,0,0,4.36,4.29l15,0a4.33,4.33,0,0,0,4.33-4.31v-8.44A68.83,68.83,0,0,0,697.45,869l4.23,7.27a4.33,4.33,0,0,0,5.89,1.56l12.85-7.41A4.27,4.27,0,0,0,722,864.6l-4.24-7.32a68.22,68.22,0,0,0,8.38-8.36l7.35,4.24a4.27,4.27,0,0,0,5.83-1.56l7.37-12.73a4.26,4.26,0,0,0-1.56-5.82l-7.36-4.27a67.29,67.29,0,0,0,3-11.36l8.54.05a4.23,4.23,0,0,0,4.26-4.23v-14.7A4.3,4.3,0,0,0,749.3,794.25ZM674,762.13c24.13.3,43.59,19.86,43.59,43.7A43.26,43.26,0,0,1,674,848.93c-24.28,0-44.08-19.6-44.08-43.7A43.26,43.26,0,0,1,674,762.13Z"/><path class="cls-14" d="M961.94,523.7l-13.58-.37a101.69,101.69,0,0,0-4.8-17.5l11.79-6.26a6.33,6.33,0,0,0,2.46-8.86l-11.62-19.94a7,7,0,0,0-9.21-2.71l-12,6.29a112.29,112.29,0,0,0-13.13-13.13l6.94-11.4a6.6,6.6,0,0,0-2.48-9.06L896,428.62a6.81,6.81,0,0,0-9.32,2.06l-7,11.44a115.14,115.14,0,0,0-18.11-5.3v-13.6a7.09,7.09,0,0,0-6.88-6.89l-23.86-1a6.48,6.48,0,0,0-6.93,6.37v13.67a109.94,109.94,0,0,0-18.36,4l-7.14-12.1a7.36,7.36,0,0,0-9.55-2.81l-21,10.74a6.37,6.37,0,0,0-2.57,9.05l7.19,12.11a103.92,103.92,0,0,0-13.63,12.45l-12.48-7.26a7.16,7.16,0,0,0-9.67,2.12l-12.25,19.7a6.65,6.65,0,0,0,2.6,9.27l12.41,7.16a98.59,98.59,0,0,0-5,17.66l-14.35-.39a6.71,6.71,0,0,0-7.12,6.54v23.25a7.13,7.13,0,0,0,7.12,6.9l14.23.33a102,102,0,0,0,5,18L727,578.56a6.44,6.44,0,0,0-2.6,9.13L736.69,608a7.36,7.36,0,0,0,9.67,2.62l12.12-6.44a111.17,111.17,0,0,0,13.75,13.34l-7,11.35a6.57,6.57,0,0,0,2.57,9.18l21,11.79a7.14,7.14,0,0,0,9.55-2.32l6.84-11.24a112.9,112.9,0,0,0,18.66,5v13.07a6.88,6.88,0,0,0,6.93,6.72l23.86.25a6.67,6.67,0,0,0,6.88-6.55v-13a107.94,107.94,0,0,0,18.4-4.48l6.72,11.3A7,7,0,0,0,896,651.1L916.35,640a6.41,6.41,0,0,0,2.48-8.94l-6.71-11.36A102.42,102.42,0,0,0,925.37,607l11.61,6.7a6.79,6.79,0,0,0,9.21-2.25l11.62-19.36a6.53,6.53,0,0,0-2.46-9l-11.61-6.75A97.94,97.94,0,0,0,948.47,559l13.47.31a6.45,6.45,0,0,0,6.71-6.38V530.42A6.86,6.86,0,0,0,961.94,523.7ZM842.77,471.87c38.34,1.28,69.17,32,69.17,68.69s-30.83,65.86-69.17,65.2c-38.71-.66-70.36-31.43-70.36-68.71S804.06,470.58,842.77,471.87Z"/><path class="cls-15" d="M842.77,335.66c-118.42-5.88-216.93,82.42-216.93,197.39s98.51,208.24,216.93,208.32c115.12.08,206.12-88.41,206.12-197.66S957.89,341.39,842.77,335.66Zm0,357.2c-89.79-.58-164-71.54-164-158.48s74.24-154.15,164-150.21c87.88,3.86,157.77,74.71,157.77,158.32S930.65,693.44,842.77,692.86Z"/><path class="cls-16" d="M698.91,609.79l-45.56,24.07a215.78,215.78,0,0,0,73.56,74.82l26-42.43A164,164,0,0,1,698.91,609.79Z"/><path class="cls-17" d="M972.52,454.79l42.35-22.31a216.76,216.76,0,0,0-68.1-65.05L922,407.94A165.15,165.15,0,0,1,972.52,454.79Z"/><path class="cls-18" d="M708.81,445.33a153.89,153.89,0,0,1,53.15-44l-25.88-43.66a202.3,202.3,0,0,0-72.89,61.17Z"/><path class="cls-19" d="M678.74,534.38c0-1.86.08-3.69.15-5.54l-53-1.37c0,1.86-.08,3.72-.08,5.58a198.82,198.82,0,0,0,22.86,92.4l45.76-24.12A151,151,0,0,1,678.74,534.38Z"/><path class="cls-20" d="M1000.54,542.49a146.16,146.16,0,0,1-14.6,63.89l42.2,24.52a192.06,192.06,0,0,0,20.75-87.19c0-1.77,0-3.54-.08-5.3l-48.41-1.25C1000.46,538.93,1000.54,540.71,1000.54,542.49Z"/><path class="cls-21" d="M981.79,614.4a151.79,151.79,0,0,1-51,53.56l24.72,41.76a199.7,199.7,0,0,0,68.43-70.9Z"/><path class="cls-22" d="M977.64,462.54a152.56,152.56,0,0,1,22.18,65.58l48.54,1.31a200.1,200.1,0,0,0-28.55-89.17Z"/><path class="cls-23" d="M838,692.72a168.41,168.41,0,0,1-76.79-21.5l-25.87,42.36A221.43,221.43,0,0,0,838,741.31Z"/><path class="cls-24" d="M922.77,672.69a161.69,161.69,0,0,1-75.22,20.09v48.54a212.7,212.7,0,0,0,100-26.9Z"/><path class="cls-25" d="M770.56,397.28A163.18,163.18,0,0,1,838,384.08v-48.6a214.85,214.85,0,0,0-93.27,18.11Z"/><path class="cls-26" d="M679.51,519.48A145.77,145.77,0,0,1,703.35,453l-45.54-26.4a191.7,191.7,0,0,0-31.39,91.5Z"/><path class="cls-27" d="M847.55,384.5a168.29,168.29,0,0,1,66.19,18.78l24.82-40.58a221.49,221.49,0,0,0-91-26.74Z"/><path class="cls-28" d="M623.4,659.54l-6.63.05a47.85,47.85,0,0,0-2.33-8.36l5.74-3.24a3.1,3.1,0,0,0,1.2-4.32l-5.66-9.41a3.35,3.35,0,0,0-4.49-1.14l-5.81,3.26A51,51,0,0,0,599,630.3l3.37-5.62a3.09,3.09,0,0,0-1.21-4.32l-9.86-5.44a3.37,3.37,0,0,0-4.51,1.17l-3.39,5.64a54.51,54.51,0,0,0-8.74-2.19V613a3.23,3.23,0,0,0-3.31-3.17l-11.48,0a3.27,3.27,0,0,0-3.32,3.19v6.55a54.58,54.58,0,0,0-8.8,2.26l-3.42-5.65a3.42,3.42,0,0,0-4.56-1.15l-10,5.54a3.12,3.12,0,0,0-1.23,4.37l3.43,5.65a51.39,51.39,0,0,0-6.49,6.19l-5.94-3.23a3.47,3.47,0,0,0-4.59,1.19l-5.81,9.61a3.1,3.1,0,0,0,1.23,4.36l5.89,3.2a47.78,47.78,0,0,0-2.39,8.5l-6.8.06a3.32,3.32,0,0,0-3.38,3.23v11.06A3.25,3.25,0,0,0,507.1,678l6.74-.07a47.81,47.81,0,0,0,2.36,8.51l-5.8,3.25a3.14,3.14,0,0,0-1.23,4.39l5.81,9.5a3.44,3.44,0,0,0,4.59,1.11l5.76-3.25a50.35,50.35,0,0,0,6.55,6.17l-3.31,5.52a3.07,3.07,0,0,0,1.23,4.34l10,5.36a3.45,3.45,0,0,0,4.56-1.24l3.28-5.47a51.8,51.8,0,0,0,8.94,2.14v6.27a3.19,3.19,0,0,0,3.32,3.12l11.48-.18a3.31,3.31,0,0,0,3.31-3.23V718a54.25,54.25,0,0,0,8.88-2.4l3.25,5.34a3.35,3.35,0,0,0,4.51,1.09l9.86-5.62a3.13,3.13,0,0,0,1.21-4.35l-3.26-5.37a52.46,52.46,0,0,0,6.44-6.29l5.64,3.06a3.39,3.39,0,0,0,4.49-1.22l5.66-9.52a3.07,3.07,0,0,0-1.2-4.3l-5.66-3.09a48.14,48.14,0,0,0,2.31-8.45l6.57-.07a3.26,3.26,0,0,0,3.27-3.19v-10.9A3.19,3.19,0,0,0,623.4,659.54Zm-57.75-22.82c18.49-.1,33.42,14.14,33.42,31.8s-14.93,32.17-33.42,32.42S532,687,532,669.14,547.08,636.82,565.65,636.72Z"/><path class="cls-29" d="M1595,1420.52a54.09,54.09,0,0,1-35.88-40.73l-26.66-132-228.08,8.1-28.07,137.48c-3.94,19.25,11.8,38.57,29.93,45.66l95.42,37.34a124.16,124.16,0,0,0,55.79,8.09l201.67-17.26a12.51,12.51,0,0,0,11.31-11.08c.68-5.94,4.81-12.62-.81-14.49Z"/><path class="cls-30" d="M1597.29,1412.5a53.62,53.62,0,0,1-35.83-40.23L1534.82,1242l-222.52,8-28,135.74a39.73,39.73,0,0,0,24.57,45.08l95.33,36.87a125.23,125.23,0,0,0,55.73,8l201.47-17a12.43,12.43,0,0,0,2.82-24.2Z"/><path class="cls-29" d="M838.36,1335.53c-24.74,1.48-45-14.57-45-35.77V535.47c0-21.2,20.23-37.58,45-36.5L1987.17,578.5c18.16.78,27.9-13.88,27.9,4.16v650c0,18-14.7,33.58-32.86,34.66Z"/><path class="cls-31" d="M848.64,1335.53c-24.74,1.48-45-14.57-45-35.77V535.47c0-21.2,20.23-37.58,45-36.5l1143.85,49.56a34.56,34.56,0,0,1,32.86,34.13v650c0,18-14.7,33.58-32.86,34.66Z"/><path class="cls-32" d="M1992.49,563.83,848.64,516.77c-13.22-.54-24,8.19-24,19.52v762.32c0,11.32,10.76,19.88,24,19.12l1143.85-65.68a18.83,18.83,0,0,0,17.6-18.54V582.07A18.45,18.45,0,0,0,1992.49,563.83Z"/><path class="cls-33" d="M1984,1197,861,1252.48c-11.79.58-21.37-7.21-21.37-17.41V546.3c0-10.2,9.58-18.11,21.37-17.67l1123,41.68a16.66,16.66,0,0,1,15.94,16.5v593.54A16.9,16.9,0,0,1,1984,1197Z"/><polygon class="cls-34" points="1141.17 601.37 884.72 593.83 884.72 569.38 1141.17 577.67 1141.17 601.37"/><polygon class="cls-35" points="1261.95 598.16 1202.7 596.37 1202.7 579.66 1261.95 581.58 1261.95 598.16"/><polygon class="cls-35" points="1261.95 621.2 1202.7 619.58 1202.7 602.87 1261.95 604.62 1261.95 621.2"/><polygon class="cls-36" points="1557.18 629.28 1327.34 622.99 1327.34 606.54 1557.18 613.31 1557.18 629.28"/><polygon class="cls-37" points="1594.87 652.39 1367.32 646.82 1367.32 630.46 1594.87 636.5 1594.87 652.39"/><polygon class="cls-38" points="1594.87 674.47 1367.32 669.55 1367.32 653.19 1594.87 658.58 1594.87 674.47"/><polygon class="cls-34" points="1594.87 696.54 1367.32 692.29 1367.32 675.92 1594.87 680.65 1594.87 696.54"/><polygon class="cls-35" points="1261.95 644.24 1202.7 642.79 1202.7 626.08 1261.95 627.66 1261.95 644.24"/><polygon class="cls-35" points="1261.95 667.28 1202.7 666 1202.7 649.29 1261.95 650.7 1261.95 667.28"/><polygon class="cls-35" points="1261.95 690.32 1202.7 689.21 1202.7 672.5 1261.95 673.74 1261.95 690.32"/><polygon class="cls-35" points="1261.95 713.36 1202.7 712.42 1202.7 695.72 1261.95 696.77 1261.95 713.36"/><polygon class="cls-34" points="1420.7 715.87 1274.88 713.56 1274.88 697.01 1420.7 699.61 1420.7 715.87"/><polygon class="cls-35" points="1261.95 736.4 1202.7 735.63 1202.7 718.92 1261.95 719.81 1261.95 736.4"/><polygon class="cls-35" points="1261.95 759.43 1202.7 758.84 1202.7 742.14 1261.95 742.85 1261.95 759.43"/><polygon class="cls-35" points="1261.95 782.47 1202.7 782.05 1202.7 765.35 1261.95 765.89 1261.95 782.47"/><polygon class="cls-39" points="1489.02 739.33 1327.34 737.24 1327.34 720.79 1489.02 723.22 1489.02 739.33"/><polygon class="cls-34" points="1573.02 762.55 1367.32 760.49 1367.32 744.13 1573.02 746.62 1573.02 762.55"/><polygon class="cls-40" points="1573.02 784.69 1367.32 783.23 1367.32 766.86 1573.02 768.76 1573.02 784.69"/><polygon class="cls-35" points="1261.95 805.51 1202.7 805.26 1202.7 788.56 1261.95 788.93 1261.95 805.51"/><polygon class="cls-35" points="1261.95 828.55 1202.7 828.47 1202.7 811.77 1261.95 811.97 1261.95 828.55"/><polygon class="cls-35" points="1261.95 851.59 1202.7 851.68 1202.7 834.98 1261.95 835.01 1261.95 851.59"/><polygon class="cls-35" points="1261.95 874.63 1202.7 874.89 1202.7 858.19 1261.95 858.05 1261.95 874.63"/><polygon class="cls-35" points="1261.95 897.67 1202.7 898.1 1202.7 881.4 1261.95 881.09 1261.95 897.67"/><polygon class="cls-35" points="1261.95 920.71 1202.7 921.31 1202.7 904.61 1261.95 904.13 1261.95 920.71"/><polygon class="cls-35" points="1261.95 943.75 1202.7 944.52 1202.7 927.82 1261.95 927.17 1261.95 943.75"/><polygon class="cls-35" points="1261.95 966.79 1202.7 967.74 1202.7 951.03 1261.95 950.21 1261.95 966.79"/><polygon class="cls-35" points="1261.95 989.83 1202.7 990.95 1202.7 974.24 1261.95 973.25 1261.95 989.83"/><polygon class="cls-35" points="1261.95 1012.87 1202.7 1014.16 1202.7 997.45 1261.95 996.28 1261.95 1012.87"/><polygon class="cls-35" points="1261.95 1035.9 1202.7 1037.37 1202.7 1020.66 1261.95 1019.32 1261.95 1035.9"/><polygon class="cls-35" points="1261.95 1058.94 1202.7 1060.58 1202.7 1043.87 1261.95 1042.36 1261.95 1058.94"/><polygon class="cls-35" points="1261.95 1081.98 1202.7 1083.79 1202.7 1067.08 1261.95 1065.4 1261.95 1081.98"/><polygon class="cls-35" points="1261.95 1105.02 1202.7 1107 1202.7 1090.29 1261.95 1088.44 1261.95 1105.02"/><polygon class="cls-35" points="1261.95 1128.06 1202.7 1130.21 1202.7 1113.5 1261.95 1111.48 1261.95 1128.06"/><polygon class="cls-35" points="1261.95 1151.1 1202.7 1153.42 1202.7 1136.71 1261.95 1134.52 1261.95 1151.1"/><polygon class="cls-35" points="1261.95 1174.14 1202.7 1176.63 1202.7 1159.92 1261.95 1157.56 1261.95 1174.14"/><polygon class="cls-35" points="1261.95 1197.18 1202.7 1199.84 1202.7 1183.13 1261.95 1180.6 1261.95 1197.18"/><polygon class="cls-41" points="1436.05 603.43 1274.47 598.54 1274.47 581.98 1436.05 587.21 1436.05 603.43"/><polygon class="cls-34" points="1557.18 1072.99 1327.34 1079.99 1327.34 1063.55 1557.18 1057.03 1557.18 1072.99"/><polygon class="cls-42" points="1594.87 1093.92 1367.32 1101.51 1367.32 1085.15 1594.87 1078.03 1594.87 1093.92"/><polygon class="cls-43" points="1594.87 1116 1367.32 1124.24 1367.32 1107.88 1594.87 1100.11 1594.87 1116"/><polygon class="cls-44" points="1692.93 1134.24 1471.27 1142.91 1471.27 1126.77 1692.93 1118.55 1692.93 1134.24"/><polygon class="cls-45" points="1692.93 1156.03 1471.27 1165.35 1471.27 1149.2 1692.93 1140.35 1692.93 1156.03"/><polygon class="cls-34" points="1692.93 1177.83 1471.27 1187.78 1471.27 1171.63 1692.93 1162.14 1692.93 1177.83"/><polygon class="cls-46" points="1436.05 1054.15 1274.47 1058.6 1274.47 1042.04 1436.05 1037.93 1436.05 1054.15"/><polygon class="cls-47" points="1557.18 828.95 1327.34 828.64 1327.34 812.2 1557.18 812.98 1557.18 828.95"/><polygon class="cls-34" points="1594.87 851.08 1367.32 851.43 1367.32 835.07 1594.87 835.19 1594.87 851.08"/><polygon class="cls-48" points="1594.87 873.15 1367.32 874.16 1367.32 857.8 1594.87 857.27 1594.87 873.15"/><polygon class="cls-49" points="1594.87 895.23 1367.32 896.9 1367.32 880.54 1594.87 879.34 1594.87 895.23"/><polygon class="cls-50" points="1420.7 919.09 1274.88 920.58 1274.88 904.02 1420.7 902.84 1420.7 919.09"/><polygon class="cls-34" points="1489.02 940.77 1327.34 942.89 1327.34 926.45 1489.02 924.66 1489.02 940.77"/><polygon class="cls-51" points="1573.02 961.81 1367.32 965.1 1367.32 948.74 1573.02 945.88 1573.02 961.81"/><polygon class="cls-52" points="1573.02 983.95 1367.32 987.84 1367.32 971.47 1573.02 968.02 1573.02 983.95"/><polygon class="cls-53" points="1618.62 1005.1 1415.39 1009.52 1415.39 993.26 1618.62 989.26 1618.62 1005.1"/><polygon class="cls-54" points="1618.62 1027.11 1415.39 1032.12 1415.39 1015.86 1618.62 1011.27 1618.62 1027.11"/><polygon class="cls-55" points="1436.05 806.25 1274.47 805.57 1274.47 789.01 1436.05 790.03 1436.05 806.25"/><polygon class="cls-56" points="1141.17 638.4 994.38 634.76 994.38 610.63 1141.17 614.7 1141.17 638.4"/><polygon class="cls-34" points="956.41 633.82 984.06 634.5 984.06 610.34 956.41 609.57 956.41 633.82"/><polygon class="cls-34" points="1141.17 672.47 994.38 669.45 994.38 645.32 1141.17 648.77 1141.17 672.47"/><polygon class="cls-34" points="956.41 668.66 984.06 669.23 984.06 645.07 956.41 644.42 956.41 668.66"/><polygon class="cls-34" points="1141.17 706.54 994.38 704.13 994.38 680 1141.17 682.84 1141.17 706.54"/><polygon class="cls-34" points="956.41 703.51 984.06 703.96 984.06 679.8 956.41 679.27 956.41 703.51"/><polygon class="cls-56" points="1141.17 948.37 884.72 951.83 884.72 927.38 1141.17 924.67 1141.17 948.37"/><polygon class="cls-34" points="1141.17 985.4 994.38 988.05 994.38 963.92 1141.17 961.7 1141.17 985.4"/><polygon class="cls-34" points="956.41 988.74 984.06 988.24 984.06 964.08 956.41 964.5 956.41 988.74"/><polygon class="cls-34" points="1141.17 1019.47 994.38 1022.74 994.38 998.61 1141.17 995.77 1141.17 1019.47"/><polygon class="cls-34" points="956.41 1023.59 984.06 1022.97 984.06 998.81 956.41 999.35 956.41 1023.59"/><polygon class="cls-34" points="1141.17 1053.54 994.38 1057.43 994.38 1033.3 1141.17 1029.84 1141.17 1053.54"/><polygon class="cls-34" points="956.41 1058.43 984.06 1057.7 984.06 1033.54 956.41 1034.19 956.41 1058.43"/><polygon class="cls-56" points="1141.17 740.84 884.72 737.72 884.72 713.27 1141.17 717.14 1141.17 740.84"/><polygon class="cls-34" points="1141.17 777.87 994.38 776.76 994.38 752.63 1141.17 754.17 1141.17 777.87"/><polygon class="cls-34" points="956.41 776.47 984.06 776.68 984.06 752.52 956.41 752.23 956.41 776.47"/><polygon class="cls-34" points="1141.17 811.94 994.38 811.45 994.38 787.32 1141.17 788.24 1141.17 811.94"/><polygon class="cls-34" points="956.41 811.32 984.06 811.41 984.06 787.25 956.41 787.08 956.41 811.32"/><polygon class="cls-34" points="1141.17 880.52 994.38 881.27 994.38 857.14 1141.17 856.82 1141.17 880.52"/><polygon class="cls-34" points="956.41 881.46 984.06 881.32 984.06 857.16 956.41 857.22 956.41 881.46"/><polygon class="cls-34" points="1141.17 914.59 994.38 915.96 994.38 891.83 1141.17 890.89 1141.17 914.59"/><polygon class="cls-34" points="956.41 916.31 984.06 916.05 984.06 891.89 956.41 892.07 956.41 916.31"/><polygon class="cls-34" points="1141.17 846.01 994.38 846.13 994.38 822 1141.17 822.31 1141.17 846.01"/><polygon class="cls-34" points="956.41 846.16 984.06 846.14 984.06 821.98 956.41 821.92 956.41 846.16"/><polygon class="cls-56" points="1141.17 1087.6 884.72 1095.47 884.72 1071.02 1141.17 1063.9 1141.17 1087.6"/><polygon class="cls-34" points="1141.17 1124.63 994.38 1129.81 994.38 1105.68 1141.17 1100.93 1141.17 1124.63"/><polygon class="cls-34" points="956.41 1131.15 984.06 1130.17 984.06 1106.01 956.41 1106.91 956.41 1131.15"/><polygon class="cls-34" points="1141.17 1158.7 994.38 1164.5 994.38 1140.37 1141.17 1135 1141.17 1158.7"/><polygon class="cls-34" points="956.41 1165.99 984.06 1164.9 984.06 1140.74 956.41 1141.75 956.41 1165.99"/><polygon class="cls-34" points="1141.17 1192.77 994.38 1199.18 994.38 1175.05 1141.17 1169.07 1141.17 1192.77"/><polygon class="cls-34" points="956.41 1200.84 984.06 1199.63 984.06 1175.47 956.41 1176.6 956.41 1200.84"/><polygon class="cls-34" points="1172.34 1191.53 1166.69 1191.77 1166.69 578.5 1172.34 578.68 1172.34 1191.53"/><path class="cls-34" d="M1873.08,1220c-249,5.2-305,40.76-375.75-1.84-97.22-58.54-52.95-162.67-147.67-217.29-119.09-68.67-256.39,57.09-318.55-4.22-61.89-61.06,55-204.77-12.65-365-27.17-64.29-73.42-106-105.37-130L848.64,499c-24.74-1.08-45,15.3-45,36.5v764.29c0,21.2,20.23,37.25,45,35.77l1143.85-68.19c18.16-1.08,32.86-16.63,32.86-34.66v-11.56C1991.07,1219.9,1938,1218.68,1873.08,1220Z"/><path class="cls-31" d="M1973.17,1204.39,1416.87,1330c-13.75,3.1-25-5.68-25-19.66v-819c0-14,11.27-23.39,25-21.06l556.3,94.38c7.53,1.28,13.58,10.57,13.58,20.77v597.41C1986.75,1193.05,1980.7,1202.69,1973.17,1204.39Z"/><path class="cls-57" d="M1985.83,1204.38,1429.52,1330c-13.74,3.1-25-5.68-25-19.66v-819c0-14,11.27-23.39,25-21.06l556.31,94.38c7.52,1.28,13.58,10.57,13.58,20.77v597.41C1999.41,1193.05,1993.35,1202.69,1985.83,1204.38Z"/><g class="cls-58"><path class="cls-59" d="M1914.5,1093.2c-68.89-77.7-21.47-203.62-84.39-236.27-52.34-27.17-108.37,48-158.22,22.15-64.81-33.54-4.62-178.43-68.56-290.06-22.78-39.78-67.23-85.64-162.85-116.86l-11-1.86c-13.74-2.33-25,7.09-25,21.06v819c0,14,11.27,22.76,25,19.66l556.31-125.59c7.52-1.7,13.58-11.34,13.58-21.53v-41.32C1965.21,1132.89,1936,1117.49,1914.5,1093.2Z"/></g><path class="cls-60" d="M1973.55,607.1l-524.37-74.65c-4.73-.67-8.58,5.46-8.58,13.7V714c0,8.24,3.85,15.11,8.58,15.35l524.37,26.73c2.69.14,4.87-4.77,4.87-11V619C1978.42,612.81,1976.24,607.49,1973.55,607.1Z"/><path class="cls-60" d="M1449.18,729.33l187.55,9.56c-1.43-48.52-6.1-102.22-33.4-149.87a201.89,201.89,0,0,0-28.88-38.73l-125.27-17.84c-4.73-.67-8.58,5.46-8.58,13.7V714C1440.6,722.22,1444.45,729.09,1449.18,729.33Z"/><path class="cls-61" d="M1613.16,916.2l-160,6.19a12.09,12.09,0,0,1-12.52-12.31V784.68a12.2,12.2,0,0,1,12.52-12.41l160,5c5.87.19,10.61,5.58,10.61,12V904.07C1623.77,910.54,1619,916,1613.16,916.2Z"/><path class="cls-56" d="M1613.16,1072.35l-160,18.76a11.05,11.05,0,0,1-12.52-11.34V954.37A13.42,13.42,0,0,1,1453.12,941l160-7.58c5.87-.28,10.61,4.74,10.61,11.21V1059.4C1623.77,1065.87,1619,1071.67,1613.16,1072.35Z"/><path class="cls-56" d="M1613.16,1228.46l-160,31.3c-6.9,1.35-12.52-3.28-12.52-10.35V1124a14.8,14.8,0,0,1,12.52-14.38l160-20.13c5.87-.74,10.61,3.91,10.61,10.39v114.78C1623.77,1221.14,1619,1227.31,1613.16,1228.46Z"/><polygon class="cls-62" points="1977.68 1157.16 1633.71 1224.44 1633.71 777.88 1977.68 788.58 1977.68 1157.16"/><polygon class="cls-63" points="1977.68 1157.16 1633.71 1224.44 1633.71 1156.71 1977.68 1101.26 1977.68 1157.16"/><path class="cls-64" d="M1854.18,957.36c0,37.23-14.2,68.92-32,70.81-18.2,1.93-33.23-27.78-33.23-66.4s15-70.37,33.23-70.9C1840,890.35,1854.18,920.12,1854.18,957.36Z"/><polygon class="cls-60" points="1809.27 1000.36 1809.27 920.42 1846.73 957.86 1809.27 1000.36"/><polygon class="cls-60" points="1971.75 1135.92 1642.34 1195.83 1642.34 1184.96 1971.75 1126.88 1971.75 1135.92"/><polygon class="cls-65" points="1737.04 1178.61 1642.34 1195.83 1642.34 1184.96 1737.04 1168.26 1737.04 1178.61"/><path class="cls-31" d="M1739.94,1172.91c0,8.56-3.45,16.14-7.73,16.94s-7.8-5.53-7.8-14.16,3.5-16.21,7.8-17S1739.94,1164.36,1739.94,1172.91Z"/><path class="cls-66" d="M1914.5,1093.2c-68.89-77.7-21.47-203.62-84.39-236.27-52.34-27.17-108.37,48-158.22,22.15-29.44-15.23-33.09-53.45-34.29-101.08l-3.89-.12v446.56l344-67.28v-22.33C1952.8,1125.68,1931.3,1112.16,1914.5,1093.2Z"/><path class="cls-67" d="M1019.26,1545.43a1.18,1.18,0,0,1-1.18-1.18V1079.18a1.18,1.18,0,1,1,2.36,0v465.07A1.18,1.18,0,0,1,1019.26,1545.43Z"/><path class="cls-67" d="M894,1516.22a1.18,1.18,0,0,1-1.18-1.18V1067.45a1.18,1.18,0,1,1,2.36,0V1515A1.18,1.18,0,0,1,894,1516.22Z"/><path class="cls-67" d="M604.29,1537.06a1.12,1.12,0,0,1-.4-.07,1.18,1.18,0,0,1-.71-1.51L770.67,1074a1.18,1.18,0,1,1,2.22.8L605.4,1536.28A1.19,1.19,0,0,1,604.29,1537.06Z"/><path class="cls-67" d="M727.94,1573.17a1,1,0,0,1-.35-.05,1.18,1.18,0,0,1-.78-1.47l150.32-486.58a1.18,1.18,0,0,1,2.26.69L729.06,1572.34A1.16,1.16,0,0,1,727.94,1573.17Z"/><polygon class="cls-67" points="895.35 1066.98 1021.04 1076.29 1021.04 1079.11 877.39 1085.55 770.03 1072.4 770.03 1069.57 895.35 1066.98"/><polygon class="cls-68" points="895.35 1064.16 1021.04 1076.29 877.39 1082.73 770.03 1069.57 895.35 1064.16"/><path class="cls-67" d="M760.46,1467.91a1,1,0,0,1-.3,0l-119.68-31.4a1.18,1.18,0,0,1,.6-2.28l119.68,31.4a1.18,1.18,0,0,1-.3,2.32Z"/><path class="cls-67" d="M794.36,1357.76h-.21L676.7,1337a1.18,1.18,0,0,1,.41-2.33l117.45,20.8a1.18,1.18,0,0,1-.2,2.34Z"/><path class="cls-67" d="M829.61,1244.08h-.15l-113.67-14.66a1.17,1.17,0,0,1-1-1.32,1.19,1.19,0,0,1,1.32-1l113.67,14.66a1.18,1.18,0,0,1-.15,2.35Z"/><path class="cls-67" d="M852.2,1165.18H852l-106.87-16.72a1.18,1.18,0,1,1,.36-2.34l106.88,16.73a1.18,1.18,0,0,1-.18,2.34Z"/><path class="cls-69" d="M1168.65,852.62l-268.29-1.16c-1.32,0-1.93-1.94-.92-2.94l27.18-27V701.66c0-4.83,3.53-9,7.9-9.27l234.13-15.28a9,9,0,0,1,9.65,9.1V842.94A9.64,9.64,0,0,1,1168.65,852.62Z"/><polygon class="cls-70" points="995.26 716.53 946.28 719.14 946.28 712.76 995.26 710.01 995.26 716.53"/><polygon class="cls-70" points="995.26 729.57 946.28 731.91 946.28 725.53 995.26 723.05 995.26 729.57"/><polygon class="cls-70" points="995.26 750.1 946.28 752.01 946.28 745.63 995.26 743.59 995.26 750.1"/><polygon class="cls-70" points="995.26 763.14 946.28 764.78 946.28 758.4 995.26 756.62 995.26 763.14"/><polygon class="cls-70" points="1154.49 815.59 946.28 817.75 946.28 811.37 1154.49 808.63 1154.49 815.59"/><polygon class="cls-70" points="1154.49 829.51 946.28 830.52 946.28 824.14 1154.49 822.55 1154.49 829.51"/><polygon class="cls-70" points="995.26 783.67 946.28 784.88 946.28 778.5 995.26 777.16 995.26 783.67"/><polygon class="cls-70" points="995.26 796.71 946.28 797.65 946.28 791.27 995.26 790.19 995.26 796.71"/><polygon class="cls-70" points="1154.49 794.38 1014.28 797.03 1014.28 708.95 1015.56 708.88 1015.56 795.64 1154.49 792.94 1154.49 794.38"/><polygon class="cls-70" points="1032.55 771.87 1031.63 770.93 1059.37 740.11 1087.23 749.11 1115.32 722.99 1144.25 736.72 1143.61 738.03 1115.52 724.68 1087.52 750.69 1059.72 741.7 1032.55 771.87"/><path class="cls-71" d="M1036.56,771.27a4.77,4.77,0,0,1-4.47,4.87,4.44,4.44,0,0,1-4.45-4.61,4.78,4.78,0,0,1,4.45-4.88A4.45,4.45,0,0,1,1036.56,771.27Z"/><path class="cls-72" d="M1064.12,740.71a4.93,4.93,0,0,1-4.58,5,4.45,4.45,0,0,1-4.55-4.61,4.92,4.92,0,0,1,4.55-5A4.46,4.46,0,0,1,1064.12,740.71Z"/><path class="cls-73" d="M1092.05,749.72a5,5,0,0,1-4.68,5,4.55,4.55,0,0,1-4.66-4.68,5,5,0,0,1,4.66-5A4.56,4.56,0,0,1,1092.05,749.72Z"/><path class="cls-74" d="M1120.21,723.61a5.13,5.13,0,0,1-4.79,5.13,4.57,4.57,0,0,1-4.77-4.68,5.14,5.14,0,0,1,4.77-5.14A4.59,4.59,0,0,1,1120.21,723.61Z"/><path class="cls-75" d="M1148.83,737.17a5.19,5.19,0,0,1-4.9,5.17,4.68,4.68,0,0,1-4.88-4.76,5.18,5.18,0,0,1,4.88-5.17A4.69,4.69,0,0,1,1148.83,737.17Z"/><path class="cls-76" d="M989.56,823l5.92-6.46a21.71,21.71,0,0,1,5.27-4.54c4.76-2.92,11.32-4.36,12.3-2.69,1.11,1.89-5.11,7.5-7.23,9.35L997,825Z"/><path class="cls-77" d="M863.06,779c-1.61.61-26.14,10.36-31.18,36-.41,2.06-4.35,24.06,10.57,39.6,16.72,17.42,48.93,17,61.71,2.42a26,26,0,0,0,5.44-10.32l-3.37-9c-4.11-5-9.71-6.14-12.69-6.87-7.37-1.82-12.93,1.46-17.15-2.09-2.34-2-2.8-4.8-3.22-7.32-1.41-8.61,3.45-13.91,3.8-19.22.27-4,1.66-12.66-3.52-18.34C870.17,780.33,865.62,779.36,863.06,779Z"/><path class="cls-78" d="M853.5,1064.36c-.29-1.58-5.38-3-7.9-.9-1.25,1-2.11,3.18-1.39,4.14.27.35-.81,1,.22,1C847.86,1068.61,853.78,1065.92,853.5,1064.36Z"/><path class="cls-79" d="M848.16,1064.93l-5.23-.74c2.43-2.92,2-12.22,2-12.22l5.56,1.24s-.63,2.56-1.71,6.32A25.25,25.25,0,0,0,848.16,1064.93Z"/><path class="cls-80" d="M848.63,1064.28s-6.3-1.45-7-.2-1.22,4.6,2.78,4.49S849,1065.34,848.63,1064.28Z"/><path class="cls-81" d="M925.32,1070.27c-.5-1.52-5.74-2.22-7.94.22-1.09,1.21-1.65,3.44-.8,4.28.31.31-.67,1.07.35.94C920.33,1075.27,925.82,1071.78,925.32,1070.27Z"/><path class="cls-82" d="M920.12,1071.58h-5.29c2-3.23.25-12.37.25-12.37l5.69.45s-.27,2.61-.82,6.49A25.26,25.26,0,0,0,920.12,1071.58Z"/><path class="cls-83" d="M933.82,871.67a244.17,244.17,0,0,1,8.2,37.51c6.42,46.71-7.23,48.2-4.68,100,.81,16.52-14.31,54.62-15.65,55.46a15.48,15.48,0,0,1-2.09.08,21.17,21.17,0,0,1-5.33-.88c-2.39-.42-11-23.82-9-37.73,1.42-9.85,1-20.42.18-41.55-.13-3.43-8.89-66.63-8.89-66.63-2.67,23.39-5.73,43.27-8.39,58.68-8.54,49.52-36.3,79.49-37.74,80a5.88,5.88,0,0,1-5-.34,3.57,3.57,0,0,1-1.27-1.43c-.74-.58.22-49.44,8.69-86.21,12.29-53.36,6.94-65.85,10.83-89.69C867,858.25,933.82,871.67,933.82,871.67Z"/><path class="cls-84" d="M884.18,774.88c8.16-.24,26.91-3.12,37.24,6.17.18.16-1.93,1.29-.89,2.51A68.31,68.31,0,0,1,927.82,794,69.92,69.92,0,0,1,934,809.19a129.91,129.91,0,0,1,4.84,26.46c1.89,24.83,0,36.29-1.68,44.08-7.38,3.79-26.39,10.57-49,7.2a76.73,76.73,0,0,1-24.45-8c5.88-17.8,1.27-27.32-.91-36.1-3.1-12.51-3.15-11.57-5.7-21.51-4.22-16.4-4.91-33.17-2-36.6C862.8,775.43,876.87,775.09,884.18,774.88Z"/><path class="cls-85" d="M920.49,1070.88s-6.44-.56-6.94.77-.56,4.73,3.38,4.06S921,1071.88,920.49,1070.88Z"/><path class="cls-86" d="M907.14,765.52c2.53-4.27,1.4-9.15,1.15-10.21-1.06-4.42-1.46-5.08-2.28-6l-1.16-1.22-.15-.11a16.24,16.24,0,0,0-4.46-1.49c-2.08-.1-6.3,7.34-8.72,18.81-.19.41-.39.82-.58,1.24-1.2,2.6-2.23,5.16-3.11,7.65-14,1.19-16,2.84-16,3.79-.13,2,7.86,4.31,13.87,5.19,13.11,1.92,26.58-1.54,26.52-4,0-1.07-2.63-2.45-13.74-3.91l.78-5.52C900.12,769.54,905.28,768.67,907.14,765.52Z"/><path class="cls-87" d="M909.78,745.94c-.95,3.5-3.6,6.8-4.6,7.18a6.08,6.08,0,0,0-1.64,1,2,2,0,0,0-.31.36c-1.35,2,1.47,5.53.53,6.34-.69.59-2.82-1-3.27-.46s1.24,2.24.75,2.86-1.46-.34-2.44.26c-.49.3-.47.65-1.2,1.77a12.52,12.52,0,0,1-1.3,1.67c-1.76,1.73-5.39,1.57-5.83.57-.12-.28.08-.43.1-1.25a6.22,6.22,0,0,0-.26-1.72c-.39-1.37-1.88-2.67-3.28-4.37-2.58-3.16-2.93-5.35-3-6.09,0-.26,0-.45,0-.59-.14-2.81.86-6.6,2.65-8.62,3-3.39,6.88-.37,11.5-3.28,5.33-3.37,4.49-10.13,6.92-10.21C907.72,731.33,911.53,739.46,909.78,745.94Z"/><path class="cls-88" d="M902.72,759.71c-.55-1.41-2.35-.7-2.77.82s.64,3.51,2.16,3.59S903.45,761.61,902.72,759.71Z"/><path class="cls-89" d="M866.22,867.69h0a.32.32,0,0,1-.28-.34c1-8.67-.83-15-2.41-20.53-.4-1.37-.76-2.66-1.09-4-1.76-7.11-2.53-9.85-3.34-12.75-.54-1.89-1.08-3.85-1.94-7.11a.31.31,0,0,1,.23-.38.3.3,0,0,1,.37.22c.85,3.26,1.4,5.21,1.93,7.1.82,2.91,1.59,5.66,3.35,12.77.32,1.29.69,2.58,1.08,3.94,1.6,5.62,3.42,12,2.44,20.76A.31.31,0,0,1,866.22,867.69Z"/><path class="cls-87" d="M902.7,757l1.3,3.13s1.3,3.74,3,2.34c1.4-1.15,1.66-1.05,1.71-1a0,0,0,0,1,0,0s0-.75,0-1.4a12,12,0,0,1,.73,4.11c0,1.73,0,3.58-1.35,5a5.1,5.1,0,0,1-3.54,1.51s-.79,0-3.75-1.4c0,0,4.06-1.56,4.27-2.14.56-1.55-1.42-3-2.19-6.71A13.67,13.67,0,0,1,902.7,757Z"/><path class="cls-90" d="M992.84,818.34a16.36,16.36,0,0,1,5.35,6.66,49.51,49.51,0,0,1-17.27,21.52c-16.7,11.42-41.19,11.81-58.24-1.22-20.38-15.57-23.78-45.42-15.22-58.2,1-1.47,4.22-6.31,9.25-6.87,3.18-.35,7.5,1,14.33,9,14.22,16.66,9.2,27.06,17.61,31.93C961.25,828.43,980,809.35,992.84,818.34Z"/><path class="cls-89" d="M935.48,852.42h-.07c-.2,0-20.23-4.64-29.23-29.47a.31.31,0,0,1,.58-.21c8.89,24.51,28.59,29,28.78,29.08a.31.31,0,0,1-.06.61Z"/><path class="cls-91" d="M851.81,1616s19.08,6.77,19.5,8.07-11.85.57-16.78,1.19-9.12-.49-8.85-2.62,1.54-7.55,1.54-7.55Z"/><path class="cls-92" d="M851.9,1609.12l-.41,8.37s-2.82,1.28-4.87.23l-1.62-9Z"/><path class="cls-93" d="M765.43,1616.77l-1.84,3.61a4.13,4.13,0,0,0-.21,3.25c1,2.79,3,8.22,3.74,9.61,1.06,1.9,13,2,13,2s.93-1.58-1.69-3.17-4.23-1.74-5.33-4.32-2.33-10-2.33-10Z"/><path class="cls-94" d="M773.57,1607.29c-.72.69-3.54,12.6-3.54,12.6s-1.1,1.69-3.65-.44-1.15-1-1.15-1l-.54-11.43Z"/><path class="cls-95" d="M847.69,1442.14c3.09,24.58,5.44,51.38,6.49,80.12,1.18,32.37.53,62.44-1.19,89.8-1.5.18-3.08.32-4.73.42-1.12.06-2.2.1-3.25.12a204.43,204.43,0,0,1-8.68-21.17,209.44,209.44,0,0,1-7-25.08c-5.94-27.62-2-30.42-6.66-50.87-4.12-18.12-7.8-18.52-14.29-44.19-7-27.85-4-32.38-2.44-34C812.53,1430.11,829.57,1433.11,847.69,1442.14Z"/><path class="cls-96" d="M806,1437.24c6.23-6.8,22-4.37,39.2,3.7-17.06,21.94-18,35.3-15,43.65,3.38,9.45,11.37,11.57,12.25,22.14,1.08,13-10.34,17.44-8.91,31.16,1,9.07,6.09,8.53,8.27,19.65,2.59,13.16-3.75,18.31-.72,28,1.3,4.15,4.45,9.44,12.56,14.48-.2,4.08-.42,8.12-.67,12.09-1.5.18-3.08.32-4.73.42-1.12.06-2.2.1-3.25.12a204.43,204.43,0,0,1-8.68-21.17,209.44,209.44,0,0,1-7-25.08c-5.94-27.62-2-30.42-6.66-50.87-4.12-18.12-7.8-18.52-14.29-44.19C801.4,1443.44,804.46,1438.91,806,1437.24Z"/><path class="cls-97" d="M836,1442.73a555.63,555.63,0,0,0-61.91,169,9.91,9.91,0,0,1-5.35,1.31,10.15,10.15,0,0,1-6.43-2.79,160.15,160.15,0,0,1-4.79-39.21,135.67,135.67,0,0,1,3-30c3.23-14.8,6.23-15.88,10.75-31.63,4.69-16.36,2.88-20.18,7-40.5a262.17,262.17,0,0,1,9.95-35.85Z"/><path class="cls-98" d="M899,1403.52c.35,5.77-8.66,11.68-16.13,13.91-17.48,5.21-39.27-5.9-50.34-19.34-2.17-2.64-4.61-5.86-5.1-5.55-1.11.7,11.15,17.34,17.56,36.93,3.28,10,3.08,14.87,8.13,21.28,1.14,1.46,2.52,3,2.25,4.82-.69,4.67-11,6.78-18.22,8.25a168.93,168.93,0,0,1-21.8,2.62c-11.31.83-12.26.32-14.72,1.82-7.52,4.55-6.17,13.75-12,15.51-4.87,1.47-10.4-3.63-12.16-5.25-9.11-8.4-9.64-19.46-12.1-30.45-5.71-25.54-22.26-52.62-37.59-69.33-4.65-5.06-7.8-7.67-8.43-12.7-1.84-14.79,20.21-33.24,39.6-36.86a147.92,147.92,0,0,1,24-1.62c3.63,0,7.5.18,11.69.53,10.13.86,17.19,1.46,24.56,4.08,29.72,10.54,26.07,40.18,58.76,57.55C888.28,1395.7,898.66,1397.48,899,1403.52Z"/><path class="cls-99" d="M742.53,1466.51c-7.76,1.39-25.34,3.27-38.81-7.14-22.42-17.34-15.37-54.75-9.55-71.09,6.68-18.73,19-30,26.41-36.8,9.25-8.48,14.9-13.65,22.28-13.26,19.09,1,35.57,38.5,26.2,50.48-3.06,3.92-6.6,2.17-16.13,6.16-3.1,1.3-26.26,11-28.86,28.92-1.81,12.54,6.86,26.27,20.87,34.77Z"/><path class="cls-100" d="M773,1312.35s-.62,7-3,12.08c-2.17,4.63-12.58,7.14-14.71,8.1s3.73,4.3,9.71,5.17,23.23.26,26.42-1.88-2.39-2.22-6.62-4-6.33-10.27-5.41-14S773,1312.35,773,1312.35Z"/><path class="cls-101" d="M784,1309.38c4-3.42,4.44-11.75,1.91-13.39-.72-.46-1.34-.16-10.61,4.54-4.6,2.34-6.85,3.56-7.44,5.74a6.65,6.65,0,0,0,.52,4.38,16.85,16.85,0,0,0,2.24,3.08c1.16,1.39,1.09,1.35,1.44,1.75a23.22,23.22,0,0,0,5.34,4.37,15.68,15.68,0,0,1,.54-2.79,14.33,14.33,0,0,1,1.45-3.38C780.85,1311.29,782.69,1310.49,784,1309.38Z"/><path class="cls-102" d="M773.77,1318.17a8.87,8.87,0,0,0,8.26,2.88c4.57-.91,3.87-11.35.64-13.15a5.91,5.91,0,0,0-4.64,0c-.91.4-1.17.83-2.67,1.44s-1.81.46-2.2.88-.73,1.69.58,4.6a2.5,2.5,0,0,0-2.8-.52,1.63,1.63,0,0,0-.54.68C769.92,1316.25,771.19,1317.62,773.77,1318.17Z"/><path class="cls-103" d="M829.62,1452.38c-9.35-4.81-11.16-10.36-21.41-13.32-13.32-3.83-19,3-25.79-1.5-8.14-5.4-2.35-16.58-9.66-34.45-1.24-3-10.67-26.06-27.76-27.59-8-.71-18.07,3.21-21.47,10.21-2.66,5.48.59,9.1-2.7,15.18s-8,5.08-12.36,10.29c-7,8.28-6.77,24.42,1,32.87,3.61,3.94,8,5.24,16.15,7.68a74.51,74.51,0,0,0,13.54,2.71c-10.51-8.44-16.6-20-15.06-30.68,1.62-11.17,11.23-19.15,19-23.89,9.47,14.57,17.68,31.69,21.37,48.18,2.46,11,3,22,12.1,30.45,1.76,1.62,7.29,6.72,12.16,5.25,5.81-1.76,4.46-11,12-15.51,2.46-1.5,3.41-1,14.72-1.82a168.93,168.93,0,0,0,21.8-2.62c6.39-1.31,15.26-3.13,17.63-6.8C843.15,1457.74,835.09,1455.2,829.62,1452.38Z"/><path class="cls-104" d="M874,1404.85c-13.16-1.76-18.3-1.21-25.14-5.79-11.38-7.62-14.13-20.51-20.3-19.81-2.91.34-5,3.53-6.44,6.59l5.31,6.9c0-.1,0-.17.06-.2.49-.31,2.93,2.91,5.1,5.55,11.07,13.44,32.86,24.55,50.34,19.34,5-1.5,10.7-4.65,13.8-8.3A222.36,222.36,0,0,0,874,1404.85Z"/><path class="cls-70" d="M723,1493.36l-2.1-3.75A12.06,12.06,0,0,1,726.1,1473l273.15-152.53,1.12,6.76L740.23,1498.32A12.91,12.91,0,0,1,723,1493.36Z"/><path class="cls-105" d="M743.05,1464.81l1.35-4.49a9,9,0,0,0,5.05-2,6.8,6.8,0,0,1,4.09-1.37c.67.13,3.14-.2.44,1.39s-2.59,2.6-1.32,3.6,6,3,7.58,3-1.07,2.73-2.66,3.19a10.09,10.09,0,0,1-7.7-.55C748.61,1467,743.05,1464.81,743.05,1464.81Z"/><path class="cls-106" d="M891.48,1398.78s6-4.2,8.93-8,6.66-2.78,7.21-1-4.45,7.56-6.9,9S891.48,1398.78,891.48,1398.78Z"/><path class="cls-107" d="M999.12,1323.08c28.72-34.46,182.64-84.43,253.85-60.88,10.82,32.21,10.59,58.16,9.19,73.51-7.41,81.23-72.23,136.65-97.06,152.2-13,8.15-25.47,11.85-45.37,28.14-12.54,10.26-20.21,19.11-26.42,16.65-6.6-2.61-7.78-16.5-6.89-25.84,2.64-27.79,25.33-33.62,25.27-50.54-.08-20-31.66-27-62-54C1033.6,1388.06,1013.33,1364.18,999.12,1323.08Z"/><path class="cls-108" d="M1023.33,1332.9c-22.42,0-26.57-4.87-27.52-8.87-1.16-4.86,1.32-13,36-27.31,23.38-9.67,55.15-19.48,89.46-27.65s67.1-13.71,92.32-15.61c37.46-2.83,43.32,3.29,44.48,8.15s-1.33,13-36,27.31c-23.38,9.66-55.15,19.48-89.46,27.64s-67.09,13.71-92.32,15.62C1033.71,1332.68,1028.1,1332.9,1023.33,1332.9Zm207.15-73.26c-4.59,0-10.17.21-17,.74-24.79,1.92-57,7.39-90.63,15.4S1058,1293.4,1035,1302.85c-32,13.14-32.54,19.53-32.53,19.58s3.41,5.5,37.86,2.83c24.8-1.92,57-7.39,90.64-15.4s64.85-17.62,87.85-27.08c31.77-13,32.53-19.44,32.53-19.58S1249.05,1259.64,1230.48,1259.64Z"/><path class="cls-109" d="M1053.35,1233.29c-.06-.06-.22-.28-.34-.43l-.42-.51c-.28-.34-.58-.69-.89-1-.61-.67-1.26-1.32-1.92-1.93a30,30,0,0,0-4.23-3.26,20,20,0,0,0-9.17-3.18c-.38,0-.76-.06-1.14,0l-1.15,0a19.18,19.18,0,0,0-2.26.31,19.82,19.82,0,0,0-2.24.56c-.74.29-1.48.49-2.21.86a33.73,33.73,0,0,0-8.42,5.54,7.91,7.91,0,1,1-10.41-11.91,7.46,7.46,0,0,1,1-.73l.2-.13a48.12,48.12,0,0,1,13.39-5.92,38.11,38.11,0,0,1,3.74-.77,33.27,33.27,0,0,1,3.88-.31,31.77,31.77,0,0,1,3.9.13l1.94.28c.65.1,1.28.27,1.91.4a31.1,31.1,0,0,1,13.12,7,39,39,0,0,1,4.85,5.13c.71.91,1.39,1.84,2,2.81.32.48.63,1,.93,1.48.15.25.29.51.44.77l.48.88a4,4,0,0,1-6.39,4.62Z"/><path class="cls-110" d="M1200.4,1213l.13-1c0-.29.09-.59.14-.87.11-.58.22-1.15.35-1.72.25-1.13.56-2.24.91-3.35a38.44,38.44,0,0,1,2.72-6.5,31,31,0,0,1,9.81-11.16c.54-.35,1.07-.73,1.64-1.05l1.72-.94a32.25,32.25,0,0,1,3.6-1.51,35.39,35.39,0,0,1,3.74-1.08,38.05,38.05,0,0,1,3.78-.6,47.85,47.85,0,0,1,14.61.81l.19,0a7.91,7.91,0,0,1-3.1,15.51,8.15,8.15,0,0,1-1.22-.35,34,34,0,0,0-9.83-2.2c-.82-.09-1.58,0-2.38,0s-1.55.11-2.29.27a19,19,0,0,0-2.23.52l-1.08.37c-.36.13-.69.31-1,.46a19.86,19.86,0,0,0-7.45,6.21,29.58,29.58,0,0,0-2.81,4.54c-.4.81-.78,1.64-1.11,2.48-.17.43-.33.85-.48,1.27l-.21.63c-.06.19-.13.44-.17.53l-.32.78a4,4,0,0,1-7.61-2.07Z"/><path class="cls-111" d="M1043,1284.39c-.09,0-.32-.16-.5-.24l-.6-.28c-.4-.19-.82-.36-1.24-.53-.84-.35-1.71-.64-2.58-.91a29.4,29.4,0,0,0-5.22-1.09,20,20,0,0,0-9.63,1.11c-.36.16-.72.28-1.06.46l-1,.52a19.67,19.67,0,0,0-1.91,1.26c-.62.42-1.18,1-1.77,1.47s-1.12,1.09-1.62,1.74a34,34,0,0,0-5.18,8.64,7.91,7.91,0,1,1-14.55-6.2,6.94,6.94,0,0,1,.57-1.08l.12-.2a48.08,48.08,0,0,1,9.49-11.15c.93-.84,2-1.57,3-2.32a35.15,35.15,0,0,1,3.36-2,34.64,34.64,0,0,1,3.58-1.57l1.87-.59c.62-.19,1.26-.31,1.89-.47a31.14,31.14,0,0,1,14.85.58,39.93,39.93,0,0,1,6.58,2.51c1,.52,2.06,1.06,3.06,1.66q.73.43,1.47.93c.25.15.49.33.74.5l.81.58a4,4,0,0,1-3.75,6.94Z"/><path class="cls-112" d="M1064.84,1335.71l-.54.09-.65.13q-.66.13-1.32.3c-.88.21-1.76.48-2.62.77a29.77,29.77,0,0,0-4.87,2.17,20,20,0,0,0-7.16,6.55c-.19.34-.42.64-.59,1l-.52,1c-.28.72-.6,1.4-.81,2.14s-.38,1.5-.57,2.24a22.85,22.85,0,0,0-.29,2.35,33.82,33.82,0,0,0,.86,10,7.91,7.91,0,0,1-15.43,3.5,8.63,8.63,0,0,1-.18-1.21v-.24a48.14,48.14,0,0,1,1.16-14.58,31.12,31.12,0,0,1,2.67-7.23,32.64,32.64,0,0,1,2-3.37l1.17-1.57c.39-.52.84-1,1.26-1.49a31,31,0,0,1,12.38-8.22,38.88,38.88,0,0,1,6.8-1.82c1.15-.2,2.29-.36,3.45-.45.57,0,1.15-.09,1.74-.11.29,0,.59,0,.89,0h1a4,4,0,0,1,1,7.82Z"/><path class="cls-113" d="M1212.35,1254.25l.45-.89c.14-.26.28-.53.43-.78.29-.51.58-1,.89-1.5.61-1,1.27-1.93,2-2.87a39.34,39.34,0,0,1,4.72-5.23,31,31,0,0,1,13-7.29c.63-.15,1.26-.34,1.9-.45l1.93-.32a31.78,31.78,0,0,1,3.9-.24,35.75,35.75,0,0,1,3.88.22c1.26.2,2.56.36,3.77.68a48,48,0,0,1,13.52,5.6l.17.09a7.91,7.91,0,1,1-8.06,13.62,9.54,9.54,0,0,1-1-.73,34,34,0,0,0-8.55-5.33c-.74-.35-1.48-.53-2.23-.81a20.34,20.34,0,0,0-2.26-.5,19.23,19.23,0,0,0-2.27-.26h-1.14c-.39,0-.76,0-1.15.07a20.12,20.12,0,0,0-9.08,3.4,29.64,29.64,0,0,0-4.15,3.36c-.65.63-1.29,1.29-1.88,2-.3.34-.59.69-.86,1l-.41.52c-.12.16-.27.38-.33.44l-.57.63a4,4,0,0,1-6.5-4.46Z"/><path class="cls-114" d="M1199.76,1316.47l.94-.33.85-.27q.84-.27,1.68-.48c1.12-.3,2.25-.53,3.39-.73a38.86,38.86,0,0,1,7-.57,31,31,0,0,1,14.41,3.61c.56.32,1.15.62,1.69,1l1.63,1.09a32.81,32.81,0,0,1,3,2.51,35.62,35.62,0,0,1,2.67,2.83c.77,1,1.61,2,2.27,3.08a48,48,0,0,1,6,13.36l.06.18a7.91,7.91,0,0,1-15.21,4.36,9.08,9.08,0,0,1-.25-1.24,33.68,33.68,0,0,0-2.55-9.75c-.29-.76-.71-1.41-1.06-2.12s-.81-1.34-1.29-1.91a19.25,19.25,0,0,0-1.48-1.75l-.83-.79c-.28-.26-.59-.48-.89-.73a20,20,0,0,0-8.93-3.77,29.17,29.17,0,0,0-5.32-.41c-.91,0-1.82.05-2.73.14l-1.34.16-.65.1-.55.1-.84.06a4,4,0,0,1-1.66-7.71Z"/><path class="cls-115" d="M1221.1,1274.36c-3.21,44.53-33.76,110.28-85.86,112-49.54,1.63-88.47-52.66-92.76-100.51-5.37-59.9,42.34-123.9,92.76-123.48,38.88.33,66.13,38.86,68.63,42.5C1223.59,1233.6,1221.87,1263.71,1221.1,1274.36Z"/><path class="cls-116" d="M1203.87,1204.87c-2.5-3.64-29.75-42.17-68.63-42.5-28.89-.24-56.87,20.66-74.51,49.82a250.74,250.74,0,0,1,64.5-13.25,219.45,219.45,0,0,1,80.84,9.31C1205.37,1207.12,1204.64,1206,1203.87,1204.87Z"/><path class="cls-117" d="M1125.23,1198.94c-6.64,28-19.86,98.54-10.19,185a66.61,66.61,0,0,0,20.2,2.46c52.1-1.72,82.65-67.47,85.86-112,.73-10.23,2.35-38.44-15-66.11A219.45,219.45,0,0,0,1125.23,1198.94Z"/><path class="cls-118" d="M1125.23,1198.94a250.74,250.74,0,0,0-64.5,13.25c-13.15,21.74-20.54,48.07-18.25,73.66,3.69,41.13,33,87,72.56,98.05C1105.37,1297.48,1118.59,1227,1125.23,1198.94Z"/><g class="cls-119"><path class="cls-31" d="M1203.87,1204.87c-2.16-3.14-22.73-32.24-53.31-40.39,31.69,25.52,39.38,44.8,37.23,59.34-4.57,30.89-53.56,41.4-54,75.24-.34,27.25,31.21,38.33,28.14,55.71-1.68,9.51-13.55,19.81-51.72,27.59a67.39,67.39,0,0,0,25,4c52.1-1.72,82.65-67.47,85.86-112C1221.87,1263.71,1223.59,1233.6,1203.87,1204.87Z"/></g><path class="cls-120" d="M1157.56,1172.85c.19-4.33.54-8.53,1-12.78s1-8.47,1.61-12.69,1.39-8.42,2.23-12.62,1.84-8.36,2.92-12.52a155.49,155.49,0,0,1,8.63-24.5l.67-1.49.74-1.48c.5-1,1-2,1.5-2.94,1.08-1.94,2.12-3.89,3.35-5.76s2.5-3.72,3.79-5.56,2.8-3.57,4.41-5.23l1.17-1.26c.39-.42.84-.8,1.26-1.2l1.27-1.19c.44-.39.83-.81,1.31-1.16l2.77-2.19c.46-.38.91-.66,1.37-1s.91-.64,1.38-1a59.45,59.45,0,0,1,12.3-6.59,28.27,28.27,0,0,1,7.73-1.81,18.46,18.46,0,0,1,4.64.2,14.71,14.71,0,0,1,5,1.86,13.44,13.44,0,0,1,4.17,3.91,15.3,15.3,0,0,1,2.22,4.81,21.84,21.84,0,0,1,.4,8.92,31.54,31.54,0,0,1-2.18,7.66,38.16,38.16,0,0,1-3.68,6.74,40.07,40.07,0,0,1-4.87,5.86c-.9.9-1.85,1.75-2.84,2.57l-.74.6-.71.55c-.47.36-1,.72-1.46,1.08-1,.71-2.07,1.41-3.26,2.1a22.22,22.22,0,0,1-4.28,1.91c-.42.14-.93.26-1.43.38l-.83.14a8.36,8.36,0,0,1-.92.1,11,11,0,0,1-4.67-.63,10.15,10.15,0,0,1-2.57-1.42,10,10,0,0,1-2-2,11.79,11.79,0,0,1-1.92-3.86,16.3,16.3,0,0,1-.57-3,23.69,23.69,0,0,1-.09-2.46,32.57,32.57,0,0,1,.36-4.16c.19-1.29.43-2.51.7-3.72.14-.6.29-1.19.44-1.79l.25-.9.14-.46.16-.54,0-.05a7.88,7.88,0,1,1,15.06,4.65,4.93,4.93,0,0,1-.19.54l-.08.21-.1.29-.21.62c-.13.42-.26.84-.38,1.26-.25.84-.46,1.67-.62,2.46a19,19,0,0,0-.32,2.12c-.06.57,0,1-.07.83a4.24,4.24,0,0,0-.59-1,4.92,4.92,0,0,0-.89-.87,4.6,4.6,0,0,0-1.21-.65,3.52,3.52,0,0,0-1.56-.24l-.13,0-.05,0s0,0,.1,0a6.57,6.57,0,0,0,1.52-.59,21.1,21.1,0,0,0,2.13-1.21l1.12-.74.57-.39.5-.36a24.19,24.19,0,0,0,1.94-1.57,26.34,26.34,0,0,0,3.42-3.66,24.76,24.76,0,0,0,2.62-4.21,18.26,18.26,0,0,0,1.55-4.38,9.82,9.82,0,0,0,.16-3.63,3.42,3.42,0,0,0-.3-.95,1.22,1.22,0,0,0-.34-.45,2.19,2.19,0,0,0-.84-.39,6.38,6.38,0,0,0-1.65-.17,16.9,16.9,0,0,0-4.6.85,47.72,47.72,0,0,0-10.2,4.82c-.43.25-.85.51-1.27.77s-.87.53-1.23.8l-2.29,1.61c-.39.25-.73.59-1.1.88l-1.09.91c-.36.31-.74.59-1.08.93l-1,1c-1.42,1.29-2.68,2.79-4,4.23s-2.48,3-3.59,4.7-2.22,3.31-3.29,5c-.53.85-1,1.74-1.51,2.61l-.76,1.32-.69,1.34a147.77,147.77,0,0,0-9.4,22.71c-1.26,3.94-2.43,7.92-3.48,11.94s-2,8.08-2.83,12.16-1.6,8.19-2.25,12.31-1.23,8.29-1.63,12.37v0a2.38,2.38,0,0,1-4.74-.34Z"/><path class="cls-121" d="M1097.09,1177.16c-.4-4.08-1-8.26-1.62-12.37s-1.4-8.23-2.25-12.31-1.8-8.13-2.84-12.16-2.22-8-3.48-11.94a146.23,146.23,0,0,0-9.39-22.7l-.7-1.35-.75-1.32c-.51-.87-1-1.76-1.51-2.61-1.08-1.69-2.12-3.41-3.3-5s-2.38-3.16-3.59-4.7-2.56-2.94-4-4.23l-1-1c-.34-.34-.73-.62-1.08-.93l-1.09-.91a13.39,13.39,0,0,0-1.11-.88l-2.29-1.61c-.36-.27-.82-.53-1.23-.8l-1.26-.77a47.72,47.72,0,0,0-10.2-4.82,17,17,0,0,0-4.6-.85,6.33,6.33,0,0,0-1.65.17,2,2,0,0,0-.84.39,1.12,1.12,0,0,0-.34.45,3.36,3.36,0,0,0-.31.95,9.82,9.82,0,0,0,.16,3.63,18.7,18.7,0,0,0,1.55,4.38,24.82,24.82,0,0,0,2.63,4.21,25.68,25.68,0,0,0,3.41,3.66c.62.56,1.28,1.08,1.94,1.57l.51.36.56.39c.38.27.76.5,1.13.74a21,21,0,0,0,2.12,1.21,6.74,6.74,0,0,0,1.52.59c.08,0,.08,0,.1,0l0,0-.13,0a3.55,3.55,0,0,0-1.56.24,4.82,4.82,0,0,0-2.1,1.52,3.7,3.7,0,0,0-.58,1c-.08.22,0-.26-.07-.83a19.59,19.59,0,0,0-.33-2.12c-.16-.79-.37-1.62-.61-2.46q-.18-.63-.39-1.26l-.2-.62-.11-.29a1.59,1.59,0,0,0-.08-.21,7.88,7.88,0,0,1,14.69-5.73,4.56,4.56,0,0,1,.18.52l0,.08.17.53.13.46.25.9c.16.6.3,1.19.44,1.79.28,1.21.52,2.43.71,3.72a32.65,32.65,0,0,1,.35,4.16,21.2,21.2,0,0,1-.09,2.46,16.2,16.2,0,0,1-.56,3,12.2,12.2,0,0,1-1.92,3.86,10.52,10.52,0,0,1-2,2,10.2,10.2,0,0,1-2.58,1.42,11,11,0,0,1-4.67.63,8.44,8.44,0,0,1-.91-.1l-.84-.14c-.49-.12-1-.24-1.43-.38a21.83,21.83,0,0,1-4.27-1.91,38.38,38.38,0,0,1-3.26-2.1c-.5-.36-1-.72-1.46-1.08l-.71-.55-.75-.6c-1-.82-1.94-1.67-2.83-2.57a40.79,40.79,0,0,1-4.88-5.86,38.82,38.82,0,0,1-3.68-6.74,31.54,31.54,0,0,1-2.18-7.66,21.84,21.84,0,0,1,.4-8.92,15.3,15.3,0,0,1,2.22-4.81,13.55,13.55,0,0,1,4.17-3.91,14.71,14.71,0,0,1,5-1.86,18.52,18.52,0,0,1,4.65-.2,28.29,28.29,0,0,1,7.72,1.81,59.2,59.2,0,0,1,12.3,6.59c.47.32.93.63,1.39,1s.9.61,1.37,1l2.77,2.19c.47.35.87.77,1.3,1.16l1.28,1.19c.41.4.86.78,1.25,1.2l1.17,1.26c1.61,1.66,3,3.46,4.41,5.23s2.66,3.65,3.8,5.56,2.27,3.82,3.35,5.76c.52,1,1,2,1.49,2.94l.74,1.48.68,1.49a155.44,155.44,0,0,1,8.62,24.5c1.08,4.16,2.07,8.33,2.92,12.53s1.59,8.4,2.23,12.61,1.17,8.45,1.61,12.69.79,8.45,1,12.78a2.38,2.38,0,0,1-4.74.35Z"/><path class="cls-56" d="M1253,1262.2c-14.85,56.69-36.52,76-55.13,82.13-31.25,10.29-58.45-15-85.58,2.29-14.47,9.26-25.58,28.52-24.12,46.52,2.94,36.2,55.28,49.69,50.54,71.22-3.1,14.08-26.26,11.89-40.2,37.33-6.78,12.38-9.68,28.19-5.17,31,3.92,2.46,12.47-5.24,26.42-16.65,19.9-16.29,32.35-20,45.37-28.14,24.83-15.55,89.65-71,97.06-152.2C1263.56,1320.36,1263.79,1294.41,1253,1262.2Z"/><path class="cls-122" d="M1258.1,1261.61c-.73-3.08-3.36-6.67-14.73-8.16q-4.15,3.24-8.46,6.26c14.51.5,16.44,3.41,16.48,3.49s-.76,6.53-32.53,19.58c-23,9.46-54.2,19.07-87.85,27.08s-65.84,13.48-90.64,15.4c-34.45,2.67-37.84-2.77-37.86-2.83s.36-4.11,16.7-12.41c-2.8-1-5.56-2.14-8.26-3.41-14.85,8.41-16,13.81-15.14,17.42,1,4,5.1,8.87,27.52,8.87,4.77,0,10.38-.22,16.95-.72,25.23-1.91,58-7.45,92.32-15.62s66.08-18,89.46-27.64C1256.77,1274.57,1259.25,1266.46,1258.1,1261.61Z"/><path class="cls-123" d="M1411.94,1225.5s-3.19-2.08-3.2-4.19-2.2-9.47-3.25-9.46-1,4.23,0,5.27,0,2.11-1,2.12-5.3-3.12-8.5-6.25,0,2.11,1.1,4.21,2.16,6.31,4.28,7.34a48.61,48.61,0,0,0,5.29,2.06l3.19,2.09Z"/><path class="cls-124" d="M1433.55,1170.81c-1.36-2.27-2.5-4.1-3.33-5.41a.34.34,0,0,0-.61.3l2,5.11s-6.72-11.53-6.72-9.61,3.84,7.68,3.84,7.68-8.65-9.6-8.65-7.68,5.77,8.65,5.77,8.65-5.77-3.85-7.69-3.85,3.84,4.81,6.73,7.69c3.16,3.16,3.37,4,3.14,4.42-.64,1.18-5.45-.51-5.61,0-.11.35,2,1.45,4.39,2.3a61.64,61.64,0,0,0,8.64,1.92l3.84-1.92Z"/><path class="cls-87" d="M1627.27,1533.8a3.5,3.5,0,0,1,.83,2,3.35,3.35,0,0,1-.25,1.35c-.75,2-1.92,2.22-3.18,4.3-.77,1.27-.62,1.65-1.33,2.22a4.66,4.66,0,0,1-3,.82,55.09,55.09,0,0,1-7-.4c1.57-2,3.23-4.07,5-6.15.77-.9,1.55-1.79,2.32-2.66l4.61-1.55Z"/><path class="cls-125" d="M1623.44,1511.43s-2.64,13.74.72,17.59c2.85,3.85-1.38,1.1-1.38,1.1l-5.06,4.42-3,5.24s2.79-13.46,2-18.79-1.11-8.94-1.11-8.94Z"/><path class="cls-126" d="M1622.73,1527.09c1.25,0,2.16,1,2.85,3.4s4,4.51.14,4-6.67,5-8,7-5.08,3.82-5,1.84,1.73-2.9,2.19-4.92S1619.89,1527,1622.73,1527.09Z"/><path class="cls-127" d="M1591.73,1330.53c1.84.72,6.08,3,13.71,35.86,4.9,21.1,4.53,26.1,8.44,39,5.25,17.34,10.76,24.35,14.77,33.75,6.35,14.9,10.09,38.5-3.17,75.95l-10.54,4.22a195.64,195.64,0,0,0-3.17-44.3c-9.38-49.7-34.81-86.5-34.81-86.5-11.51-16.67-19.6-22.91-17.93-33.75C1561.36,1339.73,1580.94,1326.29,1591.73,1330.53Z"/><g class="cls-58"><path class="cls-128" d="M1621.27,1483.47c-2.35-21.31,3-25.87-1.06-42.19-6-24.35-21.21-27.63-24.26-47.46-1.24-8-.58-19.47,7.8-34.42-6.57-26.19-10.32-28.2-12-28.87-10.79-4.24-30.37,9.2-32.7,24.26-1.67,10.84,6.42,17.08,17.93,33.75,0,0,25.43,36.8,34.81,86.5a195.64,195.64,0,0,1,3.17,44.3l10.54-4.22c.63-1.78,1.21-3.51,1.76-5.22A121.71,121.71,0,0,1,1621.27,1483.47Z"/></g><path class="cls-87" d="M1598.42,1540.19a4.15,4.15,0,0,1,1,2.4,4.07,4.07,0,0,1-.29,1.62c-.89,2.33-2.29,2.64-3.79,5.11-.92,1.52-.74,2-1.59,2.66a5.47,5.47,0,0,1-3.61,1,61.91,61.91,0,0,1-8.36-.47c1.87-2.41,3.85-4.85,6-7.32.92-1.08,1.85-2.14,2.77-3.17l5.49-1.86Z"/><path class="cls-129" d="M1593.85,1513.54s-3.14,16.37.86,21c3.4,4.59-1.65,1.32-1.65,1.32l-6,5.26-3.61,6.24s3.32-16,2.43-22.39-1.33-10.64-1.33-10.64Z"/><path class="cls-126" d="M1593,1532.19c1.48,0,2.57,1.21,3.39,4.06s4.77,5.36.17,4.76-7.94,5.92-9.58,8.33-6.06,4.55-6,2.19,2.06-3.45,2.6-5.86S1589.62,1532.14,1593,1532.19Z"/><path class="cls-130" d="M1534.77,1366.39a662.39,662.39,0,0,1,47.47,157.17,22.78,22.78,0,0,0,13.71,0,148.72,148.72,0,0,0,2.11-53.8c-2.79-18.87-6.62-18.37-10.55-38-6.62-33.06,2.08-45.44-6.33-81.22-5.2-22.14-10.06-23.89-11.6-24.26C1557.6,1323.44,1540.71,1354.77,1534.77,1366.39Z"/><path class="cls-131" d="M1437.57,1177.31l-3.73,5.63a137.38,137.38,0,0,1,44.34,34.49c18.13,21.64,22.82,41.75,34.58,42,5.5.15,13.62-4,24-25.43a138.66,138.66,0,0,0-35.33-34.06A140.19,140.19,0,0,0,1437.57,1177.31Z"/><path class="cls-132" d="M1521.06,1236.65c-17,14.95-25.61,22.43-28.48,23.21-10.32,2.8-17.15-7.52-36.92-19a150.68,150.68,0,0,0-44.3-16.87l-4.22,6.33a225.85,225.85,0,0,0,25.32,28.47c21.92,20.82,30.16,20.18,48.52,36.92,7.8,7.11,30,27.81,42.19,60.13,9.56,25.35,8.22,45.36,15.82,46.41,4.62.63,6.27-6.58,20-21.1,10-10.52,18.82-19.83,32.7-26.37,7.23-3.4,12.56-4.52,21.1-10.55,7-4.94,12.87-9.09,12.65-13.71-.39-8.24-19.68-6.65-36.91-20-10.63-8.26-7.92-12.46-33.76-53.79-9.76-15.63-17.12-26.19-25.31-25.32C1526.71,1231.68,1525,1233.18,1521.06,1236.65Z"/><path class="cls-133" d="M1496.27,1245.62l4.22,10.55s9.5-5.28,11.61-9.5l-9.5-7.38Z"/><path class="cls-134" d="M1492,1232.61c-3.71-4.93-2.13-14.61,1.19-15.85.94-.35,1.58.15,11,7.88,4.69,3.84,7,5.82,7.09,8.47a7.88,7.88,0,0,1-1.69,4.9,20.08,20.08,0,0,1-3.35,3c-1.69,1.31-1.59,1.27-2.1,1.65a27.62,27.62,0,0,1-7.23,3.67,19.58,19.58,0,0,0,.08-3.34,17.06,17.06,0,0,0-.81-4.25C1495.16,1235.6,1493.25,1234.21,1492,1232.61Z"/><path class="cls-135" d="M1501.56,1245.28a10.44,10.44,0,0,1-10.21,1.22c-5-2.2-1.59-14,2.58-15.26a6.89,6.89,0,0,1,5.31,1.19c1,.68,1.15,1.24,2.72,2.32s2,1,2.29,1.56c.42.73.41,2.13-1.82,5.14,1.34-.64,2.66-.59,3.35.11a1.77,1.77,0,0,1,.44.91C1506.46,1244.05,1504.65,1245.29,1501.56,1245.28Z"/><path class="cls-136" d="M1592.79,1337.91c-24.35,8.47-32.94,30.79-43.25,27.43-12.52-4.08-1.33-37.48-22.15-54.85-12-10-21.76-4-34.81-16.88-10.93-10.79-7.41-18.3-17.93-27.42-11.52-10-22.41-6.76-36.92-11.6a59.38,59.38,0,0,1-22.21-13.73,224.89,224.89,0,0,0,16.94,17.94c21.92,20.82,30.16,20.18,48.52,36.92,7.8,7.11,30,27.81,42.19,60.13,9.56,25.35,8.22,45.36,15.82,46.41,4.62.63,6.27-6.58,20-21.1,10-10.52,18.82-19.83,32.7-26.37,7.23-3.4,12.56-4.52,21.1-10.55,4.28-3,8.14-5.76,10.45-8.48C1613.7,1334.2,1603.22,1334.29,1592.79,1337.91Z"/><path class="cls-137" d="M1990.38,1233.43s-4.28-2.14-5.35-4.28-5.35-4.28-7.49-6.42a21.9,21.9,0,0,1-3.37-5.43.85.85,0,0,1,1.1-1.14,45.77,45.77,0,0,0,6.55,2.29c4.28,1.07,6.42,8.56,6.42,8.56l4.28,5.35Z"/><path class="cls-138" d="M1991.45,1229.15l-4.28,3.21c2.76,7.35,7,17.79,12.84,30,17.55,36.28,36.62,76,61,76,12,0,24.5-9.67,25.68-19.26,1.33-10.83-11.94-20.2-23.54-28.89A790.23,790.23,0,0,1,1991.45,1229.15Z"/><path class="cls-139" d="M1959.85,1408.06a1.59,1.59,0,0,1-1.11-.45c-23.32-22.82-33.41-43.17-30-60.51,2.6-13.16,12-20.81,22-28.9,9.49-7.71,19.31-15.69,25.6-29.46,8.42-18.42,7.54-41.18-2.59-67.65L1688.17,848,1409.3,633.32a29.92,29.92,0,0,0-9.5-4.8,20,20,0,0,1-12-9.18,1.59,1.59,0,0,1,.58-2.16,1.57,1.57,0,0,1,2.16.58,16.77,16.77,0,0,0,10.15,7.73,32.9,32.9,0,0,1,10.5,5.33l279.2,215,286.11,373.74.08.22c10.53,27.38,11.4,51,2.6,70.31-6.6,14.45-17.16,23-26.49,30.61-9.91,8-18.48,15-20.86,27-3.21,16.23,6.57,35.62,29.09,57.63a1.59,1.59,0,0,1,0,2.24A1.57,1.57,0,0,1,1959.85,1408.06Z"/><path class="cls-140" d="M1959.05,1526.87s-14.7,3.58-17.8,5,8.51,2.14,13.93,2.85,6.19,0,6.19,0a32.71,32.71,0,0,1,3.09-4.28C1966.14,1528.39,1959.05,1526.87,1959.05,1526.87Z"/><path class="cls-141" d="M1966.78,1520.71l-8.23,7.4a4.11,4.11,0,0,0,4.11,2.47l9-6.58Z"/><path class="cls-142" d="M2077.05,1401.41a79.13,79.13,0,0,1-8.56,25.68c-14.59,26.85-34.21,23.72-53.5,52.42-8,12-9.53,19.76-21.4,31a89.07,89.07,0,0,1-21.4,15l-9.63-5.35c4.79-7.61,12.42-19.9,21.4-35.31,28.1-48.15,33.73-65.32,53.5-76C2045,1404.82,2057.67,1400.09,2077.05,1401.41Z"/><g class="cls-58"><path class="cls-143" d="M2004.29,1468.81c11.49-13.74,20.49-11,35.31-22.46,9.82-7.62,21.25-20.77,28.54-45.12-14.43.4-24.34,4.26-30.68,7.67-19.77,10.64-25.4,27.81-53.5,76-9,15.41-16.61,27.7-21.4,35.31l.32.18a46.74,46.74,0,0,0,17.87-9.81C1994.7,1498,1991.14,1484.55,2004.29,1468.81Z"/></g><path class="cls-144" d="M1978.61,1238.78s-2.14-2.14-2.14-7.49-5.35-12.84-6.42-13.91-1.07,7.49-1.07,10.7,7.49,12.84,7.49,12.84Z"/><path class="cls-145" d="M1892.91,1527.45s-14.7,3.57-17.8,5,8.51,2.15,13.93,2.86,6.19,0,6.19,0a32.22,32.22,0,0,1,3.09-4.29C1900,1529,1892.91,1527.45,1892.91,1527.45Z"/><path class="cls-146" d="M1900.64,1521.28l-8.23,7.4a4.1,4.1,0,0,0,4.11,2.47l9-6.58Z"/><path class="cls-147" d="M2008.7,1388.94c-29.46,31.82-59.14,66.66-88.38,104.73q-12,15.61-23.21,31.06l7.58,1.79a111.08,111.08,0,0,0,39.63-23.24c15.41-14.22,13.86-21.49,29.43-35.62,18.34-16.65,28.27-13.62,45.8-28.88,8.57-7.45,19-19.34,27.15-38.73Z"/><path class="cls-148" d="M2075.63,1264.23s-8.47,6.7-11.44,12.7,4.14,8.58,4.14,8.58l-1.95,3.75a9.16,9.16,0,0,1-8.66,4.91l-3.17-.19c2.18,1.36,5.49,3.34,9.67,5.47,7.68,3.92,16.8,7.59,17.64,6.2.6-1-3.74-3.28-5.16-8.82a14.59,14.59,0,0,1-.2-6.14l.55-1.73S2088.49,1271.21,2075.63,1264.23Z"/><path class="cls-149" d="M2072.77,1271.94c-2.31-2.69-3-7.46-1.07-9.63,1-1.11,2.94-1.9,7.49-1.07,11.42,2.1,18.53,10.65,24.61,15,10.5,7.49,21.08,4.62,38.51,4.28,5.38-.1,46.78.09,82.39,18.19,12.4,6.3,32.6,16.58,37.45,37.45,3.11,13.42.2,32.61-11.77,40.66-16.14,10.85-37.46-6.13-49.22,5.35-7.69,7.51-1.07,17.23-8.56,25.68-10.34,11.67-39,11.24-56.71-2.14-20.25-15.34-7-33.3-32.09-68.48-8.84-12.41-15.18-26.55-24.61-38.52-.33-.41-11.2-14.2-7.49-19.26,1.29-1.75,4.39-2.52,4.28-4.28C2075.9,1273.9,2074.27,1273.7,2072.77,1271.94Z"/><path class="cls-150" d="M1979.68,1235.57l-5.35,3.21c1.92,22.71,9.38,37,16.05,46,13.44,18.1,28.19,20.65,30,35.31,1.07,8.84-4,9.92-11.77,34.24-4.54,14.32-6.93,21.84-6.42,32.1.27,5.4,1.14,22.78,12.84,33.17,4.73,4.2,9.65,5.85,41.73,8.56,37,3.12,42.32,1.91,52.43,7.49,12.69,7,19.08,17.07,22.46,15,3.82-2.37-1.35-17-2.14-19.26-7.43-21.1-18.78-25.69-29.95-47.08a101.31,101.31,0,0,1-9.63-25.68c-5.54-24.87,2.58-35.34-4.28-48.15-6.53-12.17-20.17-15-33.17-19.26C2033.61,1285.1,2007.87,1271.08,1979.68,1235.57Z"/><path class="cls-151" d="M2120.91,1429.23c-8.51-6.67-15.35-3.19-24.6-10.7-11.76-9.54-6.82-20.08-16-30-15.42-16.49-43-1.87-50.29-13.91-7.76-12.73,20.9-32.55,13.91-57.78-3.34-12-13.29-19.89-19.26-24.61-15.82-12.48-27.28-9.58-39.59-21.4a44.32,44.32,0,0,1-5.22-6,76.67,76.67,0,0,0,10.57,19.92c13.44,18.1,28.19,20.65,30,35.31,1.07,8.84-4,9.92-11.77,34.24-4.54,14.32-6.93,21.84-6.42,32.1.27,5.4,1.14,22.78,12.84,33.17,4.73,4.2,9.65,5.85,41.73,8.56,37,3.12,42.32,1.91,52.43,7.49,12.69,7,19.08,17.07,22.46,15a2.27,2.27,0,0,0,.66-.65C2129.91,1438.5,2125.19,1432.57,2120.91,1429.23Z"/><path class="cls-152" d="M1688.77,849a1.58,1.58,0,0,1-1.51-1.12L1580.89,499.27a3,3,0,0,0-2.37-2.08l-.31-.09-3.93-1.54a1.58,1.58,0,0,1,1.15-2.95l3.79,1.49a6.13,6.13,0,0,1,4.7,4.25L1690.28,847a1.57,1.57,0,0,1-1,2A1.47,1.47,0,0,1,1688.77,849Z"/></g></g></svg>